<svg width="97" height="28" viewBox="0 0 97 28" fill="none" xmlns="http://www.w3.org/2000/svg">
<g clip-path="url(#clip0_469_1523)">
<path d="M18.5368 10.1073C20.3618 11.399 22.5975 12.159 25.0121 12.159V7.55832C24.5551 7.55842 24.0993 7.51123 23.6522 7.41744V11.0389C21.2378 11.0389 19.0024 10.2789 17.177 8.98725V18.376C17.177 23.0727 13.3317 26.8799 8.58862 26.8799C6.81886 26.8799 5.17393 26.3501 3.8075 25.4416C5.36706 27.0205 7.542 28 9.94818 28C14.6916 28 18.537 24.1928 18.537 19.4959V10.1073H18.5368ZM20.2144 5.46576C19.2817 4.45686 18.6693 3.15305 18.5368 1.71162V1.11987H17.2482C17.5726 2.95192 18.679 4.51711 20.2144 5.46576ZM6.80751 21.8374C6.28643 21.1609 6.00484 20.3334 6.0061 19.4824C6.0061 17.3343 7.7649 15.5926 9.93479 15.5926C10.3392 15.5925 10.7412 15.6538 11.1265 15.7749V11.0714C10.6762 11.0102 10.2216 10.9843 9.76727 10.9938V14.6548C9.3816 14.5337 8.97944 14.4722 8.57495 14.4726C6.40506 14.4726 4.64635 16.2142 4.64635 18.3625C4.64635 19.8816 5.52546 21.1968 6.80751 21.8374Z" fill="#FF004F"/>
<path d="M17.177 8.98715C19.0025 10.2788 21.2379 11.0388 23.6523 11.0388V7.41735C22.3046 7.1331 21.1115 6.43574 20.2144 5.46576C18.6789 4.51702 17.5726 2.95182 17.2482 1.11987H13.8633V19.4957C13.8557 21.6379 12.0999 23.3725 9.93464 23.3725C8.6587 23.3725 7.52516 22.7703 6.80726 21.8374C5.52531 21.1968 4.6462 19.8815 4.6462 18.3626C4.6462 16.2144 6.40491 14.4727 8.5748 14.4727C8.99054 14.4727 9.39125 14.5368 9.76712 14.6549V10.9939C5.10734 11.0892 1.35974 14.8592 1.35974 19.4958C1.35974 21.8103 2.29298 23.9086 3.80763 25.4417C5.17407 26.3501 6.819 26.88 8.58876 26.88C13.332 26.88 17.1771 23.0726 17.1771 18.376V8.98715H17.177Z" fill="white"/>
<path d="M23.6523 7.41746V6.43825C22.437 6.44008 21.2455 6.10308 20.2144 5.46578C21.1272 6.45526 22.3291 7.13754 23.6523 7.41746ZM17.2482 1.11998C17.2173 0.9449 17.1935 0.768662 17.1771 0.591752V0H12.5034V18.376C12.4959 20.518 10.7402 22.2526 8.5748 22.2526C7.93906 22.2526 7.33883 22.1031 6.80727 21.8376C7.52516 22.7704 8.6587 23.3726 9.93464 23.3726C12.0997 23.3726 13.8558 21.6381 13.8633 19.4959V1.11998H17.2482ZM9.76732 10.994V9.95158C9.3768 9.89872 8.98307 9.8722 8.58887 9.87239C3.84527 9.8723 0 13.6797 0 18.376C0 21.3204 1.51126 23.9152 3.80774 25.4416C2.29308 23.9086 1.35984 21.8102 1.35984 19.4958C1.35984 14.8593 5.10734 11.0893 9.76732 10.994Z" fill="#00F2EA"/>
<path d="M77.8062 23.03C81.2002 23.03 83.9516 20.3262 83.9516 16.9914C83.9516 13.6566 81.2002 10.9524 77.8062 10.9524H76.8804C80.2744 10.9524 83.0258 13.6565 83.0258 16.9914C83.0258 20.3262 80.2744 23.03 76.8804 23.03H77.8062Z" fill="#FF004F"/>
<path d="M76.7965 10.9524H75.8707C72.4769 10.9524 69.725 13.6565 69.725 16.9914C69.725 20.3262 72.4769 23.03 75.8707 23.03H76.7965C73.4021 23.03 70.6507 20.3262 70.6507 16.9914C70.6506 13.6566 73.4021 10.9524 76.7965 10.9524Z" fill="#00F2EA"/>
<path d="M30.076 8.22314V11.2841H33.6952V22.9475H37.3158V11.3667H40.2619L41.2721 8.22324L30.076 8.22314ZM59.7078 8.22314V11.2841H63.327V22.9475H66.9476V11.3667H69.8936L70.9036 8.22324L59.7078 8.22314ZM41.9461 9.96015C41.9461 9.00103 42.7363 8.22314 43.7125 8.22314C44.6896 8.22314 45.4806 9.00103 45.4806 9.96015C45.4806 10.9194 44.6901 11.6973 43.7125 11.6973C42.7363 11.6968 41.9461 10.9194 41.9461 9.96015ZM41.9461 12.9384H45.4806V22.9475H41.9461V12.9384ZM46.9961 8.22314V22.9474H50.532V19.1426L51.6264 18.1491L55.0774 23.03H58.8653L53.8982 15.9161L58.3599 11.6141H54.0669L50.532 15.0883V8.22314H46.9961ZM85.1295 8.22314V22.9474H88.6658V19.1426L89.7598 18.1491L93.2117 23.03H97L92.033 15.9161L96.4945 11.6141H92.2016L88.6658 15.0883V8.22314H85.1295Z" fill="white"/>
<path d="M76.8801 23.03C80.2739 23.03 83.0258 20.3262 83.0258 16.9914C83.0258 13.6566 80.2739 10.9524 76.8801 10.9524H76.7962C73.4022 10.9524 70.6508 13.6565 70.6508 16.9914C70.6508 20.3262 73.4022 23.03 76.7962 23.03H76.8801ZM73.8496 16.9914C73.8496 15.3692 75.1882 14.0552 76.8389 14.0552C78.4884 14.0552 79.8269 15.3692 79.8269 16.9914C79.8269 18.6135 78.4884 19.9283 76.8389 19.9283C75.1882 19.928 73.8496 18.6135 73.8496 16.9914Z" fill="white"/>
</g>
<defs>
<clipPath id="clip0_469_1523">
<rect width="97" height="28" fill="white"/>
</clipPath>
</defs>
</svg>
