<svg width="131" height="56" viewBox="0 0 131 56" fill="none" xmlns="http://www.w3.org/2000/svg">
<path d="M21.2998 34.5821C20.3257 34.3441 20.2561 35.005 19.7328 35.6168C17.7111 37.9784 15.3543 39.5188 12.3477 37.4935C9.41953 35.5204 9.38818 32.0513 11.6264 29.5067C13.604 27.2592 15.6982 25.1661 18.7773 27.1255C19.0194 27.2789 19.6123 27.8592 19.8543 27.7805C20.117 27.6959 20.3972 26.3612 20.3698 26.0661C20.2826 25.113 18.6049 24.3606 17.7993 24.1235C15.4817 23.4409 13.559 24.1196 11.8528 25.7179C8.44936 28.9087 5.77794 32.7497 8.84331 37.3647C11.992 42.1076 17.5249 41.9581 21.144 37.8437C21.5154 37.4207 22.6345 36.085 22.6531 35.5755C22.6678 35.1723 21.6467 34.6677 21.2988 34.5821H21.2998Z" fill="#0C6DA4"/>
<path d="M23.0458 15.4543C20.9438 16.1693 18.1077 19.4014 16.5721 21.105C16.4643 21.224 15.842 21.8929 15.9351 21.9824C16.7113 21.9922 17.4776 22.1132 18.2351 22.2725C18.5242 22.3335 19.0593 22.5912 19.317 22.5116C20.5488 21.0932 21.8052 18.9214 23.576 18.1454C27.6674 16.3533 31.7118 21.3981 29.9027 25.2371C29.5176 26.0535 28.7787 26.7036 28.1819 27.3626C28.1398 27.5249 28.517 28.001 28.6111 28.1908C28.7081 28.3856 29.0404 29.2413 29.156 29.263C29.3432 29.2984 30.8896 27.8928 31.0983 27.6528C35.9394 22.1014 29.9312 13.1113 23.0468 15.4543H23.0458Z" fill="#32925A"/>
<path d="M26.5586 22.487C26.3508 22.3739 25.6021 22.1388 25.5639 22.1014C25.3953 21.9372 25.5286 21.2605 25.4796 21.0047C25.3953 20.5651 24.2879 20.5759 23.9744 20.7736C23.6343 20.988 23.944 21.8329 23.8352 22.0503C23.748 22.2234 23.2982 22.2539 23.109 22.3355C20.956 23.2542 20.7042 26.0742 22.4231 27.582C23.3011 28.3532 25.1258 28.7928 25.6442 29.7489C26.0303 30.461 25.7462 31.3817 25.0318 31.7564C23.8999 32.3515 22.7817 31.8715 22.0232 30.9528C21.8792 30.7777 21.7302 30.3322 21.4784 30.3538C21.4068 30.3597 20.3857 31.1053 20.3239 31.181C20.127 31.421 20.3984 31.7367 20.5444 31.9649C20.9296 32.5698 21.5293 33.1393 22.2075 33.4C22.3986 33.4728 22.9993 33.5711 23.0453 33.6046C23.2404 33.7443 23.0326 35.0524 23.1718 35.3967C23.2727 35.6456 24.483 35.7292 24.679 35.4508C24.871 35.1783 24.6398 34.1052 24.774 33.7246C24.8436 33.5839 25.3179 33.5357 25.5159 33.4571C27.5601 32.6348 28.3519 30.0971 26.8908 28.362C26.0558 27.3696 25.0425 27.1542 24.0224 26.5168C21.6881 25.0581 24.1361 22.7182 25.9157 24.2113C26.2126 24.4601 26.3292 24.9391 26.7555 24.7808C26.879 24.7345 27.758 24.105 27.8021 24.0037C27.9883 23.5827 26.9123 22.6808 26.5576 22.486L26.5586 22.487Z" fill="#32925A"/>
<path d="M17.0567 28.6779C16.9273 28.7074 16.6706 28.9021 16.5686 28.9995C15.9865 29.5533 15.3153 30.467 14.7567 31.0955C14.0971 31.8382 12.8967 32.6388 13.7826 33.7591C14.7096 34.9316 15.7023 33.6893 16.3697 32.986C16.8029 32.5306 18.3659 30.8408 18.5482 30.3805C18.8383 29.6408 17.8015 28.5136 17.0567 28.6798V28.6779Z" fill="#0C6DA4"/>
<path d="M65.8968 24.2662V32.4792L65.5009 32.3356C63.8104 29.9425 62.2032 27.455 60.4491 25.1111C60.308 24.9222 59.7288 24.1187 59.5759 24.1187H57.861V36.4136H59.8699C59.8807 36.4136 60.0169 36.2769 60.0169 36.2661V28.3973C60.0169 28.353 60.1904 28.173 60.257 28.353L65.7949 36.2415C65.8419 36.2985 65.9918 36.4136 66.0438 36.4136H67.9057C67.9165 36.4136 68.0527 36.2769 68.0527 36.2661V24.1187H66.0438C66.033 24.1187 65.8968 24.2554 65.8968 24.2662Z" fill="white"/>
<path d="M76.1652 24.049C71.3339 24.5181 68.7869 30.1915 71.6377 34.1426C73.2429 36.3685 76.1818 37.2705 78.7837 36.4147C86.0639 34.0206 84.0579 23.2837 76.1652 24.049ZM77.5959 34.5341C71.5838 35.2413 71.2339 26.7253 76.3602 26.1135C81.9911 25.4407 82.6585 33.939 77.5959 34.5341Z" fill="white"/>
<path d="M109.359 24.1187C109.348 24.1187 109.212 24.2554 109.212 24.2662V32.3809C108.973 32.3573 108.734 31.9767 108.583 31.7819C106.846 29.5423 105.364 26.8954 103.567 24.7197C103.375 24.4876 103.197 24.1649 102.891 24.1187C102.492 24.0587 101.856 24.1187 101.421 24.1187C101.41 24.1187 101.274 24.2554 101.274 24.2662V36.2661C101.274 36.2769 101.41 36.4137 101.421 36.4137H103.283C103.294 36.4137 103.43 36.2769 103.43 36.2661V28.4957C103.43 28.4632 103.595 28.3098 103.674 28.3482C105.436 30.7177 107.008 33.2543 108.779 35.6179C108.876 35.7487 109.377 36.4137 109.457 36.4137H111.123C111.561 36.4137 111.272 35.2363 111.266 34.9914C111.24 33.932 111.361 32.8855 111.372 31.8449C111.401 29.2659 111.288 26.6947 111.27 24.1187H109.359Z" fill="white"/>
<path d="M119.014 29.5806L124.402 24.1187H121.805C121.399 24.1187 120.709 25.1396 120.437 25.4013C119.843 25.9727 119.164 26.496 118.568 27.0665C118.06 27.5534 117.402 28.4425 116.907 28.8419C116.773 28.9511 116.54 29.0229 116.366 29.0366V24.1187H114.308V36.4136H116.366V31.8399C116.366 31.7523 117.119 30.8238 117.345 30.9487L121.805 36.4136H124.5L119.014 29.5806Z" fill="white"/>
<path d="M50.0696 24.1187H42.4747L42.5237 36.4136H44.4837C44.4945 36.4136 44.6307 36.2769 44.6307 36.2661V31.6432C44.6307 31.6323 44.7669 31.4956 44.7777 31.4956H49.3836C49.6727 31.4956 49.4894 29.8078 49.4326 29.5284H44.7777C44.7669 29.5284 44.6307 29.3917 44.6307 29.3809V26.3317C44.6307 26.3209 44.7669 26.1842 44.7777 26.1842H49.9716C50.0039 26.1842 50.1205 26.0544 50.2166 26.0858V24.2662C50.2166 24.2554 50.0803 24.1187 50.0696 24.1187Z" fill="white"/>
<path d="M92.4099 34.3522C91.0418 34.3817 89.6414 34.3463 88.3008 34.3384C88.1989 34.3374 87.7912 34.2558 87.7403 34.1879C87.5452 33.1699 88.0852 24.2615 87.604 24.1188C87.1787 23.9929 86.1909 24.2113 85.6931 24.1188C85.6294 27.8368 85.7774 31.5676 85.697 35.2866C85.6931 35.4931 85.4354 36.4138 85.8401 36.4138H93.3859C93.3967 36.4138 93.5329 36.2771 93.5329 36.2662V34.3482C93.1213 34.1397 92.796 34.3443 92.4099 34.3522Z" fill="white"/>
<path d="M96.1295 24.1187V36.4136H97.9915C98.0268 36.4136 98.1502 36.3133 98.2208 36.2985L98.2433 36.1707L97.9915 24.1187H96.1295Z" fill="white"/>
<path d="M54.8709 24.1187H53.2049L53.1069 36.4136H54.8709C54.9032 36.4136 55.0198 36.2838 55.1159 36.3152V24.217C55.0198 24.2485 54.9032 24.1187 54.8709 24.1187Z" fill="white"/>
</svg>
