<svg width="122" height="32" viewBox="0 0 122 32" fill="none" xmlns="http://www.w3.org/2000/svg">
<path d="M13.6867 14.9509H6.08986V8.37598H3.89294V23.622H6.08986V16.7391H13.6867V23.622H15.8814V8.37598H13.6867V14.9509Z" fill="white"/>
<path d="M26.7413 11.7723C25.8535 11.2269 24.8002 10.9531 23.6415 10.9531C22.4829 10.9531 21.4618 11.2248 20.5762 11.7723C19.6905 12.3177 18.9983 13.0749 18.4996 14.0395C18.0009 15.0063 17.7494 16.11 17.7494 17.3933C17.7494 18.6767 17.9987 19.7996 18.4996 20.7642C18.9983 21.731 19.6905 22.4839 20.5762 23.0229C21.4639 23.564 22.4829 23.8335 23.6415 23.8335C24.8238 23.8335 25.8556 23.5619 26.7413 23.0229C27.6269 22.4839 28.3148 21.731 28.8092 20.7642C29.3036 19.7953 29.5508 18.6617 29.5508 17.3933C29.5508 16.125 29.3036 15.0063 28.8092 14.0395C28.317 13.0749 27.6269 12.3177 26.7413 11.7723ZM26.9863 19.8124C26.6746 20.4883 26.2318 21.0059 25.66 21.3695C25.0882 21.731 24.4154 21.9128 23.6437 21.9128C22.8806 21.9128 22.2142 21.731 21.6424 21.3695C21.0663 21.0081 20.6213 20.4883 20.3053 19.8124C19.9872 19.1365 19.8281 18.3323 19.8281 17.3933C19.8281 16.4565 19.9872 15.6501 20.3053 14.9742C20.6234 14.2984 21.0706 13.7807 21.6424 13.4171C22.2142 13.0557 22.8741 12.8739 23.6437 12.8739C24.4132 12.8739 25.0882 13.0557 25.66 13.4171C26.2318 13.7786 26.6746 14.2984 26.9863 14.9742C27.298 15.6501 27.455 16.4544 27.455 17.3933C27.455 18.3302 27.298 19.1365 26.9863 19.8124Z" fill="white"/>
<path d="M39.6155 20.1719L33.5729 11.1714H31.4211V23.6219H33.5729V14.6385L39.6155 23.6219H41.7673V11.1714H39.6155V20.1719Z" fill="white"/>
<path d="M65.9205 16.0288C65.3186 15.6738 64.6479 15.3722 63.902 15.1262C63.2851 14.9252 62.724 14.7412 62.2102 14.5722C61.6986 14.4075 61.2558 14.2236 60.8839 14.0183C60.512 13.8129 60.2218 13.5712 60.0176 13.2889C59.8113 13.0066 59.7102 12.6344 59.7102 12.1681C59.7102 11.7018 59.8241 11.304 60.052 10.9682C60.2777 10.6345 60.5851 10.38 60.9742 10.2068C61.3611 10.0335 61.8126 9.95223 62.3242 9.96934C62.9261 9.96934 63.4248 10.0891 63.8289 10.3287C64.2287 10.5661 64.5361 10.8741 64.7489 11.2527C64.9596 11.6313 65.0671 12.0163 65.0671 12.4077H67.393C67.3779 11.5543 67.1587 10.8056 66.7352 10.1661C66.3096 9.52873 65.7292 9.02609 64.9897 8.66462C64.2502 8.30314 63.3624 8.12134 62.3672 8.12134C61.3719 8.12134 60.5013 8.301 59.7554 8.65392C59.0094 9.01112 58.4355 9.50306 58.0335 10.134C57.6294 10.765 57.4295 11.5093 57.4295 12.367C57.4295 13.368 57.7261 14.1787 58.3194 14.7968C58.9106 15.4128 59.807 15.9262 61.0086 16.3326C61.6062 16.5379 62.1823 16.7261 62.7305 16.8994C63.2786 17.0726 63.7666 17.2715 64.19 17.4983C64.6135 17.7228 64.9467 18.0116 65.1896 18.3581C65.4325 18.7046 65.5508 19.1495 65.5508 19.6863C65.5508 20.1505 65.4347 20.5611 65.2004 20.9162C64.9661 21.2734 64.6243 21.5536 64.1793 21.7547C63.7322 21.96 63.2012 22.0605 62.5864 22.0605C61.8684 22.0605 61.2644 21.9258 60.7764 21.6563C60.2863 21.3868 59.9123 21.0253 59.6565 20.5654C59.3985 20.1077 59.2717 19.6029 59.2717 19.0511H56.9458C56.9587 20.0243 57.2016 20.8734 57.6702 21.5985C58.1388 22.3257 58.7966 22.8883 59.6457 23.2861C60.4948 23.6839 61.4751 23.885 62.5864 23.885L62.5886 23.8829C63.7601 23.8829 64.7339 23.6754 65.5078 23.2604C66.2838 22.8455 66.8685 22.3129 67.264 21.6605C67.6595 21.0082 67.8573 20.3045 67.8573 19.5473C67.8573 18.6768 67.6853 17.9624 67.3414 17.4041C66.9932 16.8416 66.5202 16.3839 65.9205 16.0288Z" fill="white"/>
<path d="M77.651 16.3988H71.8621V11.1714H69.7081V23.6219H71.8621V18.142H77.651V23.6219H79.8028V11.1714H77.651V16.3988Z" fill="white"/>
<path d="M85.7464 11.1714L81.157 23.6219H81.1591H83.399L84.4395 20.6873H89.4223L90.4627 23.6219H92.7392L88.1476 11.1714H85.7464ZM85.0392 18.9955L86.9309 13.6589L88.8226 18.9955H85.0392Z" fill="white"/>
<path d="M102.288 11.1714V20.1719L96.2453 11.1714H94.0935V23.6219H96.2453V14.6385L102.288 23.6219H104.44V11.1714H102.288Z" fill="white"/>
<path d="M49.8864 18.6767H52.9453C52.8164 19.6072 52.4939 20.3729 51.9694 20.9718C51.4019 21.6241 50.5593 21.9514 49.4436 21.9514C48.6912 21.9514 48.0356 21.776 47.4788 21.4252C46.9199 21.0766 46.4879 20.5632 46.1805 19.8873C45.8731 19.2115 45.7204 18.4072 45.7204 17.4683C45.7204 16.5293 45.8709 15.7208 46.174 15.0385C46.475 14.3583 46.9178 13.8364 47.4982 13.4749C48.0786 13.1135 48.7858 12.9317 49.5833 12.9317C50.3787 12.9317 51.0279 13.1028 51.5223 13.4471C52.0167 13.7894 52.3499 14.2706 52.5219 14.8866H54.8284C54.5662 13.6546 53.9729 12.69 53.0507 11.997C52.1285 11.304 50.9741 10.9553 49.5833 10.9553C48.3623 10.9553 47.3069 11.2291 46.4148 11.7809C45.5184 12.3328 44.8348 13.0964 44.3554 14.076C43.8761 15.0556 43.6375 16.1657 43.6375 17.4469C43.6375 18.7281 43.8718 19.8446 44.3382 20.8007C44.8068 21.7567 45.4603 22.4989 46.303 23.0337C47.1456 23.5662 48.1323 23.8336 49.2587 23.8336L49.2544 23.8379C49.8821 23.8379 50.4238 23.763 50.8774 23.6154C51.3331 23.4679 51.733 23.2475 52.0812 22.9567C52.4273 22.6658 52.7411 22.3193 53.0055 21.915V23.6219H55.0455V16.8116H49.8886V18.6767H49.8864Z" fill="white"/>
<path d="M115.342 3.8732L108.443 10.738L111.203 13.4846L118.103 6.61974L115.342 3.8732Z" fill="#00A23A"/>
<path d="M115.345 11.1967L108.446 18.0615L111.206 20.8081L118.105 13.9432L115.345 11.1967Z" fill="#00A23A"/>
<path d="M115.344 18.516L108.445 25.3809L111.205 28.1274L118.105 21.2626L115.344 18.516Z" fill="#00A23A"/>
</svg>
