<svg width="121" height="40" viewBox="0 0 121 40" fill="none" xmlns="http://www.w3.org/2000/svg">
<path d="M66.424 10.8586V9.09833C66.4259 8.83039 66.6235 8.6512 66.8625 8.6512H74.5851C74.8338 8.6512 75.0311 8.83548 75.0311 9.09675V10.6091C75.0281 10.8587 74.8192 11.1908 74.4494 11.7165L70.4459 17.5546C71.9316 17.5191 73.5035 17.7459 74.8535 18.5221C75.1576 18.6976 75.2403 18.9536 75.2634 19.208V21.0905C75.2634 21.3507 74.9854 21.6513 74.6961 21.4948C72.3166 20.2188 69.1619 20.0801 66.5338 21.51C66.2645 21.6571 65.9843 21.3626 65.9843 21.1024V19.3116C65.9843 19.0262 65.9889 18.5367 66.2711 18.1012L70.9053 11.3038H66.8711C66.6246 11.3037 66.4269 11.124 66.424 10.8586ZM38.2523 21.8654H35.9024C35.6788 21.8514 35.4987 21.6795 35.4821 21.46L35.4842 9.1284C35.4842 8.88253 35.6855 8.6843 35.9371 8.6843L38.1252 8.68345C38.3544 8.6963 38.5377 8.87331 38.5528 9.09833V10.7089H38.5958C39.1648 9.15168 40.241 8.42387 41.6873 8.42387C43.1579 8.42387 44.0765 9.15168 44.7364 10.7089C45.3071 9.15168 46.6 8.42387 47.9832 8.42387C48.9707 8.42387 50.0444 8.83985 50.7034 9.77412C51.45 10.8093 51.2957 12.3168 51.2957 13.6373L51.2948 21.4208C51.2948 21.6681 51.0899 21.8653 50.8406 21.8653H48.4944C48.2575 21.8513 48.0725 21.6596 48.0725 21.4233L48.0715 14.8841C48.0715 14.3657 48.1145 13.0698 48.0046 12.5745C47.8279 11.7446 47.3019 11.5111 46.622 11.5111C46.0542 11.5111 45.4607 11.9006 45.2186 12.5235C44.9786 13.1468 44.9994 14.1824 44.9994 14.8841V21.4206C44.9994 21.6679 44.7964 21.865 44.5461 21.865H42.1994C41.9631 21.8511 41.7769 21.6594 41.7769 21.4231L41.774 14.8839C41.774 13.5077 41.9945 11.4851 40.3282 11.4851C38.6378 11.4851 38.7041 13.459 38.7041 14.8839L38.7032 21.4203C38.7029 21.6682 38.5039 21.8654 38.2523 21.8654ZM81.6818 8.424C85.166 8.424 87.0562 11.4857 87.0562 15.3776C87.0562 19.1378 84.9684 22.1257 81.6818 22.1257C78.2588 22.1257 76.393 19.0584 76.393 15.2463C76.393 11.4084 78.2799 8.424 81.6818 8.424ZM81.7041 10.9397C79.9689 10.9397 79.8588 13.3557 79.8588 14.8559C79.8588 16.3616 79.8368 19.5777 81.6816 19.5777C83.4983 19.5777 83.5846 16.984 83.5846 15.4054C83.5846 14.3661 83.5419 13.1212 83.2339 12.1344C82.9715 11.2768 82.4449 10.9397 81.7041 10.9397ZM91.5769 21.8654H89.234C88.9973 21.8514 88.8123 21.6598 88.8123 21.4235L88.8074 9.08742C88.828 8.86119 89.0225 8.68418 89.2597 8.68418L91.4417 8.68333C91.6481 8.69448 91.8168 8.83791 91.8594 9.02971V10.9145H91.9037C92.5614 9.22951 93.4788 8.42375 95.1022 8.42375C96.1565 8.42375 97.1895 8.81366 97.8474 9.87875C98.458 10.8615 98.458 12.5236 98.458 13.7165V21.4758C98.4309 21.6967 98.2381 21.8653 98.0123 21.8653H95.6529C95.4386 21.8523 95.2607 21.6863 95.2336 21.4758V14.7808C95.2336 13.4339 95.3895 11.459 93.7634 11.459C93.1921 11.459 92.6713 11.8494 92.4066 12.4466C92.0781 13.1995 92.0351 13.9496 92.0351 14.781V21.4209C92.0292 21.6682 91.827 21.8654 91.5769 21.8654ZM33.6473 19.6028C33.2198 18.9943 32.7626 18.5032 32.7626 17.3773V13.6343C32.7626 12.0506 32.8735 10.5952 31.7288 9.50303C30.8265 8.61762 29.3324 8.30566 28.1882 8.30566C25.9518 8.30566 23.4579 9.15883 22.934 11.9834C22.8782 12.2855 23.0922 12.4423 23.2851 12.4866L25.5626 12.7389C25.7743 12.7278 25.9298 12.5121 25.9706 12.2962C26.1666 11.322 26.964 10.8529 27.8602 10.8529C28.342 10.8529 28.8916 11.036 29.1788 11.4779C29.5084 11.9707 29.4642 12.6485 29.4642 13.2206V13.5299C28.1004 13.6867 26.3195 13.7902 25.0464 14.3629C23.5734 15.0145 22.5414 16.3383 22.5414 18.2904C22.5414 20.7884 24.079 22.0366 26.0558 22.0366C27.73 22.0366 28.6405 21.6328 29.9317 20.2894C30.3587 20.9208 30.4981 21.2255 31.2781 21.8914C31.4535 21.9864 31.6774 21.9789 31.8336 21.8348L31.8388 21.8406C32.3084 21.4128 33.1625 20.655 33.6399 20.2444C33.8305 20.0827 33.7969 19.8205 33.6473 19.6028ZM29.0239 18.5236C28.6495 19.1964 28.0574 19.6131 27.3983 19.6131C26.4964 19.6131 25.9691 18.9105 25.9691 17.8731C25.9691 15.8282 27.7653 15.4572 29.4645 15.4572V15.9762C29.4645 16.9096 29.486 17.6907 29.0239 18.5236ZM64.4517 19.6028C64.0209 18.9943 63.5645 18.5032 63.5645 17.3773V13.6343C63.5645 12.0506 63.6745 10.5952 62.5297 9.50303C61.6315 8.61762 60.1352 8.30566 58.9932 8.30566C56.7573 8.30566 54.262 9.15883 53.7386 11.9834C53.6829 12.2855 53.8968 12.4423 54.0893 12.4866L56.3654 12.7389C56.5805 12.7278 56.7348 12.5121 56.7749 12.2962C56.972 11.322 57.766 10.8529 58.6635 10.8529C59.1465 10.8529 59.6973 11.036 59.9816 11.4779C60.3104 11.9707 60.2665 12.6485 60.2665 13.2206V13.5299C58.9045 13.6867 57.1246 13.7902 55.8507 14.3629C54.3777 15.0145 53.3442 16.3383 53.3442 18.2904C53.3442 20.7884 54.8809 22.0366 56.8604 22.0366C58.5302 22.0366 59.4456 21.6328 60.7354 20.2894C61.1614 20.9208 61.3019 21.2255 62.0817 21.8914C62.2585 21.9864 62.4801 21.9789 62.6355 21.8348L62.6406 21.8406C63.1113 21.4128 63.9651 20.655 64.445 20.2444C64.6362 20.0827 64.6035 19.8205 64.4517 19.6028ZM59.8266 18.5236C59.4552 19.1964 58.8608 19.6131 58.2011 19.6131C57.2991 19.6131 56.7741 18.9105 56.7741 17.8731C56.7741 15.8282 58.5679 15.4572 60.2668 15.4572V15.9762C60.2668 16.9096 60.2895 17.6907 59.8266 18.5236Z" fill="white"/>
<path d="M69.5619 26.6572C65.0793 29.9278 58.8353 31.6941 53.3266 31.6941C45.6102 31.6941 38.7324 28.839 33.4332 23.9477C32.9432 23.4952 33.2596 22.9646 33.869 23.3226C39.6337 26.7303 46.5424 28.724 53.7913 28.724C58.6798 28.724 63.8722 27.7289 68.8065 25.5832C69.8853 25.1132 70.3325 26.0943 69.5619 26.6572Z" fill="#F9A51B"/>
<path d="M71.4774 24.4498C70.9104 23.7095 67.7447 24.0998 66.3225 24.2715C65.8944 24.3252 65.8247 23.9403 66.2149 23.662C68.7399 21.8579 72.879 22.3831 73.3576 22.9786C73.8416 23.5912 73.2297 27.8362 70.8642 29.8625C70.4994 30.1762 70.157 30.006 70.3176 29.5954C70.8485 28.2341 72.0415 25.1875 71.4774 24.4498Z" fill="#F9A51B"/>
<path d="M101.131 19.8519C101.396 19.8519 101.621 19.947 101.806 20.1374C101.992 20.326 102.085 20.5554 102.085 20.824C102.085 21.0942 101.992 21.324 101.806 21.5138C101.621 21.7043 101.397 21.7997 101.131 21.7997C100.866 21.7997 100.641 21.7043 100.456 21.5138C100.272 21.324 100.179 21.094 100.179 20.824C100.179 20.5554 100.272 20.326 100.458 20.1374C100.644 19.947 100.869 19.8519 101.131 19.8519ZM102.235 20.8217C102.235 20.5108 102.126 20.2459 101.912 20.0272C101.696 19.8082 101.435 19.6987 101.13 19.6987C100.826 19.6987 100.568 19.8082 100.352 20.0272C100.138 20.247 100.029 20.5115 100.029 20.8217C100.029 21.1343 100.136 21.4009 100.35 21.6206C100.564 21.8421 100.825 21.9528 101.13 21.9528C101.435 21.9528 101.696 21.8421 101.911 21.6206C102.126 21.4006 102.235 21.1341 102.235 20.8217ZM101.423 20.5783C101.423 20.6712 101.381 20.7344 101.297 20.7683C101.25 20.787 101.182 20.7952 101.091 20.7952H100.895V20.3543H101.079C101.2 20.3543 101.287 20.3683 101.342 20.3989C101.396 20.4297 101.423 20.4886 101.423 20.5783ZM100.687 20.201V21.4343H100.895V20.9482H101.066C101.181 20.9482 101.261 20.9619 101.307 20.9875C101.385 21.0346 101.423 21.1277 101.423 21.2707V21.3684L101.427 21.4079L101.43 21.4218C101.432 21.4253 101.433 21.4302 101.434 21.4343H101.632L101.624 21.4185C101.618 21.4079 101.615 21.3872 101.613 21.3547C101.61 21.3219 101.61 21.2916 101.61 21.2627V21.1731C101.61 21.1108 101.587 21.0468 101.545 20.981C101.5 20.916 101.432 20.8757 101.337 20.8608C101.412 20.8487 101.47 20.8291 101.512 20.8012C101.592 20.7483 101.632 20.6673 101.632 20.5576C101.632 20.4029 101.568 20.2989 101.443 20.2453C101.373 20.2161 101.262 20.2013 101.111 20.2013L100.687 20.201Z" fill="white"/>
</svg>
