<svg preserveAspectRatio="none" width="100%" height="100%" overflow="visible" style="display: block;" viewBox="0 0 24 16" fill="none" xmlns="http://www.w3.org/2000/svg">
<g id="Group">
<path id="Vector" d="M23.0769 0H0.923077C0.678262 0 0.443473 0.0842856 0.270363 0.234315C0.0972524 0.384344 0 0.587827 0 0.8V14.4C0 14.8243 0.194505 15.2313 0.540726 15.5314C0.886947 15.8314 1.35652 16 1.84615 16H22.1538C22.6435 16 23.1131 15.8314 23.4593 15.5314C23.8055 15.2313 24 14.8243 24 14.4V0.8C24 0.587827 23.9027 0.384344 23.7296 0.234315C23.5565 0.0842856 23.3217 0 23.0769 0ZM12 8.515L3.29654 1.6H20.7035L12 8.515ZM8.62038 8L1.84615 13.381V2.619L8.62038 8ZM9.98654 9.085L11.3712 10.19C11.5415 10.3255 11.7642 10.4007 11.9954 10.4007C12.2266 10.4007 12.4493 10.3255 12.6196 10.19L14.0042 9.085L20.6965 14.4H3.29654L9.98654 9.085ZM15.3796 8L22.1538 2.618V13.382L15.3796 8Z" fill="var(--fill-0, #F7F7F7)"/>
</g>
</svg>
