<svg preserveAspectRatio="none" width="100%" height="100%" overflow="visible" style="display: block;" viewBox="0 0 284 40" fill="none" xmlns="http://www.w3.org/2000/svg">
<g id="&#229;&#155;&#190;&#229;&#177;&#130; 1">
<path id="Vector" d="M29.772 31.3295L28.4567 30.0038H9.93659V11.3371L8.62129 10.0114L0 1.3219V40H38.3819L29.772 31.3295ZM1.36066 0L9.92526 8.63238L11.2821 10H29.772V28.6324L31.1326 30.0038L39.6859 38.6362V0H1.36066Z" fill="var(--fill-0, #F7F7F7)"/>
<path id="Vector_2" d="M68.6314 29.7142C67.339 29.7312 66.0604 29.4442 64.8972 28.8761C63.79 28.3286 62.8009 27.5661 61.9869 26.6323C61.1648 25.6992 60.5238 24.6189 60.0971 23.4475C59.6627 22.2739 59.44 21.0315 59.4394 19.779C59.436 18.4962 59.6732 17.2243 60.1386 16.0304C60.5861 14.8641 61.2391 13.789 62.0662 12.8571C62.892 11.9353 63.8933 11.1904 65.0106 10.6666C66.1646 10.1173 67.4271 9.83857 68.7032 9.85134C69.9991 9.83457 71.2799 10.1325 72.4375 10.7199C73.5383 11.2854 74.5191 12.0618 75.3251 13.0056C76.9406 14.9008 77.8389 17.3109 77.8612 19.8094C77.855 22.3618 76.9127 24.8218 75.2155 26.7161C74.3949 27.6275 73.4048 28.3679 72.3014 28.8951C71.155 29.4436 69.9004 29.7236 68.6314 29.7142ZM62.584 19.7866C62.5834 20.6928 62.7276 21.5932 63.0111 22.4532C63.2744 23.2839 63.6869 24.0587 64.2282 24.739C64.7507 25.3977 65.4033 25.9399 66.1444 26.3313C66.9231 26.7325 67.7873 26.9352 68.6617 26.9218C69.5531 26.9315 70.4323 26.7126 71.2167 26.2856C71.964 25.8835 72.6173 25.325 73.1329 24.6475C73.6577 23.9606 74.0605 23.1873 74.3235 22.3618C74.5953 21.5243 74.7343 20.6487 74.7355 19.7675C74.7384 18.8527 74.5902 17.9438 74.2971 17.078C74.0234 16.2569 73.6061 15.4918 73.0649 14.819C72.5384 14.1691 71.8865 13.6339 71.1486 13.2456C70.3639 12.8528 69.4988 12.6506 68.6226 12.6552C67.7464 12.6599 66.8835 12.8712 66.1029 13.2723C65.3606 13.6721 64.7083 14.222 64.1866 14.8875C63.6552 15.5702 63.2518 16.3447 62.996 17.1732C62.7251 18.0149 62.5861 18.8941 62.584 19.779V19.7866Z" fill="var(--fill-0, #F7F7F7)"/>
<path id="Vector_3" d="M92.49 14.5942C92.2522 14.3469 91.9857 14.1295 91.6962 13.9466C91.3096 13.6962 90.9024 13.4795 90.4792 13.299C89.9805 13.0853 89.4629 12.9195 88.9333 12.8037C88.3402 12.6713 87.7342 12.6061 87.1267 12.6094C85.9248 12.6094 85.0101 12.8494 84.3902 13.3256C84.0853 13.5609 83.8415 13.8671 83.6795 14.218C83.5176 14.569 83.4424 14.9542 83.4605 15.3409C83.4416 15.7526 83.547 16.1603 83.7628 16.5104C83.9937 16.8439 84.3027 17.1148 84.6624 17.299C85.1421 17.5576 85.6493 17.7608 86.1742 17.9047C86.7739 18.0799 87.4757 18.2691 88.2795 18.4723C89.2282 18.7275 90.1012 18.9942 90.8912 19.2723C91.6144 19.5112 92.2974 19.8593 92.917 20.3047C93.4613 20.7047 93.9063 21.2262 94.2172 21.8285C94.5489 22.5347 94.7083 23.3105 94.6821 24.0913C94.709 24.9954 94.5129 25.892 94.1114 26.7009C93.7442 27.4023 93.2138 28.0036 92.5655 28.4532C91.8762 28.9215 91.1076 29.2585 90.2978 29.4475C89.4014 29.6623 88.4827 29.7684 87.5613 29.7637C86.1027 29.7667 84.6526 29.5392 83.2639 29.0894C81.9114 28.6553 80.644 27.9876 79.5183 27.1161L80.9395 24.4494C81.2507 24.7484 81.59 25.0163 81.9524 25.2494C82.4407 25.5693 82.9583 25.841 83.4983 26.0609C84.132 26.3244 84.7854 26.5371 85.4523 26.6971C86.1788 26.8739 86.9236 26.9621 87.671 26.9599C88.6211 27.0142 89.5665 26.7892 90.3923 26.3123C90.7067 26.1096 90.9622 25.8265 91.1328 25.4919C91.3034 25.1574 91.3831 24.7832 91.3636 24.4075C91.3807 23.9658 91.2561 23.5304 91.0083 23.1656C90.7313 22.8008 90.3759 22.5039 89.969 22.2971C89.4361 22.0189 88.8763 21.7968 88.2984 21.6342C87.6458 21.4386 86.8987 21.2317 86.0571 21.0132C85.198 20.7928 84.3524 20.5219 83.5247 20.2018C82.8752 19.9578 82.2699 19.6077 81.7332 19.1656C81.2711 18.7803 80.9015 18.2945 80.6522 17.7447C80.3877 17.123 80.2588 16.4514 80.2743 15.7752C80.2583 14.8947 80.4405 14.0221 80.8072 13.2228C81.1543 12.4943 81.6593 11.8538 82.285 11.3485C82.9485 10.8266 83.7057 10.4386 84.515 10.2056C85.413 9.94553 86.3435 9.81722 87.2779 9.82468C88.5332 9.80831 89.781 10.0239 90.9592 10.4609C91.9971 10.8475 92.9776 11.3756 93.8733 12.0304L92.49 14.5942Z" fill="var(--fill-0, #F7F7F7)"/>
<path id="Vector_4" d="M114.106 29.5696V16.6172L108.334 27.6648H106.637L100.836 16.6172V29.5696H97.7703V9.98861H101.055L107.48 23.4819L113.905 9.98861H117.19V29.5696H114.106Z" fill="var(--fill-0, #F7F7F7)"/>
<path id="Vector_5" d="M129.565 29.7141C128.273 29.7311 126.994 29.4441 125.831 28.876C124.729 28.3295 123.744 27.5697 122.932 26.6398C122.11 25.7067 121.469 24.6265 121.042 23.4551C120.608 22.2815 120.385 21.0391 120.385 19.7865C120.381 18.5037 120.619 17.2318 121.084 16.0379C121.531 14.8717 122.185 13.7966 123.012 12.8646C123.837 11.9401 124.838 11.1925 125.956 10.6665C127.108 10.1183 128.367 9.83964 129.641 9.85126C130.937 9.83449 132.218 10.1324 133.375 10.7198C134.476 11.2853 135.457 12.0617 136.263 13.0055C137.874 14.9024 138.769 17.3123 138.788 19.8093C138.788 22.3605 137.852 24.8217 136.161 26.7198C135.34 27.6313 134.35 28.3716 133.247 28.8989C132.096 29.4472 130.838 29.7259 129.565 29.7141ZM123.518 19.7865C123.517 20.6927 123.662 21.5932 123.945 22.4532C124.208 23.2838 124.621 24.0586 125.162 24.7389C125.684 25.3958 126.335 25.9367 127.075 26.3274C127.855 26.7282 128.72 26.9309 129.596 26.9179C130.487 26.9288 131.366 26.7112 132.151 26.2855C132.898 25.8834 133.551 25.3249 134.067 24.6474C134.592 23.9605 134.995 23.1872 135.258 22.3617C135.535 21.5289 135.68 20.6573 135.688 19.7789C135.691 18.8641 135.543 17.9551 135.25 17.0894C134.976 16.2683 134.559 15.5032 134.018 14.8303C133.491 14.1805 132.839 13.6452 132.102 13.257C131.317 12.8641 130.452 12.6619 129.576 12.6666C128.699 12.6712 127.836 12.8825 127.056 13.2836C126.301 13.6795 125.637 14.2296 125.106 14.8989C124.574 15.5815 124.171 16.3561 123.915 17.1846C123.65 18.0234 123.516 18.8986 123.518 19.7789V19.7865Z" fill="var(--fill-0, #F7F7F7)"/>
<path id="Vector_6" d="M153.426 14.5945C153.188 14.3472 152.922 14.1298 152.632 13.9469C152.246 13.6965 151.839 13.4798 151.415 13.2993C150.917 13.0856 150.399 12.9198 149.869 12.804C149.276 12.6716 148.67 12.6064 148.063 12.6097C146.861 12.6097 145.946 12.8497 145.326 13.3259C145.019 13.5595 144.772 13.865 144.607 14.2161C144.443 14.5671 144.365 14.9532 144.381 15.3412C144.363 15.7529 144.468 16.1606 144.684 16.5107C144.916 16.8447 145.226 17.1156 145.587 17.2993C146.068 17.5527 146.575 17.7507 147.099 17.8897C147.701 18.065 148.403 18.2542 149.204 18.4574C150.154 18.7113 151.025 18.978 151.816 19.2574C152.539 19.4963 153.222 19.8444 153.842 20.2897C154.386 20.6898 154.831 21.2113 155.142 21.8135C155.474 22.5197 155.633 23.2956 155.607 24.0764C155.634 24.9833 155.436 25.8827 155.032 26.6935C154.665 27.395 154.135 27.9963 153.487 28.4459C152.797 28.9142 152.029 29.2512 151.219 29.4402C150.322 29.655 149.404 29.7611 148.482 29.7564C147.024 29.7594 145.574 29.5319 144.185 29.0821C142.832 28.6472 141.563 27.9795 140.436 27.1088L141.86 24.4421C142.172 24.7411 142.511 25.009 142.873 25.2421C143.362 25.562 143.879 25.8337 144.419 26.0535C145.053 26.3171 145.706 26.5298 146.373 26.6897C147.1 26.8666 147.845 26.9548 148.592 26.9526C149.542 27.0069 150.488 26.7819 151.313 26.305C151.628 26.1023 151.883 25.8192 152.054 25.4846C152.224 25.15 152.304 24.7759 152.285 24.4002C152.296 23.974 152.176 23.5546 151.941 23.2002C151.664 22.8354 151.308 22.5385 150.901 22.3316C150.368 22.0535 149.809 21.8314 149.231 21.6688C148.576 21.4732 147.828 21.2662 146.989 21.0478C146.13 20.8274 145.285 20.5564 144.457 20.2364C143.808 19.9924 143.202 19.6423 142.666 19.2002C142.203 18.8149 141.834 18.3291 141.585 17.7793C141.32 17.1576 141.191 16.486 141.207 15.8097C141.191 14.9293 141.373 14.0567 141.74 13.2574C142.094 12.5247 142.609 11.8835 143.248 11.3831C143.911 10.8612 144.668 10.4731 145.478 10.2402C146.376 9.98011 147.306 9.85181 148.24 9.85926C149.496 9.8429 150.744 10.0585 151.922 10.4955C152.96 10.8821 153.94 11.4102 154.836 12.065L153.426 14.5945Z" fill="var(--fill-0, #F7F7F7)"/>
<path id="Vector_7" d="M158.707 29.5696V10.0191H161.769V29.5696H158.707Z" fill="var(--fill-0, #F7F7F7)"/>
<path id="Vector_8" d="M177.669 14.5945C177.431 14.3472 177.164 14.1298 176.875 13.9469C176.488 13.6965 176.081 13.4798 175.658 13.2993C175.159 13.0856 174.641 12.9198 174.112 12.804C173.519 12.6716 172.913 12.6064 172.305 12.6097C171.101 12.6097 170.189 12.8485 169.569 13.3259C169.264 13.5612 169.02 13.8674 168.858 14.2183C168.696 14.5693 168.621 14.9545 168.639 15.3412C168.62 15.7529 168.726 16.1606 168.941 16.5107C169.173 16.8437 169.482 17.1144 169.841 17.2993C170.322 17.5517 170.829 17.7497 171.353 17.8897C171.952 18.065 172.654 18.2542 173.458 18.4574C174.405 18.7113 175.276 18.978 176.07 19.2574C176.793 19.4963 177.476 19.8444 178.096 20.2897C178.64 20.6898 179.085 21.2113 179.396 21.8135C179.727 22.5197 179.887 23.2956 179.861 24.0764C179.888 24.9833 179.69 25.8827 179.286 26.6935C178.919 27.395 178.389 27.9963 177.74 28.4459C177.051 28.9142 176.282 29.2512 175.473 29.4402C174.576 29.655 173.658 29.7611 172.736 29.7564C171.277 29.7594 169.827 29.5319 168.439 29.0821C167.085 28.6472 165.817 27.9795 164.689 27.1088L166.114 24.4421C166.426 24.7411 166.765 25.009 167.127 25.2421C167.615 25.562 168.133 25.8337 168.673 26.0535C169.307 26.3171 169.96 26.5298 170.627 26.6897C171.354 26.8666 172.098 26.9548 172.846 26.9526C173.796 27.0069 174.741 26.7819 175.567 26.305C175.881 26.1023 176.137 25.8192 176.308 25.4846C176.478 25.15 176.558 24.7759 176.538 24.4002C176.555 23.9585 176.431 23.5231 176.183 23.1583C175.906 22.7935 175.551 22.4966 175.144 22.2897C174.613 22.0267 174.057 21.8187 173.484 21.6688C172.829 21.4732 172.082 21.2662 171.243 21.0478C170.384 20.8274 169.539 20.5564 168.711 20.2364C168.061 19.9924 167.456 19.6423 166.919 19.2002C166.457 18.8149 166.088 18.3291 165.838 17.7793C165.574 17.1576 165.445 16.486 165.46 15.8097C165.444 14.9293 165.627 14.0567 165.993 13.2574C166.339 12.5278 166.844 11.8869 167.471 11.3831C168.135 10.8612 168.892 10.4731 169.701 10.2402C170.599 9.98011 171.53 9.85181 172.464 9.85926C173.719 9.8429 174.967 10.0585 176.145 10.4955C177.183 10.8821 178.164 11.4102 179.059 12.065L177.669 14.5945Z" fill="var(--fill-0, #F7F7F7)"/>
<path id="Vector_9" d="M198.927 29.7373C197.664 29.7495 196.415 29.4555 195.288 28.8802C194.181 28.3167 193.195 27.5401 192.385 26.5945C191.57 25.6503 190.93 24.5665 190.495 23.3945C190.054 22.237 189.827 21.0077 189.826 19.7678C189.826 18.5058 190.051 17.2541 190.491 16.0726C190.912 14.9085 191.543 13.8328 192.351 12.8992C193.142 11.9776 194.11 11.2273 195.197 10.6935C196.313 10.1459 197.539 9.86684 198.78 9.87827C200.715 9.87827 202.28 10.2783 203.474 11.0783C204.636 11.8414 205.575 12.9025 206.196 14.1526L205.062 14.8421C204.5 13.6592 203.588 12.6819 202.45 12.0459C201.313 11.4549 200.048 11.1565 198.769 11.1773C197.686 11.1623 196.616 11.412 195.65 11.9049C194.731 12.3841 193.92 13.0509 193.269 13.863C192.605 14.6888 192.093 15.6281 191.757 16.6364C191.402 17.6563 191.217 18.7286 191.209 19.8097C191.203 20.9327 191.407 22.0468 191.81 23.0935C192.201 24.1051 192.767 25.0389 193.481 25.8516C194.175 26.6493 195.023 27.2972 195.972 27.7564C196.915 28.2147 197.949 28.4505 198.995 28.4459C200.24 28.451 201.465 28.1335 202.552 27.524C203.805 26.7841 204.894 25.7936 205.753 24.6135V26.2478C203.833 28.6097 201.55 29.7373 198.927 29.7373ZM205.466 21.2154H201.074V20.0726H206.668V25.2192L205.466 26.5945V21.2154Z" fill="var(--fill-0, #F7F7F7)"/>
<path id="Vector_10" d="M210.773 29.5966V10.0195H218.839C219.625 10.0098 220.403 10.1887 221.107 10.5414C221.784 10.8863 222.388 11.3597 222.887 11.9357C223.385 12.5118 223.782 13.1687 224.063 13.8785C224.35 14.5781 224.502 15.327 224.509 16.0843C224.516 17.026 224.32 17.9581 223.934 18.8157C223.573 19.6433 223.025 20.3749 222.335 20.9528C221.652 21.5249 220.82 21.8884 219.939 22.0004L224.784 29.6195H223.171L218.461 22.2062H212.168V29.5966H210.773ZM212.168 20.9109H218.971C219.756 20.9289 220.525 20.6866 221.16 20.2214C221.782 19.7579 222.277 19.1415 222.596 18.4309C222.933 17.6954 223.106 16.8944 223.103 16.0843C223.113 15.2577 222.914 14.442 222.524 13.7147C222.152 13.0102 221.618 12.4055 220.967 11.9509C220.328 11.5032 219.568 11.2663 218.79 11.2728H212.168V20.9109Z" fill="var(--fill-0, #F7F7F7)"/>
<path id="Vector_11" d="M236.275 29.7374C234.995 29.753 233.73 29.4645 232.582 28.8955C231.485 28.3481 230.508 27.5837 229.71 26.6478C228.904 25.7077 228.273 24.6289 227.846 23.4631C227.414 22.2942 227.193 21.057 227.192 19.8097C227.184 17.2604 228.113 14.7983 229.8 12.8993C230.615 11.9813 231.6 11.2321 232.699 10.6936C233.821 10.1475 235.052 9.86853 236.298 9.87832C237.584 9.85915 238.856 10.1532 240.005 10.7355C241.101 11.2974 242.074 12.0746 242.866 13.0212C243.664 13.9711 244.293 15.0523 244.726 16.2174C245.161 17.3645 245.385 18.5818 245.387 19.8097C245.393 21.0975 245.161 22.375 244.703 23.5774C244.258 24.7445 243.603 25.8189 242.772 26.7469C241.96 27.6686 240.975 28.4184 239.873 28.9526C238.748 29.4854 237.518 29.7537 236.275 29.7374ZM228.587 19.8097C228.586 22.001 229.356 24.1216 230.76 25.7945C231.436 26.5973 232.267 27.2531 233.202 27.7221C234.177 28.1978 235.247 28.4427 236.331 28.4381C237.414 28.4335 238.482 28.1795 239.453 27.6955C240.394 27.2099 241.225 26.5342 241.895 25.7107C242.57 24.886 243.093 23.9469 243.441 22.9374C244.158 20.8776 244.146 18.6311 243.407 16.5793C243.045 15.57 242.501 14.6364 241.804 13.825C241.125 13.0236 240.293 12.367 239.359 11.8936C238.412 11.4133 237.365 11.1677 236.305 11.1774C235.204 11.1627 234.116 11.4176 233.134 11.9202C232.198 12.4047 231.373 13.0807 230.711 13.905C230.043 14.7365 229.516 15.6736 229.15 16.6783C228.779 17.6799 228.588 18.7404 228.587 19.8097Z" fill="var(--fill-0, #F7F7F7)"/>
<path id="Vector_12" d="M256.96 29.7371C255.617 29.7826 254.284 29.4975 253.075 28.9067C252.069 28.3877 251.212 27.6162 250.588 26.6667C249.957 25.6936 249.503 24.6152 249.246 23.4819C248.973 22.2978 248.836 21.0861 248.838 19.8705V10.019H250.233V19.8629C250.232 20.9192 250.342 21.9728 250.561 23.0057C250.76 23.9861 251.126 24.9245 251.642 25.779C252.145 26.5977 252.853 27.268 253.695 27.7219C254.698 28.2326 255.814 28.4789 256.938 28.4381C258.075 28.4742 259.201 28.2116 260.207 27.6762C261.047 27.2053 261.753 26.526 262.259 25.7029C262.773 24.8538 263.134 23.9201 263.325 22.9448C263.536 21.9248 263.641 20.8856 263.639 19.8438V10.019H265.037V19.8629C265.042 21.1277 264.898 22.3887 264.606 23.619C264.35 24.7505 263.881 25.8222 263.227 26.7771C262.585 27.6962 261.73 28.443 260.736 28.9524C259.558 29.515 258.263 29.7842 256.96 29.7371Z" fill="var(--fill-0, #F7F7F7)"/>
<path id="Vector_13" d="M269.821 29.5968V10.0196H277.8C278.587 10.0082 279.364 10.1871 280.068 10.5415C280.747 10.8885 281.355 11.3616 281.859 11.9358C282.366 12.5085 282.769 13.166 283.05 13.8787C283.329 14.5801 283.471 15.3289 283.469 16.0844C283.475 17.114 283.236 18.13 282.774 19.0482C282.33 19.9553 281.674 20.7398 280.862 21.3339C280.017 21.9305 279.005 22.2388 277.974 22.2139H271.216V29.6044L269.821 29.5968ZM271.216 20.9111H277.917C278.712 20.9318 279.491 20.6896 280.136 20.2215C280.757 19.76 281.246 19.1427 281.557 18.4311C281.886 17.6933 282.053 16.8931 282.048 16.0844C282.056 15.2701 281.863 14.4665 281.489 13.7448C281.115 13.0232 280.569 12.4058 279.902 11.9473C279.27 11.5102 278.521 11.2789 277.755 11.2844H271.216V20.9111Z" fill="var(--fill-0, #F7F7F7)"/>
</g>
</svg>
