<svg preserveAspectRatio="none" width="100%" height="100%" overflow="visible" style="display: block;" viewBox="0 0 28 28" fill="none" xmlns="http://www.w3.org/2000/svg">
<g id="Frame">
<g id="Vector">
<mask id="path-1-outside-1_281_136" maskUnits="userSpaceOnUse" x="2" y="2" width="24" height="24" fill="black">
<rect fill="white" x="2" y="2" width="24" height="24"/>
<path d="M14.0006 3C20.0755 3 25 7.9247 25 14C25 15.1506 24.824 16.2594 24.4962 17.3H23.3369C24.0686 15.2292 24.0909 12.9739 23.4004 10.8891C22.71 8.80421 21.3458 7.00814 19.5228 5.78354C17.6998 4.55894 15.5213 3.97533 13.3302 4.12458C11.1392 4.27382 9.05994 5.14744 7.41978 6.60794C5.77961 8.06844 4.67163 10.0329 4.27021 12.1921C3.8688 14.3514 4.19673 16.5828 5.20242 18.5352C6.2081 20.4877 7.83442 22.0502 9.82543 22.977C11.8164 23.9038 14.0591 24.1422 16.2004 23.6547V24.78C15.4888 24.9241 14.7529 25 13.9995 25C7.92445 25 3 20.0753 3 14C3 7.9247 7.92555 3 14.0006 3ZM21.3108 16.2C22.1335 16.2 22.8001 16.8666 22.8001 17.6894V18.4H23.9001C24.1918 18.4 24.4716 18.5159 24.6778 18.7222C24.8841 18.9285 25 19.2083 25 19.5V23.9C25 24.1917 24.8841 24.4715 24.6778 24.6778C24.4716 24.8841 24.1918 25 23.9001 25H18.4003C18.1086 25 17.8288 24.8841 17.6226 24.6778C17.4163 24.4715 17.3004 24.1917 17.3004 23.9V19.5C17.3004 19.2083 17.4163 18.9285 17.6226 18.7222C17.8288 18.5159 18.1086 18.4 18.4003 18.4H19.5003V17.6894C19.5003 16.8666 20.1668 16.2 20.9896 16.2H21.3108ZM23.9001 19.5H18.4003V23.9H23.9001V19.5ZM21.1502 20.6C21.2961 20.6 21.4359 20.6579 21.5391 20.7611C21.6422 20.8642 21.7002 21.0041 21.7002 21.15V22.25C21.7002 22.3959 21.6422 22.5358 21.5391 22.6389C21.4359 22.7421 21.2961 22.8 21.1502 22.8C21.0043 22.8 20.8644 22.7421 20.7613 22.6389C20.6582 22.5358 20.6002 22.3959 20.6002 22.25V21.15C20.6002 21.0041 20.6582 20.8642 20.7613 20.7611C20.8644 20.6579 21.0043 20.6 21.1502 20.6ZM13.9049 7.191C14.0507 7.191 14.1906 7.24895 14.2937 7.35209C14.3969 7.45524 14.4548 7.59513 14.4548 7.741V9.589C14.7045 9.6143 14.9421 9.6583 15.1698 9.7221C15.5471 9.8277 15.8782 9.9861 16.1619 10.1951C16.4457 10.4041 16.6712 10.6648 16.8406 10.9761C17.01 11.2896 17.1024 11.6482 17.12 12.0552H15.8133C15.7904 11.8425 15.7217 11.6372 15.612 11.4535C15.5073 11.2834 15.3665 11.1384 15.1995 11.0289C15.0229 10.9137 14.828 10.8293 14.6231 10.7792C14.4 10.7239 14.171 10.6966 13.9412 10.6978C13.6596 10.6978 13.4121 10.7319 13.1976 10.8012C12.982 10.8694 12.8016 10.9629 12.6553 11.0795C12.5159 11.1893 12.4031 11.3292 12.3253 11.4887C12.2519 11.6383 12.2135 11.8027 12.2131 11.9694C12.2131 12.1927 12.2879 12.3874 12.4364 12.5535C12.586 12.7196 12.7807 12.8692 13.0205 13.0012C13.2625 13.1332 13.5375 13.2531 13.8455 13.362C14.1556 13.4709 14.4702 13.5831 14.7914 13.7008C15.1115 13.8185 15.4272 13.9461 15.7374 14.0836C16.0453 14.2211 16.3203 14.3806 16.5623 14.5599C16.8021 14.7414 16.9968 14.9515 17.1453 15.1924C17.2949 15.4322 17.3697 15.716 17.3697 16.0427C17.3697 16.5124 17.2762 16.9117 17.0903 17.2417C16.9033 17.5717 16.6525 17.8401 16.3379 18.0491C16.0233 18.2581 15.6582 18.4121 15.2424 18.5089C14.9872 18.5694 14.7254 18.6101 14.4559 18.6332L14.4548 20.2601C14.4548 20.406 14.3969 20.5459 14.2937 20.649C14.1906 20.7522 14.0507 20.8101 13.9049 20.8101C13.759 20.8101 13.6191 20.7522 13.516 20.649C13.4128 20.5459 13.3549 20.406 13.3549 20.2601V18.6189C13.1285 18.5906 12.9049 18.5439 12.6861 18.4792C12.3087 18.3713 11.9555 18.192 11.6456 17.9512C11.3445 17.7122 11.0997 17.4099 10.9284 17.0657C10.7396 16.6769 10.6382 16.2515 10.6314 15.8194H11.947C11.9525 16.134 12.0075 16.4013 12.1097 16.6191C12.2131 16.8358 12.3539 17.014 12.531 17.1515C12.7092 17.289 12.916 17.3891 13.1536 17.4518C13.3307 17.4991 13.5221 17.5288 13.7256 17.5398C13.8431 17.4987 13.971 17.4987 14.0885 17.5398L13.9401 17.5464C14.1699 17.5464 14.4119 17.5244 14.666 17.4826C14.9212 17.4386 15.1544 17.366 15.3667 17.2626C15.579 17.1603 15.7539 17.0206 15.8914 16.8468C16.0342 16.6547 16.1069 16.4194 16.097 16.1802C16.1031 15.9507 16.0235 15.7272 15.8738 15.5532C15.7077 15.3679 15.5099 15.2136 15.2897 15.0978C15.0253 14.9558 14.7493 14.8366 14.4647 14.7414C14.1487 14.6331 13.8334 14.5227 13.5188 14.4103C13.1997 14.2963 12.8846 14.1716 12.5739 14.0363C12.2793 13.9105 12.0021 13.7475 11.749 13.5512C11.5129 13.3672 11.3146 13.1393 11.1649 12.8802C11.0094 12.596 10.9324 12.2756 10.9416 11.9518C10.9416 11.5745 11.0241 11.2368 11.1902 10.9387C11.3563 10.6406 11.5785 10.3887 11.8568 10.1863C12.1339 9.9828 12.454 9.8277 12.8137 9.7221C12.9908 9.6704 13.1712 9.6308 13.3549 9.6044V7.741C13.3549 7.59513 13.4128 7.45524 13.516 7.35209C13.6191 7.24895 13.759 7.191 13.9049 7.191ZM21.1502 17.3C21.0215 17.3 20.8968 17.3451 20.7979 17.4275C20.699 17.5099 20.6322 17.6244 20.609 17.751L20.6002 17.85V18.4H21.7002V17.85C21.7002 17.7213 21.6551 17.5966 21.5727 17.4977C21.4903 17.3988 21.3758 17.332 21.2492 17.3088L21.1502 17.3Z"/>
</mask>
<path d="M14.0006 3C20.0755 3 25 7.9247 25 14C25 15.1506 24.824 16.2594 24.4962 17.3H23.3369C24.0686 15.2292 24.0909 12.9739 23.4004 10.8891C22.71 8.80421 21.3458 7.00814 19.5228 5.78354C17.6998 4.55894 15.5213 3.97533 13.3302 4.12458C11.1392 4.27382 9.05994 5.14744 7.41978 6.60794C5.77961 8.06844 4.67163 10.0329 4.27021 12.1921C3.8688 14.3514 4.19673 16.5828 5.20242 18.5352C6.2081 20.4877 7.83442 22.0502 9.82543 22.977C11.8164 23.9038 14.0591 24.1422 16.2004 23.6547V24.78C15.4888 24.9241 14.7529 25 13.9995 25C7.92445 25 3 20.0753 3 14C3 7.9247 7.92555 3 14.0006 3ZM21.3108 16.2C22.1335 16.2 22.8001 16.8666 22.8001 17.6894V18.4H23.9001C24.1918 18.4 24.4716 18.5159 24.6778 18.7222C24.8841 18.9285 25 19.2083 25 19.5V23.9C25 24.1917 24.8841 24.4715 24.6778 24.6778C24.4716 24.8841 24.1918 25 23.9001 25H18.4003C18.1086 25 17.8288 24.8841 17.6226 24.6778C17.4163 24.4715 17.3004 24.1917 17.3004 23.9V19.5C17.3004 19.2083 17.4163 18.9285 17.6226 18.7222C17.8288 18.5159 18.1086 18.4 18.4003 18.4H19.5003V17.6894C19.5003 16.8666 20.1668 16.2 20.9896 16.2H21.3108ZM23.9001 19.5H18.4003V23.9H23.9001V19.5ZM21.1502 20.6C21.2961 20.6 21.4359 20.6579 21.5391 20.7611C21.6422 20.8642 21.7002 21.0041 21.7002 21.15V22.25C21.7002 22.3959 21.6422 22.5358 21.5391 22.6389C21.4359 22.7421 21.2961 22.8 21.1502 22.8C21.0043 22.8 20.8644 22.7421 20.7613 22.6389C20.6582 22.5358 20.6002 22.3959 20.6002 22.25V21.15C20.6002 21.0041 20.6582 20.8642 20.7613 20.7611C20.8644 20.6579 21.0043 20.6 21.1502 20.6ZM13.9049 7.191C14.0507 7.191 14.1906 7.24895 14.2937 7.35209C14.3969 7.45524 14.4548 7.59513 14.4548 7.741V9.589C14.7045 9.6143 14.9421 9.6583 15.1698 9.7221C15.5471 9.8277 15.8782 9.9861 16.1619 10.1951C16.4457 10.4041 16.6712 10.6648 16.8406 10.9761C17.01 11.2896 17.1024 11.6482 17.12 12.0552H15.8133C15.7904 11.8425 15.7217 11.6372 15.612 11.4535C15.5073 11.2834 15.3665 11.1384 15.1995 11.0289C15.0229 10.9137 14.828 10.8293 14.6231 10.7792C14.4 10.7239 14.171 10.6966 13.9412 10.6978C13.6596 10.6978 13.4121 10.7319 13.1976 10.8012C12.982 10.8694 12.8016 10.9629 12.6553 11.0795C12.5159 11.1893 12.4031 11.3292 12.3253 11.4887C12.2519 11.6383 12.2135 11.8027 12.2131 11.9694C12.2131 12.1927 12.2879 12.3874 12.4364 12.5535C12.586 12.7196 12.7807 12.8692 13.0205 13.0012C13.2625 13.1332 13.5375 13.2531 13.8455 13.362C14.1556 13.4709 14.4702 13.5831 14.7914 13.7008C15.1115 13.8185 15.4272 13.9461 15.7374 14.0836C16.0453 14.2211 16.3203 14.3806 16.5623 14.5599C16.8021 14.7414 16.9968 14.9515 17.1453 15.1924C17.2949 15.4322 17.3697 15.716 17.3697 16.0427C17.3697 16.5124 17.2762 16.9117 17.0903 17.2417C16.9033 17.5717 16.6525 17.8401 16.3379 18.0491C16.0233 18.2581 15.6582 18.4121 15.2424 18.5089C14.9872 18.5694 14.7254 18.6101 14.4559 18.6332L14.4548 20.2601C14.4548 20.406 14.3969 20.5459 14.2937 20.649C14.1906 20.7522 14.0507 20.8101 13.9049 20.8101C13.759 20.8101 13.6191 20.7522 13.516 20.649C13.4128 20.5459 13.3549 20.406 13.3549 20.2601V18.6189C13.1285 18.5906 12.9049 18.5439 12.6861 18.4792C12.3087 18.3713 11.9555 18.192 11.6456 17.9512C11.3445 17.7122 11.0997 17.4099 10.9284 17.0657C10.7396 16.6769 10.6382 16.2515 10.6314 15.8194H11.947C11.9525 16.134 12.0075 16.4013 12.1097 16.6191C12.2131 16.8358 12.3539 17.014 12.531 17.1515C12.7092 17.289 12.916 17.3891 13.1536 17.4518C13.3307 17.4991 13.5221 17.5288 13.7256 17.5398C13.8431 17.4987 13.971 17.4987 14.0885 17.5398L13.9401 17.5464C14.1699 17.5464 14.4119 17.5244 14.666 17.4826C14.9212 17.4386 15.1544 17.366 15.3667 17.2626C15.579 17.1603 15.7539 17.0206 15.8914 16.8468C16.0342 16.6547 16.1069 16.4194 16.097 16.1802C16.1031 15.9507 16.0235 15.7272 15.8738 15.5532C15.7077 15.3679 15.5099 15.2136 15.2897 15.0978C15.0253 14.9558 14.7493 14.8366 14.4647 14.7414C14.1487 14.6331 13.8334 14.5227 13.5188 14.4103C13.1997 14.2963 12.8846 14.1716 12.5739 14.0363C12.2793 13.9105 12.0021 13.7475 11.749 13.5512C11.5129 13.3672 11.3146 13.1393 11.1649 12.8802C11.0094 12.596 10.9324 12.2756 10.9416 11.9518C10.9416 11.5745 11.0241 11.2368 11.1902 10.9387C11.3563 10.6406 11.5785 10.3887 11.8568 10.1863C12.1339 9.9828 12.454 9.8277 12.8137 9.7221C12.9908 9.6704 13.1712 9.6308 13.3549 9.6044V7.741C13.3549 7.59513 13.4128 7.45524 13.516 7.35209C13.6191 7.24895 13.759 7.191 13.9049 7.191ZM21.1502 17.3C21.0215 17.3 20.8968 17.3451 20.7979 17.4275C20.699 17.5099 20.6322 17.6244 20.609 17.751L20.6002 17.85V18.4H21.7002V17.85C21.7002 17.7213 21.6551 17.5966 21.5727 17.4977C21.4903 17.3988 21.3758 17.332 21.2492 17.3088L21.1502 17.3Z" fill="var(--fill-0, #121212)"/>
<path d="M14.0006 3C20.0755 3 25 7.9247 25 14C25 15.1506 24.824 16.2594 24.4962 17.3H23.3369C24.0686 15.2292 24.0909 12.9739 23.4004 10.8891C22.71 8.80421 21.3458 7.00814 19.5228 5.78354C17.6998 4.55894 15.5213 3.97533 13.3302 4.12458C11.1392 4.27382 9.05994 5.14744 7.41978 6.60794C5.77961 8.06844 4.67163 10.0329 4.27021 12.1921C3.8688 14.3514 4.19673 16.5828 5.20242 18.5352C6.2081 20.4877 7.83442 22.0502 9.82543 22.977C11.8164 23.9038 14.0591 24.1422 16.2004 23.6547V24.78C15.4888 24.9241 14.7529 25 13.9995 25C7.92445 25 3 20.0753 3 14C3 7.9247 7.92555 3 14.0006 3ZM21.3108 16.2C22.1335 16.2 22.8001 16.8666 22.8001 17.6894V18.4H23.9001C24.1918 18.4 24.4716 18.5159 24.6778 18.7222C24.8841 18.9285 25 19.2083 25 19.5V23.9C25 24.1917 24.8841 24.4715 24.6778 24.6778C24.4716 24.8841 24.1918 25 23.9001 25H18.4003C18.1086 25 17.8288 24.8841 17.6226 24.6778C17.4163 24.4715 17.3004 24.1917 17.3004 23.9V19.5C17.3004 19.2083 17.4163 18.9285 17.6226 18.7222C17.8288 18.5159 18.1086 18.4 18.4003 18.4H19.5003V17.6894C19.5003 16.8666 20.1668 16.2 20.9896 16.2H21.3108ZM23.9001 19.5H18.4003V23.9H23.9001V19.5ZM21.1502 20.6C21.2961 20.6 21.4359 20.6579 21.5391 20.7611C21.6422 20.8642 21.7002 21.0041 21.7002 21.15V22.25C21.7002 22.3959 21.6422 22.5358 21.5391 22.6389C21.4359 22.7421 21.2961 22.8 21.1502 22.8C21.0043 22.8 20.8644 22.7421 20.7613 22.6389C20.6582 22.5358 20.6002 22.3959 20.6002 22.25V21.15C20.6002 21.0041 20.6582 20.8642 20.7613 20.7611C20.8644 20.6579 21.0043 20.6 21.1502 20.6ZM13.9049 7.191C14.0507 7.191 14.1906 7.24895 14.2937 7.35209C14.3969 7.45524 14.4548 7.59513 14.4548 7.741V9.589C14.7045 9.6143 14.9421 9.6583 15.1698 9.7221C15.5471 9.8277 15.8782 9.9861 16.1619 10.1951C16.4457 10.4041 16.6712 10.6648 16.8406 10.9761C17.01 11.2896 17.1024 11.6482 17.12 12.0552H15.8133C15.7904 11.8425 15.7217 11.6372 15.612 11.4535C15.5073 11.2834 15.3665 11.1384 15.1995 11.0289C15.0229 10.9137 14.828 10.8293 14.6231 10.7792C14.4 10.7239 14.171 10.6966 13.9412 10.6978C13.6596 10.6978 13.4121 10.7319 13.1976 10.8012C12.982 10.8694 12.8016 10.9629 12.6553 11.0795C12.5159 11.1893 12.4031 11.3292 12.3253 11.4887C12.2519 11.6383 12.2135 11.8027 12.2131 11.9694C12.2131 12.1927 12.2879 12.3874 12.4364 12.5535C12.586 12.7196 12.7807 12.8692 13.0205 13.0012C13.2625 13.1332 13.5375 13.2531 13.8455 13.362C14.1556 13.4709 14.4702 13.5831 14.7914 13.7008C15.1115 13.8185 15.4272 13.9461 15.7374 14.0836C16.0453 14.2211 16.3203 14.3806 16.5623 14.5599C16.8021 14.7414 16.9968 14.9515 17.1453 15.1924C17.2949 15.4322 17.3697 15.716 17.3697 16.0427C17.3697 16.5124 17.2762 16.9117 17.0903 17.2417C16.9033 17.5717 16.6525 17.8401 16.3379 18.0491C16.0233 18.2581 15.6582 18.4121 15.2424 18.5089C14.9872 18.5694 14.7254 18.6101 14.4559 18.6332L14.4548 20.2601C14.4548 20.406 14.3969 20.5459 14.2937 20.649C14.1906 20.7522 14.0507 20.8101 13.9049 20.8101C13.759 20.8101 13.6191 20.7522 13.516 20.649C13.4128 20.5459 13.3549 20.406 13.3549 20.2601V18.6189C13.1285 18.5906 12.9049 18.5439 12.6861 18.4792C12.3087 18.3713 11.9555 18.192 11.6456 17.9512C11.3445 17.7122 11.0997 17.4099 10.9284 17.0657C10.7396 16.6769 10.6382 16.2515 10.6314 15.8194H11.947C11.9525 16.134 12.0075 16.4013 12.1097 16.6191C12.2131 16.8358 12.3539 17.014 12.531 17.1515C12.7092 17.289 12.916 17.3891 13.1536 17.4518C13.3307 17.4991 13.5221 17.5288 13.7256 17.5398C13.8431 17.4987 13.971 17.4987 14.0885 17.5398L13.9401 17.5464C14.1699 17.5464 14.4119 17.5244 14.666 17.4826C14.9212 17.4386 15.1544 17.366 15.3667 17.2626C15.579 17.1603 15.7539 17.0206 15.8914 16.8468C16.0342 16.6547 16.1069 16.4194 16.097 16.1802C16.1031 15.9507 16.0235 15.7272 15.8738 15.5532C15.7077 15.3679 15.5099 15.2136 15.2897 15.0978C15.0253 14.9558 14.7493 14.8366 14.4647 14.7414C14.1487 14.6331 13.8334 14.5227 13.5188 14.4103C13.1997 14.2963 12.8846 14.1716 12.5739 14.0363C12.2793 13.9105 12.0021 13.7475 11.749 13.5512C11.5129 13.3672 11.3146 13.1393 11.1649 12.8802C11.0094 12.596 10.9324 12.2756 10.9416 11.9518C10.9416 11.5745 11.0241 11.2368 11.1902 10.9387C11.3563 10.6406 11.5785 10.3887 11.8568 10.1863C12.1339 9.9828 12.454 9.8277 12.8137 9.7221C12.9908 9.6704 13.1712 9.6308 13.3549 9.6044V7.741C13.3549 7.59513 13.4128 7.45524 13.516 7.35209C13.6191 7.24895 13.759 7.191 13.9049 7.191ZM21.1502 17.3C21.0215 17.3 20.8968 17.3451 20.7979 17.4275C20.699 17.5099 20.6322 17.6244 20.609 17.751L20.6002 17.85V18.4H21.7002V17.85C21.7002 17.7213 21.6551 17.5966 21.5727 17.4977C21.4903 17.3988 21.3758 17.332 21.2492 17.3088L21.1502 17.3Z" stroke="var(--stroke-0, #121212)" stroke-width="0.4" mask="url(#path-1-outside-1_281_136)"/>
</g>
</g>
</svg>
