<svg preserveAspectRatio="none" width="100%" height="100%" overflow="visible" style="display: block;" viewBox="0 0 28 28" fill="none" xmlns="http://www.w3.org/2000/svg">
<g id="Frame">
<path id="Vector" d="M23.3844 11.7934C23.2695 9.48828 22.348 7.3418 20.7895 5.75313C19.1926 4.12344 17.0598 3.22656 14.7848 3.22656C13.6227 3.22656 12.4961 3.45898 11.4324 3.91836C10.4098 4.35859 9.49102 4.99023 8.70078 5.79141C7.91328 6.58984 7.29258 7.51953 6.86055 8.55039C6.41211 9.61953 6.18516 10.7488 6.18516 11.9082C6.18516 12.9281 5.73945 13.9262 5.26641 14.9789C5.06406 15.4301 4.85625 15.8949 4.68398 16.3625C4.53359 16.7727 4.59375 17.232 4.84531 17.5902C5.09687 17.9484 5.50703 18.1617 5.94453 18.1617H7.28711V19.9473C7.28711 20.959 8.05273 21.793 9.06445 21.8859L9.16563 21.8941C9.68242 21.9406 10.2156 21.9871 10.5902 22.2578C11.0141 22.5613 11.2273 23.1629 11.2438 24.1035C11.2492 24.4754 11.5555 24.7762 11.9273 24.7762H20.5051C20.8824 24.7762 21.1887 24.4699 21.1887 24.0926V17.2758C22.0254 16.8137 23.5676 15.4602 23.3844 11.7934ZM21.2188 15.4684C20.8113 16.0016 20.3902 16.152 20.3328 16.1711C20.0184 16.2395 19.8215 16.5102 19.8215 16.8328V23.4063H12.5645C12.4387 22.3645 12.0477 21.6207 11.3832 21.1449C10.7051 20.6609 9.91758 20.5898 9.28594 20.5324L9.1875 20.5242C8.88125 20.4969 8.65156 20.248 8.65156 19.9473V17.4781C8.65156 17.1008 8.34531 16.7945 7.96797 16.7945H5.98008C6.1332 16.3844 6.31641 15.9715 6.51055 15.5367C7.02187 14.3965 7.54961 13.218 7.54961 11.9055C7.54961 9.9668 8.3043 8.13477 9.67148 6.74844C11.0441 5.35938 12.8598 4.59375 14.7848 4.59375C16.6906 4.59375 18.4762 5.3457 19.8133 6.71016C21.1367 8.06094 21.9215 9.89023 22.0199 11.8617C22.0965 13.4313 21.8203 14.6781 21.2188 15.4684Z" fill="var(--fill-0, #121212)"/>
<path id="Vector_2" d="M17.8275 8.55039C17.1248 8.52305 16.5451 9.08633 16.5451 9.7836C16.5451 9.84922 16.5506 9.91485 16.5615 9.97774L14.4533 11.9137L12.7689 10.4645C12.7771 10.4125 12.7799 10.3578 12.7799 10.3031C12.7799 9.60586 12.2002 9.04258 11.4974 9.06992C10.8576 9.09453 10.3381 9.61407 10.3135 10.2539C10.2861 10.9566 10.8494 11.5363 11.5467 11.5363C11.6588 11.5363 11.7654 11.5199 11.8693 11.4926L13.8053 13.1578V16.9996C13.8053 17.377 14.1115 17.6832 14.4888 17.6832C14.8662 17.6832 15.1724 17.377 15.1724 16.9996V13.1113L17.4885 10.984C17.5814 11.0059 17.6799 11.0195 17.781 11.0195C18.4783 11.0195 19.0416 10.4398 19.0142 9.73711C18.9896 9.09727 18.4674 8.575 17.8275 8.55039Z" fill="var(--fill-0, #121212)"/>
</g>
</svg>
