<svg preserveAspectRatio="none" width="100%" height="100%" overflow="visible" style="display: block;" viewBox="0 0 28 28" fill="none" xmlns="http://www.w3.org/2000/svg">
<g id="Frame">
<path id="Vector" d="M25.2845 9.54844C24.8552 9.54844 24.5052 9.8957 24.5107 10.325C24.5162 10.9758 24.4095 11.6266 24.1935 12.25C24.0595 12.6383 24.2482 13.0648 24.6255 13.2207C24.7212 13.2617 24.8224 13.2781 24.9208 13.2781C25.2408 13.2781 25.5388 13.0785 25.6537 12.7586C25.9326 11.9684 26.0666 11.1398 26.0583 10.3141C26.0556 9.89023 25.7083 9.54844 25.2845 9.54844ZM25.4951 7.74375C25.4951 8.15117 25.1669 8.51758 24.7212 8.51758C24.4177 8.51758 24.1142 8.33711 23.9912 8.06093C23.7998 7.63164 23.5509 7.22148 23.2474 6.8414C23.108 6.6664 22.4162 5.93906 22.1783 5.7914C19.1732 3.91015 16.2228 6.32187 15.2548 7.19961C15.2193 7.23242 15.1236 7.35 15.1236 7.35L15.8208 8.03359C16.0642 8.27422 16.0697 8.75 15.799 9.0289C15.5009 9.33789 15.006 9.40351 14.7462 9.14922L14.0955 8.52304C14.0955 8.52304 11.9845 10.9375 11.7138 11.2437C11.6974 11.2629 11.6755 11.2711 11.6509 11.2711H9.84897V12.8023H13.2642V16.2148H14.7927V12.7969H18.2107V11.2656H15.7908C15.5912 11.2656 15.4107 11.1863 15.2794 11.0551C15.1455 10.9211 15.0634 10.7352 15.0689 10.5273C15.0771 10.1336 15.4107 9.82187 15.8044 9.82187H18.7412C19.2443 9.82187 19.6544 10.232 19.6544 10.7352V13.3273C19.6544 13.8305 19.247 14.2406 18.7412 14.2406H16.2392V16.7426C16.2392 17.2457 15.8291 17.6559 15.3259 17.6559H12.7365C12.2306 17.6559 11.8232 17.2457 11.8232 16.7426V14.2406H9.32124C8.81811 14.2406 8.40796 13.8305 8.40796 13.3273V10.7352C8.40796 10.2293 8.81811 9.82187 9.32124 9.82187H10.8525C11.3064 9.30234 12.2798 8.20586 12.9525 7.40468L12.9443 7.39648L12.947 7.39375C12.9169 7.36367 12.8732 7.32539 12.8185 7.2789C11.8888 6.45586 7.84194 3.12265 4.72475 6.82773C3.01577 8.85937 3.06499 11.8562 4.72475 13.918C4.85874 14.0875 5.0064 14.2488 5.16499 14.4047L6.22593 15.4547L8.86733 18.2055L10.3822 19.7066L13.4529 22.7473C13.7427 23.0535 14.2294 23.0535 14.533 22.7473L17.6037 19.7094L19.1185 18.2082L21.7791 15.4383L22.9412 14.2543C23.149 14.041 23.4607 13.9672 23.7423 14.0602C24.2755 14.2379 24.4533 14.9023 24.0759 15.3207C24.0212 15.3809 23.9693 15.4383 23.9201 15.4848L23.283 16.1164L21.7818 17.6039L21.172 18.2082L19.7939 19.7094L15.6294 23.8273C14.7298 24.716 13.2724 24.716 12.3728 23.8273L8.21108 19.7066L6.83296 18.2055L6.22593 17.6066L4.72475 16.1191L4.08218 15.4848L4.01382 15.4164C1.22749 12.5891 1.27671 8.06367 4.08491 5.2582C6.13843 3.20468 8.36694 3.42343 9.58647 3.63672C11.9244 4.04687 13.9943 6.18515 13.9943 6.18515C13.9943 6.18515 15.9712 3.98398 18.413 3.6039C19.9361 3.36875 22.2521 3.43437 23.9884 5.34023C24.7322 6.15781 25.0849 6.67187 25.424 7.42656C25.4732 7.53047 25.4951 7.63984 25.4951 7.74375Z" fill="var(--fill-0, #121212)"/>
</g>
</svg>
