<svg preserveAspectRatio="none" width="100%" height="100%" overflow="visible" style="display: block;" viewBox="0 0 199 28" fill="none" xmlns="http://www.w3.org/2000/svg">
<g id="&#229;&#155;&#190;&#229;&#177;&#130; 1">
<path id="Vector" d="M20.8403 21.9307L19.9196 21.0027H6.9556V7.936L6.03489 7.008L0 0.925333V28H26.8673L20.8403 21.9307ZM0.952459 0L6.94766 6.04267L7.89747 7H20.8403V20.0427L21.7928 21.0027L27.7801 27.0453V0H0.952459Z" fill="var(--fill-0, white)"/>
<path id="Vector_2" d="M48.0414 20.8C47.1367 20.8119 46.2417 20.611 45.4274 20.2133C44.6524 19.83 43.9601 19.2963 43.3902 18.6426C42.8148 17.9895 42.3661 17.2333 42.0674 16.4133C41.7633 15.5918 41.6074 14.7221 41.607 13.8453C41.6046 12.9474 41.7707 12.0571 42.0965 11.2213C42.4097 10.4049 42.8668 9.65236 43.4458 8.99997C44.0239 8.35474 44.7248 7.83329 45.5068 7.46664C46.3146 7.08214 47.1984 6.88703 48.0917 6.89597C48.9988 6.88423 49.8954 7.09277 50.7057 7.50397C51.4762 7.89983 52.1628 8.4433 52.727 9.10397C53.8578 10.4306 54.4867 12.1177 54.5023 13.8666C54.4979 15.6533 53.8383 17.3753 52.6503 18.7013C52.0758 19.3393 51.3828 19.8576 50.6104 20.2266C49.8079 20.6106 48.9297 20.8066 48.0414 20.8ZM43.8083 13.8506C43.8078 14.485 43.9088 15.1153 44.1072 15.7173C44.2915 16.2988 44.5803 16.8411 44.9592 17.3173C45.3249 17.7784 45.7817 18.158 46.3005 18.432C46.8456 18.7128 47.4506 18.8547 48.0626 18.8453C48.6866 18.8521 49.302 18.6988 49.8511 18.4C50.3742 18.1185 50.8316 17.7275 51.1925 17.2533C51.5598 16.7724 51.8417 16.2311 52.0259 15.6533C52.2161 15.067 52.3134 14.4542 52.3143 13.8373C52.3163 13.1969 52.2126 12.5607 52.0074 11.9546C51.8158 11.3799 51.5237 10.8443 51.1448 10.3733C50.7763 9.91843 50.32 9.54374 49.8035 9.27197C49.2541 8.99699 48.6486 8.85546 48.0352 8.8587C47.4219 8.86194 46.8179 9.00987 46.2714 9.29064C45.7519 9.57049 45.2952 9.95541 44.9301 10.4213C44.5581 10.8992 44.2757 11.4414 44.0966 12.0213C43.907 12.6105 43.8097 13.2259 43.8083 13.8453V13.8506Z" fill="var(--fill-0, white)"/>
<path id="Vector_3" d="M64.743 10.216C64.5765 10.0429 64.39 9.89069 64.1874 9.76264C63.9167 9.58738 63.6317 9.43572 63.3354 9.30931C62.9863 9.15975 62.624 9.04368 62.2533 8.96264C61.8381 8.86994 61.4139 8.82432 60.9887 8.82664C60.1473 8.82664 59.5071 8.99464 59.0732 9.32798C58.8597 9.49265 58.689 9.70699 58.5757 9.95266C58.4623 10.1983 58.4097 10.468 58.4223 10.7386C58.4091 11.0268 58.4829 11.3123 58.634 11.5573C58.7956 11.7908 59.0119 11.9804 59.2637 12.1093C59.5995 12.2904 59.9545 12.4326 60.322 12.5333C60.7417 12.656 61.233 12.7884 61.7956 12.9306C62.4597 13.1093 63.0709 13.296 63.6238 13.4906C64.13 13.6579 64.6082 13.9016 65.0419 14.2133C65.4229 14.4933 65.7344 14.8584 65.952 15.28C66.1842 15.7743 66.2958 16.3174 66.2775 16.864C66.2963 17.4968 66.159 18.1244 65.878 18.6906C65.6209 19.1817 65.2496 19.6026 64.7959 19.9173C64.3134 20.2451 63.7753 20.481 63.2084 20.6133C62.5809 20.7636 61.9379 20.8379 61.2929 20.8346C60.2719 20.8367 59.2568 20.6775 58.2848 20.3626C57.338 20.0587 56.4508 19.5913 55.6628 18.9813L56.6576 17.1146C56.8755 17.3239 57.113 17.5114 57.3667 17.6746C57.7085 17.8985 58.0708 18.0888 58.4488 18.2426C58.8924 18.4271 59.3498 18.576 59.8166 18.688C60.3251 18.8118 60.8465 18.8735 61.3697 18.872C62.0348 18.91 62.6966 18.7525 63.2746 18.4186C63.4947 18.2767 63.6735 18.0786 63.793 17.8444C63.9124 17.6102 63.9681 17.3483 63.9545 17.0853C63.9664 16.7761 63.8792 16.4713 63.7058 16.216C63.5119 15.9606 63.2631 15.7528 62.9783 15.608C62.6053 15.4133 62.2134 15.2578 61.8089 15.144C61.352 15.0071 60.8291 14.8622 60.2399 14.7093C59.6386 14.555 59.0467 14.3653 58.4673 14.1413C58.0126 13.9705 57.589 13.7254 57.2132 13.416C56.8897 13.1462 56.6311 12.8062 56.4566 12.4213C56.2714 11.9862 56.1812 11.516 56.192 11.0426C56.1808 10.4263 56.3084 9.81548 56.565 9.25598C56.808 8.74606 57.1615 8.29769 57.5995 7.94398C58.064 7.57865 58.594 7.30702 59.1605 7.14398C59.7891 6.9619 60.4405 6.87209 61.0945 6.87731C61.9733 6.86585 62.8467 7.01679 63.6714 7.32264C64.398 7.59327 65.0843 7.96293 65.7113 8.42131L64.743 10.216Z" fill="var(--fill-0, white)"/>
<path id="Vector_4" d="M79.874 20.6987V11.632L75.834 19.3653H74.6461L70.5849 11.632V20.6987H68.4392V6.99199H70.7384L75.2361 16.4373L79.7338 6.99199H82.0329V20.6987H79.874Z" fill="var(--fill-0, white)"/>
<path id="Vector_5" d="M90.6955 20.8C89.7908 20.8119 88.8958 20.611 88.0815 20.2133C87.3098 19.8307 86.6203 19.2989 86.0523 18.648C85.4768 17.9948 85.0281 17.2386 84.7294 16.4186C84.4253 15.5971 84.2694 14.7274 84.269 13.8506C84.2666 12.9527 84.4327 12.0624 84.7585 11.2266C85.0717 10.4103 85.5288 9.65769 86.1078 9.0053C86.6854 8.35815 87.3863 7.83486 88.1688 7.46664C88.975 7.08292 89.8569 6.88784 90.7484 6.89597C91.6555 6.88423 92.5521 7.09277 93.3624 7.50397C94.1329 7.89983 94.8195 8.4433 95.3837 9.10397C96.5117 10.4318 97.1377 12.1187 97.151 13.8666C97.151 15.6525 96.4961 17.3753 95.3123 18.704C94.7378 19.342 94.0448 19.8602 93.2724 20.2293C92.4672 20.6132 91.5862 20.8083 90.6955 20.8ZM86.4623 13.8506C86.4619 14.485 86.5628 15.1153 86.7613 15.7173C86.9456 16.2988 87.2343 16.8411 87.6132 17.3173C87.9785 17.7771 88.4343 18.1558 88.952 18.4293C89.498 18.7098 90.1038 18.8517 90.7167 18.8426C91.3404 18.8502 91.9559 18.6979 92.5052 18.4C93.0283 18.1185 93.4856 17.7275 93.8465 17.2533C94.2139 16.7724 94.4958 16.2311 94.6799 15.6533C94.8739 15.0703 94.9756 14.4602 94.9816 13.8453C94.9836 13.2049 94.8799 12.5687 94.6746 11.9626C94.4831 11.3879 94.191 10.8523 93.8121 10.3813C93.4436 9.92642 92.9873 9.55174 92.4708 9.27997C91.9214 9.00499 91.3159 8.86346 90.7025 8.8667C90.0892 8.86994 89.4852 9.01787 88.9387 9.29864C88.4106 9.57573 87.9456 9.96083 87.5735 10.4293C87.2016 10.9072 86.9192 11.4494 86.7401 12.0293C86.5549 12.6165 86.4612 13.2291 86.4623 13.8453V13.8506Z" fill="var(--fill-0, white)"/>
<path id="Vector_6" d="M107.398 10.216C107.231 10.043 107.045 9.89076 106.842 9.76271C106.571 9.58745 106.286 9.43578 105.99 9.30938C105.641 9.15982 105.279 9.04375 104.908 8.96271C104.493 8.87 104.069 8.82439 103.643 8.82671C102.802 8.82671 102.162 8.99471 101.728 9.32804C101.513 9.49157 101.34 9.70541 101.225 9.95114C101.109 10.1969 101.055 10.4672 101.066 10.7387C101.053 11.0269 101.127 11.3123 101.278 11.5574C101.44 11.7912 101.658 11.9808 101.91 12.1094C102.247 12.2868 102.602 12.4254 102.969 12.5227C103.39 12.6454 103.882 12.7778 104.442 12.92C105.107 13.0978 105.717 13.2845 106.271 13.48C106.777 13.6473 107.255 13.891 107.689 14.2027C108.07 14.4827 108.381 14.8478 108.599 15.2694C108.831 15.7637 108.943 16.3068 108.924 16.8534C108.943 17.4882 108.805 18.1178 108.522 18.6854C108.265 19.1764 107.894 19.5973 107.44 19.912C106.958 20.2398 106.419 20.4757 105.853 20.608C105.225 20.7584 104.582 20.8327 103.937 20.8294C102.916 20.8315 101.901 20.6722 100.929 20.3574C99.9816 20.0529 99.0936 19.5856 98.3044 18.976L99.3018 17.1094C99.5197 17.3186 99.7571 17.5062 100.011 17.6694C100.353 17.8933 100.715 18.0835 101.093 18.2374C101.537 18.4219 101.994 18.5708 102.461 18.6827C102.969 18.8065 103.491 18.8683 104.014 18.8667C104.679 18.9047 105.341 18.7472 105.919 18.4134C106.139 18.2715 106.318 18.0733 106.437 17.8391C106.557 17.6049 106.612 17.343 106.599 17.08C106.607 16.7817 106.523 16.4881 106.358 16.24C106.164 15.9847 105.915 15.7768 105.63 15.632C105.257 15.4373 104.866 15.2819 104.461 15.168C104.002 15.0312 103.479 14.8863 102.892 14.7334C102.291 14.5791 101.699 14.3894 101.119 14.1654C100.665 13.9946 100.241 13.7495 99.8653 13.44C99.5418 13.1703 99.2831 12.8303 99.1087 12.4454C98.9235 12.0102 98.8332 11.5401 98.8441 11.0667C98.8329 10.4504 98.9605 9.83955 99.2171 9.28004C99.4649 8.76716 99.8261 8.31834 100.273 7.96804C100.737 7.60272 101.267 7.33109 101.834 7.16804C102.462 6.98597 103.114 6.89616 103.768 6.90138C104.647 6.88992 105.52 7.04086 106.345 7.34671C107.071 7.61734 107.758 7.987 108.385 8.44538L107.398 10.216Z" fill="var(--fill-0, white)"/>
<path id="Vector_7" d="M111.094 20.6987V7.01335H113.237V20.6987H111.094Z" fill="var(--fill-0, white)"/>
<path id="Vector_8" d="M124.368 10.216C124.202 10.043 124.015 9.89076 123.812 9.76271C123.542 9.58745 123.257 9.43578 122.96 9.30938C122.611 9.15982 122.249 9.04375 121.878 8.96271C121.463 8.87 121.039 8.82439 120.614 8.82671C119.771 8.82671 119.132 8.99382 118.698 9.32804C118.485 9.49272 118.314 9.70706 118.201 9.95272C118.087 10.1984 118.035 10.4681 118.047 10.7387C118.034 11.0269 118.108 11.3123 118.259 11.5574C118.421 11.7905 118.637 11.98 118.889 12.1094C119.225 12.2861 119.58 12.4247 119.947 12.5227C120.367 12.6454 120.858 12.7778 121.421 12.92C122.084 13.0978 122.693 13.2845 123.249 13.48C123.755 13.6473 124.233 13.891 124.667 14.2027C125.048 14.4827 125.359 14.8478 125.577 15.2694C125.809 15.7637 125.921 16.3068 125.902 16.8534C125.921 17.4882 125.783 18.1178 125.5 18.6854C125.243 19.1764 124.872 19.5973 124.418 19.912C123.936 20.2398 123.398 20.4757 122.831 20.608C122.203 20.7584 121.56 20.8327 120.915 20.8294C119.894 20.8315 118.879 20.6722 117.907 20.3574C116.96 20.0529 116.072 19.5856 115.283 18.976L116.28 17.1094C116.498 17.3186 116.735 17.5062 116.989 17.6694C117.331 17.8933 117.693 18.0835 118.071 18.2374C118.515 18.4219 118.972 18.5708 119.439 18.6827C119.947 18.8065 120.469 18.8683 120.992 18.8667C121.657 18.9047 122.319 18.7472 122.897 18.4134C123.117 18.2715 123.296 18.0733 123.415 17.8391C123.535 17.6049 123.59 17.343 123.577 17.08C123.589 16.7709 123.502 16.466 123.328 16.2107C123.134 15.9554 122.886 15.7475 122.601 15.6027C122.229 15.4186 121.84 15.273 121.439 15.168C120.981 15.0312 120.458 14.8863 119.87 14.7334C119.269 14.5791 118.677 14.3894 118.098 14.1654C117.643 13.9946 117.219 13.7495 116.844 13.44C116.52 13.1703 116.261 12.8303 116.087 12.4454C115.902 12.0102 115.811 11.5401 115.822 11.0667C115.811 10.4504 115.939 9.83955 116.195 9.28004C116.437 8.76935 116.791 8.32071 117.23 7.96804C117.694 7.60272 118.224 7.33109 118.791 7.16804C119.419 6.98597 120.071 6.89616 120.725 6.90138C121.604 6.88992 122.477 7.04086 123.302 7.34671C124.028 7.61734 124.715 7.987 125.342 8.44538L124.368 10.216Z" fill="var(--fill-0, white)"/>
<path id="Vector_9" d="M139.249 20.816C138.365 20.8245 137.491 20.6188 136.701 20.216C135.927 19.8216 135.237 19.278 134.669 18.616C134.099 17.9551 133.651 17.1964 133.347 16.376C133.038 15.5658 132.879 14.7053 132.878 13.8373C132.878 12.9539 133.036 12.0777 133.344 11.2507C133.639 10.4359 134.08 9.68283 134.646 9.02935C135.199 8.38423 135.877 7.85898 136.638 7.48535C137.419 7.10203 138.277 6.90668 139.146 6.91468C140.501 6.91468 141.596 7.19468 142.432 7.75468C143.245 8.2889 143.903 9.03166 144.337 9.90668L143.543 10.3893C143.15 9.56136 142.511 8.87725 141.715 8.43201C140.919 8.01829 140.034 7.80943 139.138 7.82401C138.38 7.81349 137.631 7.98826 136.955 8.33335C136.311 8.66877 135.744 9.13555 135.289 9.70401C134.823 10.282 134.465 10.9396 134.23 11.6453C133.981 12.3593 133.852 13.1099 133.847 13.8667C133.842 14.6528 133.985 15.4327 134.267 16.1653C134.541 16.8735 134.937 17.5271 135.437 18.096C135.923 18.6544 136.516 19.1079 137.18 19.4293C137.84 19.7502 138.564 19.9153 139.297 19.912C140.168 19.9156 141.025 19.6934 141.786 19.2667C142.663 18.7488 143.426 18.0554 144.027 17.2293V18.3733C142.683 20.0267 141.085 20.816 139.249 20.816ZM143.826 14.8507H140.752V14.0507H144.668V17.6533L143.826 18.616V14.8507Z" fill="var(--fill-0, white)"/>
<path id="Vector_10" d="M147.541 20.7173V7.01333H153.187C153.738 7.00653 154.282 7.13175 154.775 7.37866C155.249 7.62007 155.672 7.95147 156.021 8.35466C156.369 8.75795 156.648 9.21778 156.844 9.71466C157.045 10.2044 157.151 10.7286 157.156 11.2587C157.161 11.9179 157.024 12.5704 156.754 13.1707C156.501 13.75 156.118 14.2621 155.635 14.6667C155.156 15.0671 154.574 15.3216 153.957 15.4L157.349 20.7333H156.219L152.923 15.544H148.518V20.7173H147.541ZM148.518 14.6373H153.28C153.829 14.6499 154.367 14.4803 154.812 14.1547C155.248 13.8302 155.594 13.3987 155.817 12.9013C156.053 12.3864 156.174 11.8257 156.172 11.2587C156.179 10.68 156.04 10.1091 155.767 9.6C155.506 9.10684 155.133 8.68355 154.677 8.36533C154.23 8.05191 153.697 7.88606 153.153 7.89066H148.518V14.6373Z" fill="var(--fill-0, white)"/>
<path id="Vector_11" d="M165.391 20.816C164.496 20.8269 163.61 20.625 162.807 20.2266C162.038 19.8435 161.355 19.3084 160.796 18.6533C160.232 17.9952 159.79 17.24 159.492 16.424C159.189 15.6058 159.034 14.7397 159.034 13.8666C159.028 12.0821 159.678 10.3586 160.859 9.0293C161.43 8.3867 162.119 7.86227 162.889 7.4853C163.674 7.10303 164.535 6.90778 165.407 6.91463C166.308 6.90122 167.198 7.10704 168.003 7.51463C168.77 7.90799 169.451 8.452 170.006 9.11463C170.564 9.77957 171.004 10.5364 171.307 11.352C171.612 12.155 171.768 13.0071 171.77 13.8666C171.774 14.7681 171.612 15.6623 171.291 16.504C170.98 17.3209 170.522 18.073 169.939 18.7226C169.371 19.3679 168.682 19.8927 167.91 20.2666C167.123 20.6396 166.261 20.8274 165.391 20.816ZM160.01 13.8666C160.009 15.4005 160.549 16.8849 161.531 18.056C162.004 18.6179 162.586 19.077 163.241 19.4053C163.923 19.7383 164.672 19.9097 165.431 19.9065C166.189 19.9032 166.937 19.7254 167.617 19.3866C168.275 19.0467 168.857 18.5738 169.326 17.9973C169.798 17.42 170.164 16.7627 170.408 16.056C170.91 14.6141 170.901 13.0416 170.384 11.6053C170.13 10.8988 169.75 10.2453 169.262 9.6773C168.786 9.11635 168.205 8.65671 167.55 8.3253C166.888 7.98908 166.155 7.81721 165.413 7.82397C164.642 7.81367 163.88 7.99212 163.193 8.34397C162.538 8.68309 161.96 9.15629 161.497 9.7333C161.029 10.3154 160.66 10.9713 160.404 11.6746C160.144 12.3758 160.011 13.1181 160.01 13.8666Z" fill="var(--fill-0, white)"/>
<path id="Vector_12" d="M179.871 20.816C178.931 20.8478 177.998 20.6483 177.152 20.2347C176.447 19.8714 175.848 19.3314 175.411 18.6667C174.969 17.9855 174.651 17.2307 174.471 16.4374C174.28 15.6085 174.184 14.7603 174.186 13.9094V7.01335H175.162V13.904C175.161 14.6435 175.238 15.381 175.392 16.104C175.531 16.7903 175.787 17.4471 176.149 18.0454C176.5 18.6184 176.996 19.0876 177.585 19.4054C178.288 19.7628 179.069 19.9353 179.855 19.9067C180.651 19.932 181.44 19.7482 182.144 19.3734C182.732 19.0437 183.226 18.5682 183.581 17.992C183.94 17.3977 184.193 16.7441 184.327 16.0614C184.474 15.3474 184.548 14.6199 184.546 13.8907V7.01335H185.525V13.904C185.529 14.7894 185.428 15.6721 185.224 16.5334C185.044 17.3253 184.716 18.0756 184.258 18.744C183.809 19.3873 183.21 19.9101 182.514 20.2667C181.69 20.6605 180.783 20.8489 179.871 20.816Z" fill="var(--fill-0, white)"/>
<path id="Vector_13" d="M188.875 20.7174V7.01336H194.46C195.011 7.00532 195.555 7.13061 196.048 7.37869C196.523 7.62157 196.948 7.95271 197.302 8.35469C197.656 8.75553 197.938 9.21581 198.135 9.71469C198.33 10.2057 198.43 10.7298 198.429 11.2587C198.432 11.9794 198.265 12.6906 197.942 13.3334C197.631 13.9683 197.172 14.5175 196.603 14.9334C196.012 15.3509 195.304 15.5668 194.582 15.5494H189.851V20.7227L188.875 20.7174ZM189.851 14.6374H194.542C195.098 14.6519 195.644 14.4823 196.095 14.1547C196.53 13.8316 196.873 13.3995 197.09 12.9014C197.32 12.3849 197.437 11.8247 197.434 11.2587C197.439 10.6887 197.304 10.1261 197.042 9.621C196.78 9.11586 196.399 8.68366 195.931 8.36269C195.489 8.05678 194.965 7.89483 194.428 7.89869H189.851V14.6374Z" fill="var(--fill-0, white)"/>
</g>
</svg>
