<svg preserveAspectRatio="none" width="100%" height="100%" overflow="visible" style="display: block;" viewBox="0 0 28 28" fill="none" xmlns="http://www.w3.org/2000/svg">
<g id="Frame">
<path id="Vector" d="M13.998 26C12.7581 26.0034 11.5299 25.7608 10.3845 25.2864C9.239 24.8119 8.199 24.115 7.32466 23.236L4.76 20.6726C1.08 16.9933 1.08 11.006 4.76 7.32735L7.32399 4.76403C8.19833 3.88497 9.23833 3.18806 10.3838 2.71362C11.5293 2.23918 12.7575 1.99664 13.9973 2.00004C16.5186 2.00004 18.8893 2.98137 20.672 4.76403L23.2353 7.32735C24.1145 8.20144 24.8116 9.24129 25.2862 10.3867C25.7608 11.5321 26.0034 12.7602 26 14C26 16.52 25.018 18.8907 23.2353 20.6733L20.672 23.236C19.7975 24.115 18.7574 24.812 17.6118 25.2864C16.4662 25.7608 15.2379 26.0034 13.998 26ZM13.998 4.00003C13.0208 3.99726 12.0527 4.18833 11.1498 4.56218C10.247 4.93603 9.42719 5.48524 8.73799 6.17802L6.17466 8.74135C3.27466 11.6413 3.27466 16.3587 6.17466 19.2587L8.73866 21.822C9.42778 22.5147 10.2474 23.0638 11.1502 23.4377C12.0529 23.8115 13.0209 24.0027 13.998 24C15.9846 24 17.8526 23.2266 19.258 21.822L21.8213 19.2587C22.514 18.5696 23.0631 17.7501 23.4369 16.8474C23.8108 15.9448 24.0019 14.977 23.9993 14C23.9993 12.0133 23.226 10.146 21.8213 8.74135L19.258 6.17802C18.5687 5.48533 17.7489 4.93618 16.8461 4.56233C15.9432 4.18849 14.9752 3.99737 13.998 4.00003Z" fill="var(--fill-0, #F7F7F7)"/>
<path id="Vector_2" d="M16 11H12C11.7348 11 11.4804 10.8946 11.2929 10.7071C11.1054 10.5196 11 10.2652 11 10C11 9.73478 11.1054 9.48043 11.2929 9.29289C11.4804 9.10536 11.7348 9 12 9H16C16.2652 9 16.5196 9.10536 16.7071 9.29289C16.8946 9.48043 17 9.73478 17 10C17 10.2652 16.8946 10.5196 16.7071 10.7071C16.5196 10.8946 16.2652 11 16 11ZM18 15H10C9.73478 15 9.48043 14.8946 9.29289 14.7071C9.10536 14.5196 9 14.2652 9 14C9 13.7348 9.10536 13.4804 9.29289 13.2929C9.48043 13.1054 9.73478 13 10 13H18C18.2652 13 18.5196 13.1054 18.7071 13.2929C18.8946 13.4804 19 13.7348 19 14C19 14.2652 18.8946 14.5196 18.7071 14.7071C18.5196 14.8946 18.2652 15 18 15ZM16.002 19H12.002C11.7368 19 11.4824 18.8946 11.2949 18.7071C11.1074 18.5196 11.002 18.2652 11.002 18C11.002 17.7348 11.1074 17.4804 11.2949 17.2929C11.4824 17.1054 11.7368 17 12.002 17H16.002C16.2672 17 16.5216 17.1054 16.7091 17.2929C16.8966 17.4804 17.002 17.7348 17.002 18C17.002 18.2652 16.8966 18.5196 16.7091 18.7071C16.5216 18.8946 16.2672 19 16.002 19Z" fill="var(--fill-0, #F7F7F7)"/>
</g>
</svg>
