<svg preserveAspectRatio="none" width="100%" height="100%" overflow="visible" style="display: block;" viewBox="0 0 29 29" fill="none" xmlns="http://www.w3.org/2000/svg">
<g id="Group">
<path id="Vector" d="M15.3359 21.677C14.2535 21.4125 14.1762 22.147 13.5948 22.8267C11.3485 25.4507 8.72975 27.1622 5.38912 24.9119C2.13561 22.7196 2.10077 18.865 4.58772 16.0378C6.78504 13.5405 9.11194 11.2149 12.5331 13.3919C12.8021 13.5624 13.4608 14.2072 13.7298 14.1197C14.0216 14.0258 14.333 12.5427 14.3025 12.2149C14.2056 11.1559 12.3415 10.3198 11.4465 10.0564C8.8713 9.29796 6.73495 10.052 4.83925 11.828C1.05764 15.3733 -1.91059 19.641 1.49536 24.7688C4.99387 30.0386 11.1416 29.8725 15.1627 25.301C15.5754 24.8311 16.8189 23.3469 16.8396 22.7808C16.8559 22.3327 15.7213 21.7721 15.3348 21.677H15.3359Z" fill="var(--fill-0, #0C6DA4)"/>
<path id="Vector_2" d="M17.2755 0.423889C14.9399 1.21841 11.7888 4.80962 10.0825 6.70249C9.96275 6.83473 9.27132 7.57788 9.37477 7.67734C10.2371 7.68827 11.0886 7.82269 11.9303 7.99974C12.2515 8.06749 12.8461 8.35383 13.1324 8.26531C14.5011 6.68937 15.897 4.27629 17.8646 3.41401C22.4106 1.42278 26.9043 7.02817 24.8943 11.2937C24.4664 12.2008 23.6454 12.9232 22.9822 13.6554C22.9354 13.8357 23.3546 14.3647 23.4592 14.5756C23.567 14.792 23.9361 15.7428 24.0646 15.7668C24.2725 15.8062 25.9908 14.2445 26.2227 13.9778C31.6017 7.80958 24.9259 -2.17935 17.2766 0.423889H17.2755Z" fill="var(--fill-0, #32925A)"/>
<path id="Vector_3" d="M21.179 8.23798C20.9481 8.1123 20.1162 7.8511 20.0738 7.80957C19.8865 7.62706 20.0346 6.87516 19.9801 6.59101C19.8865 6.10249 18.6561 6.11451 18.3076 6.33418C17.9298 6.57243 18.2739 7.51121 18.153 7.75274C18.0561 7.94509 17.5563 7.97897 17.3462 8.06967C14.9539 9.09042 14.6741 12.2237 16.584 13.8991C17.5596 14.7559 19.587 15.2444 20.1631 16.3067C20.5921 17.098 20.2763 18.1209 19.4825 18.5373C18.2249 19.1985 16.9825 18.6652 16.1397 17.6444C15.9797 17.4499 15.8141 16.9548 15.5343 16.9788C15.4548 16.9854 14.3202 17.8138 14.2516 17.898C14.0328 18.1646 14.3344 18.5154 14.4966 18.769C14.9245 19.4411 15.5909 20.0739 16.3444 20.3635C16.5567 20.4444 17.2242 20.5536 17.2754 20.5908C17.4921 20.746 17.2612 22.1995 17.4159 22.582C17.528 22.8585 18.8728 22.9514 19.0905 22.6421C19.3039 22.3394 19.047 21.1471 19.1961 20.7241C19.2735 20.5679 19.8005 20.5143 20.0204 20.4269C22.2918 19.5132 23.1716 16.6936 21.5481 14.7658C20.6204 13.663 19.4945 13.4237 18.361 12.7155C15.7673 11.0948 18.4873 8.49481 20.4647 10.1538C20.7946 10.4303 20.9242 10.9625 21.3978 10.7866C21.535 10.7352 22.5117 10.0358 22.5607 9.9232C22.7676 9.45545 21.572 8.45328 21.1779 8.23689L21.179 8.23798Z" fill="var(--fill-0, #32925A)"/>
<path id="Vector_4" d="M10.6209 15.1167C10.4772 15.1495 10.1919 15.3659 10.0786 15.4741C9.43186 16.0894 8.68599 17.1047 8.06534 17.803C7.33254 18.6282 5.99869 19.5178 6.98302 20.7626C8.01308 22.0653 9.11609 20.685 9.85761 19.9035C10.3389 19.3975 12.0756 17.52 12.2781 17.0085C12.6004 16.1867 11.4484 14.9342 10.6209 15.1189V15.1167Z" fill="var(--fill-0, #0C6DA4)"/>
</g>
</svg>
