<svg preserveAspectRatio="none" width="100%" height="100%" overflow="visible" style="display: block;" viewBox="0 0 92 15" fill="none" xmlns="http://www.w3.org/2000/svg">
<g id="Group">
<path id="Vector" d="M26.0244 0.284782V9.41034L25.5845 9.25077C23.7062 6.5918 21.9204 3.8279 19.9714 1.22357C19.8146 1.01373 19.1711 0.12085 19.0012 0.12085H17.0957V13.7819H19.3279C19.3398 13.7819 19.4912 13.6299 19.4912 13.6179V4.87488C19.4912 4.8257 19.6839 4.6257 19.758 4.8257L25.9111 13.5906C25.9634 13.654 26.13 13.7819 26.1877 13.7819H28.2565C28.2685 13.7819 28.4198 13.6299 28.4198 13.6179V0.12085H26.1877C26.1757 0.12085 26.0244 0.27276 26.0244 0.284782Z" fill="var(--fill-0, #111111)"/>
<path id="Vector_2" d="M37.4337 0.0432745C32.0656 0.564579 29.2357 6.86831 32.4032 11.2584C34.1867 13.7316 37.4522 14.7338 40.3431 13.783C48.4323 11.1229 46.2034 -0.806987 37.4337 0.0432745ZM39.0234 11.6934C32.3433 12.4792 31.9546 3.017 37.6504 2.33723C43.907 1.5897 44.6485 11.0322 39.0234 11.6934Z" fill="var(--fill-0, #111111)"/>
<path id="Vector_3" d="M74.3152 0.12102C74.3032 0.12102 74.1519 0.272931 74.1519 0.284952V9.30122C73.8862 9.27499 73.6216 8.85204 73.4539 8.63565C71.5233 6.14716 69.877 3.20622 67.88 0.78877C67.6666 0.530851 67.4695 0.172386 67.1287 0.12102C66.6855 0.0543547 65.9789 0.12102 65.4954 0.12102C65.4834 0.12102 65.3321 0.272931 65.3321 0.284952V13.6181C65.3321 13.6301 65.4834 13.782 65.4954 13.782H67.5643C67.5762 13.782 67.7276 13.6301 67.7276 13.6181V4.98434C67.7276 4.94827 67.9116 4.77778 67.9987 4.82041C69.9565 7.45316 71.703 10.2717 73.6717 12.8979C73.7795 13.0432 74.3359 13.782 74.4241 13.782H76.2751C76.7619 13.782 76.4406 12.4738 76.4341 12.2017C76.4058 11.0247 76.5397 9.86186 76.5528 8.7056C76.5844 5.84006 76.4592 2.98327 76.4385 0.12102H74.3152Z" fill="var(--fill-0, #111111)"/>
<path id="Vector_4" d="M85.0432 6.18963L91.0298 0.120862H88.1443C87.6935 0.120862 86.927 1.25527 86.6243 1.54598C85.9644 2.18094 85.2098 2.76236 84.5478 3.39623C83.9838 3.9372 83.2521 4.92517 82.7022 5.36888C82.553 5.49019 82.295 5.56997 82.1011 5.58527V0.120862H79.8145V13.7819H82.1011V8.69998C82.1011 8.60271 82.9374 7.57103 83.1889 7.70983L88.1443 13.7819H91.1387L85.0432 6.18963Z" fill="var(--fill-0, #111111)"/>
<path id="Vector_5" d="M8.43866 0.12085H0L0.054443 13.7819H2.23216C2.24414 13.7819 2.39549 13.6299 2.39549 13.6179V8.48139C2.39549 8.46937 2.54684 8.31746 2.55882 8.31746H7.67646C7.99768 8.31746 7.79406 6.44207 7.73091 6.13169H2.55882C2.54684 6.13169 2.39549 5.97978 2.39549 5.96776V2.57983C2.39549 2.56781 2.54684 2.4159 2.55882 2.4159H8.32978C8.36571 2.4159 8.49529 2.27164 8.60199 2.30661V0.284782C8.60199 0.27276 8.45064 0.12085 8.43866 0.12085Z" fill="var(--fill-0, #111111)"/>
<path id="Vector_6" d="M55.4831 11.4914C53.9631 11.5242 52.4071 11.4848 50.9175 11.4761C50.8043 11.475 50.3513 11.3843 50.2947 11.3089C50.078 10.1777 50.678 0.27951 50.1434 0.121042C49.6708 -0.0188463 48.5732 0.223773 48.0201 0.121042C47.9493 4.25213 48.1137 8.39743 48.0244 12.5296C48.0201 12.7591 47.7337 13.782 48.1834 13.782H56.5676C56.5796 13.782 56.731 13.6301 56.731 13.6181V11.487C56.2736 11.2553 55.9121 11.4826 55.4831 11.4914Z" fill="var(--fill-0, #111111)"/>
<path id="Vector_7" d="M59.6162 0.12085V13.7819H61.685C61.7242 13.7819 61.8614 13.6704 61.9398 13.654L61.9649 13.5119L61.685 0.12085H59.6162Z" fill="var(--fill-0, #111111)"/>
<path id="Vector_8" d="M13.7735 0.120862H11.9224L11.8135 13.7819H13.7735C13.8094 13.7819 13.939 13.6376 14.0457 13.6726V0.23015C13.939 0.265122 13.8094 0.120862 13.7735 0.120862Z" fill="var(--fill-0, #111111)"/>
</g>
</svg>
