<svg preserveAspectRatio="none" width="100%" height="100%" overflow="visible" style="display: block;" viewBox="0 0 24 24" fill="none" xmlns="http://www.w3.org/2000/svg">
<g id="icon_enterprise">
<rect width="24" height="24" rx="12" fill="var(--fill-0, #242424)"/>
<path id="Vector" d="M13.8455 17.9954C13.7231 17.9954 13.6057 17.9468 13.5191 17.8603C13.4325 17.7737 13.3839 17.6564 13.3839 17.534V17.0727C13.3839 16.9503 13.4325 16.833 13.5191 16.7464C13.6057 16.6599 13.7231 16.6113 13.8455 16.6113H17.5384C17.6608 16.6113 17.7782 16.6599 17.8648 16.7464C17.9514 16.833 18 16.9503 18 17.0727V17.534C18 17.6564 17.9514 17.7737 17.8648 17.8603C17.7782 17.9468 17.6608 17.9954 17.5384 17.9954H13.8455ZM10.9318 17.9954C10.8388 17.9954 10.7479 17.9673 10.6712 17.9147C10.5944 17.8622 10.5353 17.7877 10.5016 17.701L7.38483 9.60323V17.5386C7.38483 17.661 7.33619 17.7783 7.24963 17.8649C7.16306 17.9514 7.04565 18 6.92322 18H6.46161C6.33918 18 6.22177 17.9514 6.1352 17.8649C6.04863 17.7783 6 17.661 6 17.5386V6.46597C6 6.34361 6.04863 6.22627 6.1352 6.13974C6.22177 6.05322 6.33918 6.00461 6.46161 6.00461H7.06724C7.16107 6.00428 7.25278 6.03254 7.33014 6.08563C7.40749 6.13871 7.46683 6.21409 7.50023 6.30173L10.617 14.4005V6.46505C10.617 6.34269 10.6657 6.22534 10.7522 6.13882C10.8388 6.0523 10.9562 6.00369 11.0786 6.00369H11.5402C11.6627 6.00369 11.7801 6.0523 11.8666 6.13882C11.9532 6.22534 12.0018 6.34269 12.0018 6.46505V17.5377C12.0018 17.6601 11.9532 17.7774 11.8666 17.8639C11.7801 17.9505 11.6627 17.9991 11.5402 17.9991L10.9318 17.9954ZM17.0768 15.2272H13.8455C13.7231 15.2272 13.6057 15.1786 13.5191 15.0921C13.4325 15.0056 13.3839 14.8882 13.3839 14.7659V6.46136C13.3839 6.339 13.4325 6.22165 13.5191 6.13513C13.6057 6.04861 13.7231 6 13.8455 6H17.5384C17.6608 6 17.7782 6.04861 17.8648 6.13513C17.9514 6.22165 18 6.339 18 6.46136V14.7659C18 14.8882 17.9514 15.0056 17.8648 15.0921C17.7782 15.1786 17.6608 15.2272 17.5384 15.2272H17.0768ZM14.7687 7.61384V13.6115C14.7687 13.6418 14.7747 13.6717 14.7863 13.6997C14.7979 13.7276 14.8149 13.753 14.8364 13.7743C14.8578 13.7957 14.8833 13.8126 14.9113 13.8241C14.9393 13.8356 14.9693 13.8414 14.9995 13.8413H16.3844C16.4146 13.8413 16.4444 13.8353 16.4723 13.8238C16.5002 13.8123 16.5256 13.7953 16.5469 13.774C16.5683 13.7527 16.5852 13.7273 16.5968 13.6995C16.6083 13.6716 16.6142 13.6417 16.6142 13.6115V7.61384C16.6138 7.55305 16.5894 7.49489 16.5464 7.45191C16.5034 7.40893 16.4452 7.38457 16.3844 7.38408H14.9995C14.9387 7.38432 14.8804 7.40845 14.8372 7.45126C14.7941 7.49407 14.7695 7.55213 14.7687 7.61292V7.61384Z" fill="var(--fill-0, white)"/>
</g>
</svg>
