<svg preserveAspectRatio="none" width="100%" height="100%" overflow="visible" style="display: block;" viewBox="0 0 28 28" fill="none" xmlns="http://www.w3.org/2000/svg">
<g id="Frame">
<path id="Vector" d="M17.4967 11.373H10.4979C10.0134 11.373 9.62305 10.9826 9.62305 10.4981C9.62305 10.0137 10.0134 9.62329 10.4979 9.62329H17.4967C17.9812 9.62329 18.3716 10.0137 18.3716 10.4981C18.3716 10.9826 17.9812 11.373 17.4967 11.373Z" fill="var(--fill-0, #F7F7F7)"/>
<path id="Vector_2" d="M15.8364 14.8725H10.4979C10.0134 14.8725 9.62305 14.4821 9.62305 13.9977C9.62305 13.5132 10.0181 13.1228 10.4979 13.1228H15.8364C16.3208 13.1228 16.7112 13.5132 16.7112 13.9977C16.7112 14.4821 16.3208 14.8725 15.8364 14.8725Z" fill="var(--fill-0, #F7F7F7)"/>
<path id="Vector_3" d="M26.3111 12.248C26.3111 6.45797 20.8174 1.74976 14.0632 1.74976C7.30895 1.74976 1.81055 6.45797 1.81055 12.248C1.81055 15.4323 3.53203 18.4284 6.53758 20.4697C6.93737 20.7425 7.48298 20.6391 7.75108 20.2393C8.02388 19.8395 7.92041 19.2939 7.52061 19.0258C5.00423 17.3184 3.56025 14.849 3.56025 12.2527C3.56025 7.42689 8.26847 3.50417 14.0585 3.50417C19.8485 3.50417 24.5567 7.4316 24.5567 12.2527C24.5567 17.0738 19.8485 21.0012 14.0585 21.0012C14.002 21.0012 13.9597 21.02 13.908 21.0342C13.4941 20.9589 13.0755 21.1753 12.9296 21.5845C12.7603 22.0595 11.6597 22.8591 10.3568 23.6023C10.8319 22.0125 10.6061 21.6691 10.4509 21.4434C10.2675 21.1706 9.96173 21.0059 9.63249 21.0059C9.14802 21.0059 8.75763 21.3963 8.75763 21.8808C8.75763 22.0407 8.79996 22.1865 8.87522 22.3182C8.78585 22.8168 8.40487 23.9833 7.97215 25.0462C7.83574 25.3755 7.9157 25.7565 8.1744 26.0058C8.33902 26.1657 8.56009 26.2503 8.78115 26.2503C8.89874 26.2503 9.02103 26.2268 9.13862 26.1751C10.1358 25.7283 13.1742 24.2843 14.2701 22.7415C20.9256 22.6428 26.3111 17.9816 26.3111 12.248Z" fill="var(--fill-0, #F7F7F7)"/>
</g>
</svg>
