<svg width="48" height="32" viewBox="0 0 48 32" fill="none" xmlns="http://www.w3.org/2000/svg">
<rect width="48" height="32" rx="16" fill="white"/>
<path d="M29.5625 15.182H18.4376C18.0014 15.182 17.6196 15.5638 17.6196 16C17.6196 16.4363 18.0014 16.818 18.4376 16.818H29.5625C29.9988 16.818 30.3805 16.4363 30.3805 16C30.3805 15.5638 29.9987 15.182 29.5625 15.182Z" fill="#121212"/>
<path d="M29.5625 19.9264H18.4376C18.0014 19.9264 17.6196 20.3082 17.6196 20.7444C17.6196 21.1806 18.0014 21.5624 18.4376 21.5624H29.5625C29.9988 21.5624 30.3805 21.1806 30.3805 20.7444C30.3805 20.3082 29.9987 19.9264 29.5625 19.9264Z" fill="#121212"/>
<path d="M18.4376 12.0736H29.5625C29.9988 12.0736 30.3805 11.6918 30.3805 11.2556C30.3805 10.8193 29.9987 10.4376 29.5625 10.4376H18.4376C18.0014 10.4376 17.6196 10.8193 17.6196 11.2556C17.6196 11.6918 18.0014 12.0736 18.4376 12.0736Z" fill="#121212"/>
</svg>
