<svg preserveAspectRatio="none" width="100%" height="100%" overflow="visible" style="display: block;" viewBox="0 0 28 28" fill="none" xmlns="http://www.w3.org/2000/svg">
<g id="Frame">
<path id="Vector" d="M14.9852 6.85297H15.0029C15.1225 6.85465 15.2411 6.83183 15.3515 6.7859C15.4619 6.73998 15.5618 6.67192 15.6449 6.58593L16.7862 5.49828C17.1609 5.1413 17.1609 4.553 16.8041 4.17839C16.4471 3.8037 15.8589 3.8037 15.4842 4.16068L14.3428 5.24866C14.254 5.33433 14.1831 5.43674 14.1341 5.54999C14.0851 5.66323 14.0591 5.78506 14.0574 5.90843C14.0558 6.03069 14.0786 6.15204 14.1246 6.26535C14.1705 6.37865 14.2387 6.48163 14.325 6.56821C14.4108 6.65696 14.5133 6.72782 14.6266 6.77669C14.7399 6.82557 14.8618 6.8515 14.9852 6.85297ZM9.66863 5.95339C9.79094 5.95524 9.91237 5.93251 10.0257 5.88654C10.1391 5.84056 10.242 5.77229 10.3285 5.68577C10.415 5.59925 10.4832 5.49624 10.529 5.38285C10.5749 5.26947 10.5976 5.14803 10.5956 5.02572V3.43894C10.599 3.27406 10.5583 3.11129 10.4777 2.96738C10.3972 2.82347 10.2798 2.70363 10.1375 2.62021C9.99526 2.53686 9.83335 2.49292 9.66847 2.49292C9.50359 2.49292 9.34168 2.53686 9.19942 2.62021C9.05715 2.70362 8.9397 2.82346 8.85915 2.96737C8.77861 3.11128 8.73789 3.27406 8.74119 3.43894V5.02605C8.72314 5.52548 9.15113 5.9535 9.66863 5.9535V5.95339ZM6.34309 7.8972C6.42941 7.81062 6.49753 7.70764 6.54344 7.59433C6.58936 7.48102 6.61213 7.35967 6.61043 7.23742C6.60888 7.11404 6.58286 6.99219 6.53387 6.87894C6.48489 6.76568 6.4139 6.66328 6.32504 6.57767L5.18355 5.48958C5.09703 5.40319 4.99409 5.33499 4.88079 5.28902C4.76749 5.24305 4.64614 5.22023 4.52388 5.22191C4.40044 5.22348 4.27853 5.24953 4.16523 5.29853C4.05192 5.34754 3.94946 5.41853 3.86377 5.50741C3.77744 5.59405 3.70931 5.69708 3.6634 5.81045C3.61749 5.92381 3.59472 6.04522 3.59643 6.16752C3.59803 6.29085 3.62404 6.41264 3.67296 6.52587C3.72189 6.63909 3.79277 6.7415 3.88149 6.82718L5.0229 7.91557C5.10703 8.00034 5.2071 8.06764 5.31735 8.11357C5.42759 8.15951 5.54583 8.18319 5.66526 8.18324C5.79175 8.18408 5.91707 8.15914 6.03361 8.10997C6.15014 8.06079 6.25544 7.9884 6.34309 7.8972ZM5.04956 11.8366C5.04939 11.7143 5.02474 11.5933 4.97709 11.4808C4.92943 11.3682 4.85973 11.2663 4.77208 11.181C4.68374 11.0949 4.57918 11.0271 4.46446 10.9817C4.34974 10.9362 4.22714 10.914 4.10377 10.9163L2.52721 10.9541C2.40494 10.9542 2.28393 10.9787 2.17131 11.0263C2.05869 11.0739 1.95674 11.1436 1.87148 11.2312C1.7853 11.3196 1.71752 11.4243 1.67205 11.539C1.62658 11.6538 1.60434 11.7765 1.6066 11.8999C1.60681 12.0222 1.63149 12.1432 1.67919 12.2559C1.72689 12.3685 1.79664 12.4704 1.88433 12.5557C1.97267 12.6418 2.07719 12.7095 2.19185 12.755C2.30651 12.8004 2.42904 12.8227 2.55237 12.8206L4.12906 12.7831C4.24849 12.7835 4.36683 12.7604 4.47727 12.7149C4.5877 12.6694 4.68806 12.6026 4.77254 12.5182C4.86256 12.4293 4.93355 12.323 4.98117 12.2059C5.0288 12.0887 5.05207 11.963 5.04956 11.8366ZM6.35055 15.6912C6.27205 15.5975 6.17558 15.5204 6.06684 15.4645C5.95809 15.4086 5.83926 15.3751 5.71735 15.3658C5.59432 15.3563 5.47063 15.3713 5.35345 15.41C5.23626 15.4486 5.12791 15.5102 5.03469 15.591L3.84876 16.6305C3.75496 16.709 3.67782 16.8054 3.62189 16.9141C3.56596 17.0228 3.53237 17.1417 3.5231 17.2636C3.51361 17.3867 3.52864 17.5104 3.5673 17.6277C3.60597 17.7449 3.66751 17.8533 3.74836 17.9466C3.82692 18.0403 3.92344 18.1174 4.03224 18.1733C4.14104 18.2292 4.25992 18.2627 4.38188 18.272C4.50486 18.2814 4.6285 18.2664 4.74564 18.2278C4.86279 18.1892 4.97113 18.1278 5.06441 18.0471L6.25061 17.0077C6.34257 16.9315 6.41855 16.8379 6.47417 16.7322C6.5298 16.6265 6.56397 16.5109 6.57472 16.3919C6.58689 16.266 6.57329 16.139 6.53475 16.0185C6.49621 15.898 6.43354 15.7866 6.35055 15.6912Z" fill="var(--fill-0, #121212)"/>
<path id="Vector_2" d="M27.173 18.3133C27.173 15.682 25.3839 13.4694 22.9561 12.8238C22.1232 9.92424 19.4514 7.80264 16.2839 7.80264C15.8675 7.80264 15.4592 7.83928 15.0627 7.9101C14.0507 6.92135 12.6661 6.31213 11.1397 6.31213C8.0384 6.31213 5.52441 8.82612 5.52441 11.9272C5.52441 13.7431 6.38629 15.3577 7.72367 16.3842C7.61949 16.4706 7.51941 16.5619 7.42398 16.6576C6.64742 17.4353 6.16754 18.5088 6.16754 19.6944C6.16754 22.0687 8.09227 23.9934 10.4668 23.9934H21.7636L21.7617 23.9869C24.7739 23.8466 27.173 21.3602 27.173 18.3133ZM7.27441 11.9272C7.27441 9.796 9.00828 8.06213 11.1395 8.06213C11.8463 8.06213 12.5091 8.25272 13.0795 8.58522C12.954 8.65057 12.8307 8.71975 12.7098 8.79249C10.6921 10.0065 9.34242 12.2176 9.34242 14.7441C9.34242 14.9528 9.35199 15.1592 9.37031 15.3632C8.12645 14.7203 7.27441 13.4215 7.27441 11.9272ZM21.687 22.2374C21.6148 22.2415 21.5421 22.2434 21.4688 22.2434H10.4668C9.06105 22.2434 7.91754 21.0999 7.91754 19.6944C7.91754 18.7224 8.46605 17.8534 9.3025 17.4249C9.38234 17.3839 9.46492 17.347 9.54969 17.3144C9.6391 17.28 9.73098 17.2505 9.82531 17.2261L11.2967 16.8458L11.1775 15.7919L11.1701 15.7255L11.1261 15.3356C11.1039 15.1373 11.0924 14.9385 11.0924 14.7441C11.0924 12.7486 12.2242 11.0123 13.8798 10.1435C14.4059 9.8673 14.9757 9.68422 15.5642 9.60241C15.7849 9.57158 16.0073 9.55514 16.23 9.55319C16.2478 9.55264 16.2659 9.55264 16.2839 9.55264C17.4337 9.55264 18.5225 9.92042 19.4325 10.616C20.1284 11.1481 20.6824 11.8544 21.0346 12.6493C18.9568 12.8063 17.1912 14.0813 16.3375 15.874C16.0621 16.4526 16.4906 17.1203 17.1313 17.1203C17.3011 17.1203 17.4624 17.0711 17.5997 16.9836C17.737 16.8961 17.8502 16.7703 17.9237 16.6174C18.5696 15.2721 19.9586 14.349 21.5561 14.3837C23.6459 14.4294 25.3464 16.1253 25.3979 18.2151C25.4501 20.3531 23.7854 22.1223 21.687 22.2374Z" fill="var(--fill-0, #121212)"/>
</g>
</svg>
