<svg preserveAspectRatio="none" width="100%" height="100%" overflow="visible" style="display: block;" viewBox="0 0 28 28" fill="none" xmlns="http://www.w3.org/2000/svg">
<g id="Frame">
<path id="Vector" d="M15.1102 19.9773H6.14961C3.78437 19.9773 1.85938 18.0523 1.85938 15.6844V6.72383C1.85938 4.35859 3.78437 2.43359 6.14961 2.43359H15.1102C17.4754 2.43359 19.4004 4.35859 19.4004 6.72383V8.76914C19.4004 9.2832 18.9848 9.69883 18.4707 9.69883C17.9566 9.69883 17.541 9.2832 17.541 8.76914V6.72383C17.541 5.38398 16.45 4.29297 15.1102 4.29297H6.14961C4.80977 4.29297 3.71875 5.38398 3.71875 6.72383V15.6844C3.71875 17.0242 4.80977 18.1152 6.14961 18.1152H15.1102C16.45 18.1152 17.541 17.0242 17.541 15.6844V13.1688C17.541 12.6547 17.9566 12.2391 18.4707 12.2391C18.9848 12.2391 19.4004 12.6547 19.4004 13.1688V15.6844C19.4031 18.0523 17.4781 19.9773 15.1102 19.9773Z" fill="var(--fill-0, #121212)"/>
<path id="Vector_2" d="M21.8336 25.5773H12.8703C10.5051 25.5773 8.58008 23.6523 8.58008 21.2871V19.116C8.58008 18.6019 8.9957 18.1863 9.50977 18.1863C10.0238 18.1863 10.4395 18.6019 10.4395 19.116V21.2871C10.4395 22.6269 11.5305 23.7179 12.8703 23.7179H21.8309C23.1707 23.7179 24.2617 22.6269 24.2617 21.2871V12.3238C24.2617 10.984 23.1707 9.89294 21.8309 9.89294H12.8703C11.5305 9.89294 10.4395 10.984 10.4395 12.3238V14.834C10.4395 15.348 10.0238 15.7636 9.50977 15.7636C8.9957 15.7636 8.58008 15.348 8.58008 14.834V12.3238C8.58008 9.95857 10.5051 8.03357 12.8703 8.03357H21.8309C24.1961 8.03357 26.1211 9.95857 26.1211 12.3238V21.2844C26.1238 23.6523 24.1988 25.5773 21.8336 25.5773Z" fill="var(--fill-0, #121212)"/>
</g>
</svg>
