<svg preserveAspectRatio="none" width="100%" height="100%" overflow="visible" style="display: block;" viewBox="0 0 28 28" fill="none" xmlns="http://www.w3.org/2000/svg">
<g id="Frame">
<path id="Vector" d="M17.834 15.1598V16.9098H16.084C15.8519 16.9098 15.6294 17.0019 15.4653 17.166C15.3012 17.3301 15.209 17.5527 15.209 17.7848C15.209 18.0168 15.3012 18.2394 15.4653 18.4035C15.6294 18.5676 15.8519 18.6598 16.084 18.6598H17.834V20.4098C17.834 20.6418 17.9262 20.8644 18.0903 21.0285C18.2544 21.1926 18.4769 21.2848 18.709 21.2848C18.9411 21.2848 19.1636 21.1926 19.3277 21.0285C19.4918 20.8644 19.584 20.6418 19.584 20.4098V18.6598H21.334C21.5661 18.6598 21.7886 18.5676 21.9527 18.4035C22.1168 18.2394 22.209 18.0168 22.209 17.7848C22.209 17.5527 22.1168 17.3301 21.9527 17.166C21.7886 17.0019 21.5661 16.9098 21.334 16.9098H19.584V15.1598C19.584 14.9277 19.4918 14.7051 19.3277 14.541C19.1636 14.3769 18.9411 14.2848 18.709 14.2848C18.4769 14.2848 18.2544 14.3769 18.0903 14.541C17.9262 14.7051 17.834 14.9277 17.834 15.1598Z" fill="var(--fill-0, #121212)"/>
<path id="Vector_2" d="M18.6432 9.32695L11.1699 11.1932L11.5613 20.5704L11.7937 20.8105C14.2101 23.2887 17.3598 26.2425 18.6449 26.2425C19.925 26.2425 23.1481 23.2928 25.6278 20.8191L25.8688 20.5772L26.2482 11.1898L18.6432 9.32695ZM24.1496 19.821C21.9434 21.9974 19.2875 24.4985 18.7116 24.4985C18.0523 24.4985 15.4219 21.9974 13.2804 19.827L12.9779 12.545L18.6466 11.13L24.4435 12.5484L24.1496 19.821Z" fill="var(--fill-0, #121212)"/>
<path id="Vector_3" d="M9.84088 21.3555L9.82174 20.8966C8.52154 20.5355 7.31963 19.8856 6.30561 18.9953C6.7818 18.5805 7.30762 18.2328 7.85673 17.9238C8.38225 18.7899 9.05794 19.5392 9.79387 20.2289L9.69924 17.9566C9.53356 17.7369 9.34697 17.534 9.20076 17.2998C9.3517 17.2452 9.51191 17.2151 9.66656 17.1702L9.60247 15.6326C9.2327 15.7306 8.86268 15.8289 8.50927 15.9671C8.11899 15.046 7.88506 14.049 7.80314 13.0074H9.4932L9.45219 12.0209L9.43083 11.5074H7.80311C7.88514 10.4657 8.11896 9.46865 8.50924 8.54774C9.46694 8.92162 10.476 9.14731 11.5018 9.21703V9.34926L17.3392 7.89184C17.3348 7.88181 17.3332 7.8706 17.3289 7.86054C17.9892 7.47732 18.6068 7.02477 19.1712 6.51055C19.5341 6.94687 19.839 7.42828 20.1145 7.92827L21.997 8.38906C21.9102 8.17086 21.8213 7.95359 21.7208 7.74263C21.7035 7.70643 21.6863 7.67022 21.6686 7.63421C21.5452 7.38265 21.4121 7.13706 21.2691 6.89743C21.242 6.85182 21.2144 6.80676 21.1865 6.76156C21.0473 6.53512 20.8998 6.31455 20.7442 6.09984C20.7044 6.04494 20.6635 5.99121 20.6226 5.93718C20.4713 5.73647 20.3132 5.54137 20.1483 5.35186C20.0942 5.28979 20.0379 5.22977 19.9822 5.16901C19.8222 4.99414 19.6579 4.82357 19.4865 4.65995C19.4152 4.59192 19.3409 4.52698 19.2678 4.46108C19.103 4.3123 18.9355 4.1665 18.7615 4.02828C18.6712 3.95672 18.577 3.88965 18.4843 3.82107C18.3179 3.6977 18.1507 3.57561 17.9769 3.46207C17.8659 3.38967 17.7506 3.32366 17.6367 3.25538C17.4716 3.15615 17.3068 3.05659 17.1359 2.96636C17.0044 2.89715 16.8684 2.83626 16.7338 2.77249C16.571 2.69527 16.4094 2.61589 16.2421 2.54691C16.0897 2.48421 15.9322 2.43206 15.7762 2.37645C15.6188 2.32014 15.4634 2.25969 15.3025 2.21088C15.1252 2.15715 14.9425 2.11624 14.7613 2.0717C14.6144 2.0355 14.47 1.9932 14.3207 1.96328C14.1076 1.92065 13.8893 1.89375 13.6717 1.86427C13.548 1.84751 13.4267 1.82282 13.3016 1.81032C12.9723 1.77764 12.6388 1.76076 12.3009 1.75968C12.2845 1.75968 12.2685 1.75733 12.2521 1.75733C12.2356 1.75733 12.2197 1.75957 12.2032 1.75968C11.8657 1.76117 11.5321 1.77805 11.2025 1.81032C11.0771 1.82282 10.9556 1.84759 10.8315 1.86446C10.6144 1.89394 10.3961 1.92076 10.1835 1.96325C10.0333 1.99333 9.88816 2.03599 9.74031 2.0723C9.56011 2.11663 9.37833 2.1572 9.20188 2.21074C9.04039 2.25977 8.88445 2.32045 8.72646 2.37694C8.57095 2.43247 8.41381 2.4844 8.26194 2.54688C8.09435 2.61598 7.93242 2.69557 7.76932 2.77301C7.63517 2.83645 7.49941 2.89712 7.36857 2.96603C7.19682 3.0567 7.03103 3.15681 6.86517 3.25656C6.75227 3.32429 6.63778 3.38975 6.52775 3.46164C6.3531 3.57571 6.18499 3.69843 6.01784 3.82257C5.92599 3.89061 5.83283 3.95694 5.74334 4.02765C5.56869 4.16629 5.40069 4.31263 5.23534 4.46195C5.1625 4.52758 5.0887 4.59216 5.01766 4.65976C4.84621 4.82349 4.68174 4.99409 4.52173 5.16904C4.46608 5.22982 4.40978 5.28984 4.35553 5.35191C4.1905 5.54097 4.03246 5.73607 3.88139 5.93723C3.84037 5.99129 3.79958 6.04499 3.75974 6.0999C3.60433 6.31447 3.4569 6.53505 3.31743 6.76162C3.28957 6.8067 3.26204 6.852 3.23485 6.89749C3.09228 7.13718 2.95903 7.38281 2.83511 7.63438C2.81739 7.67036 2.80019 7.70659 2.78288 7.74279C2.6571 8.00661 2.54116 8.276 2.43745 8.55135C2.42763 8.57708 2.41855 8.60316 2.40904 8.629C2.30352 8.91568 2.20918 9.20771 2.12855 9.50562C2.12417 9.52175 2.12034 9.53843 2.11605 9.55454C2.03457 9.86171 1.96544 10.1739 1.91171 10.4915C1.91032 10.5001 1.90914 10.5086 1.90775 10.5171C1.85361 10.8421 1.81344 11.1718 1.78973 11.5061C1.77201 11.7552 1.7518 12.0038 1.7518 12.2573C1.7518 12.5106 1.77209 12.7587 1.78973 13.0075C1.81356 13.3429 1.853 13.6738 1.90807 14.0001C1.90936 14.0074 1.91021 14.0149 1.91149 14.0223C1.96544 14.3406 2.03454 14.6539 2.11635 14.9618C2.1204 14.9773 2.12425 14.993 2.12841 15.0085C2.20916 15.3071 2.30379 15.5999 2.40964 15.8873C2.41883 15.9123 2.42769 15.9374 2.43698 15.9623C2.54125 16.2387 2.65754 16.5092 2.78381 16.7741C2.80038 16.8091 2.81719 16.844 2.83423 16.8788C2.95792 17.1312 3.0915 17.3775 3.23498 17.6179C3.2618 17.6628 3.289 17.7076 3.31658 17.7522C3.45629 17.9795 3.60425 18.2009 3.76048 18.4164C3.79947 18.4701 3.83964 18.5228 3.87956 18.5756C4.03133 18.7771 4.18985 18.9728 4.35509 19.1628C4.40956 19.2252 4.46619 19.2855 4.52203 19.3464C4.68171 19.5207 4.84567 19.6911 5.01657 19.8543C5.08823 19.9227 5.16258 19.9876 5.23605 20.0539C5.40096 20.2028 5.56855 20.3487 5.74276 20.487C5.83259 20.5581 5.92596 20.6247 6.01811 20.693C6.18491 20.8167 6.35275 20.9391 6.52695 21.053C6.63761 21.1252 6.75265 21.1909 6.86618 21.2591C7.03153 21.3584 7.19655 21.4581 7.36766 21.5485C7.49957 21.6181 7.63618 21.679 7.77142 21.743C7.93357 21.8199 8.09432 21.8989 8.26087 21.9676C8.41479 22.031 8.57371 22.0836 8.73119 22.1397C8.88705 22.1954 9.04094 22.2553 9.2003 22.3038C9.37866 22.3579 9.56238 22.399 9.7446 22.4438C9.89073 22.4797 10.0344 22.5218 10.1831 22.5516C10.3958 22.5941 10.6139 22.6209 10.8311 22.6504C10.9407 22.6653 11.0489 22.6849 11.159 22.6982C10.9552 22.4931 10.7576 22.2963 10.542 22.0752L9.84088 21.3555ZM18.1849 5.50741H18.1217C17.6667 5.9054 17.1672 6.24441 16.6451 6.54615C15.8957 5.32133 14.9184 4.25165 13.766 3.39511C15.4065 3.67509 16.9367 4.40653 18.1849 5.50741ZM13.0017 4.67409C13.9027 5.37466 14.6736 6.22798 15.2795 7.19518C14.559 7.46274 13.7915 7.61121 13.0017 7.6831V4.67409ZM11.5018 4.68177V7.6915C10.7034 7.6274 9.92953 7.47873 9.20076 7.21489C9.81245 6.24148 10.5915 5.3839 11.5018 4.68177ZM10.7977 3.38581C9.61755 4.25203 8.6184 5.34091 7.85662 6.59102C7.30751 6.28171 6.78147 5.93414 6.30541 5.51939C7.57148 4.39849 9.12892 3.65879 10.7977 3.38581ZM5.29432 6.5561C5.86949 7.07346 6.49901 7.52699 7.17186 7.90877C6.68021 9.05007 6.38795 10.2672 6.30779 11.5073H3.28981C3.43873 9.69144 4.13802 7.96417 5.29432 6.5561ZM5.29432 17.9584C4.13806 16.5504 3.43878 14.8232 3.28981 13.0074H6.30777C6.38789 14.2475 6.68015 15.4646 7.17183 16.6059C6.49905 16.9877 5.86958 17.4412 5.29443 17.9586L5.29432 17.9584Z" fill="var(--fill-0, #121212)"/>
</g>
</svg>
