<svg preserveAspectRatio="none" width="100%" height="100%" overflow="visible" style="display: block;" viewBox="0 0 16 16" fill="none" xmlns="http://www.w3.org/2000/svg">
<g id="Frame" clip-path="url(#clip0_281_128)">
<path id="Vector" d="M13.6 5.86667C13.4222 5.77778 13.1556 5.68889 12.8889 5.6C12.9778 5.15556 12.9778 4.8 13.0667 4.44444C13.0667 4.17778 12.8889 4 12.6222 4C12.5333 4 12.3556 4 12.2667 4.08889C12.1778 4.17778 12.0889 4.26667 12.0889 4.44444C12.0889 4.71111 12 5.06667 12 5.33333C11.3778 5.15556 10.6667 5.06667 9.95556 4.97778C9.51111 4.44444 8.97778 3.91111 8.53333 3.46667C8.8 3.28889 8.97778 3.02222 9.24444 2.84444C9.42222 2.66667 9.51111 2.4 9.33333 2.22222C9.15556 1.95556 8.88889 1.86667 8.71111 2.04444C8.44444 2.22222 8.08889 2.48889 7.82222 2.75556C6.66667 1.86667 5.6 1.42222 4.71111 1.42222C4.26667 1.42222 3.91111 1.51111 3.55556 1.77778C2.66667 2.31111 2.4 3.64444 2.66667 5.33333C2.66667 5.42222 2.66667 5.51111 2.75556 5.6C2.66667 5.6 2.57778 5.68889 2.4 5.68889C0.888889 6.31111 0 7.28889 0 8.26667C0 9.33333 0.888889 10.3111 2.4 11.0222C2.57778 11.1111 2.84444 11.2 3.11111 11.2889C3.11111 11.5556 3.02222 11.7333 3.02222 12C2.84444 13.6889 3.28889 14.9333 4.17778 15.4667C4.44444 15.6444 4.8 15.7333 5.15556 15.7333C5.95556 15.7333 6.84444 15.3778 7.73333 14.5778C7.91111 14.4 8.08889 14.3111 8.26667 14.1333C9.42222 15.0222 10.4889 15.4667 11.2889 15.4667C11.7333 15.4667 12.0889 15.3778 12.4444 15.1111C13.3333 14.5778 13.6 13.2444 13.3333 11.5556C13.3333 11.4667 13.3333 11.3778 13.2444 11.2889C13.3333 11.2 13.5111 11.2 13.6 11.1111C15.1111 10.4889 16 9.6 16 8.53333C16 7.55556 15.1111 6.57778 13.6 5.86667ZM11.8222 6.22222C11.7333 6.57778 11.6444 6.84444 11.5556 7.2C11.3778 6.93333 11.2 6.66667 11.1111 6.4C11.0222 6.22222 10.9333 6.13333 10.8444 5.95556C11.1111 6.04444 11.4667 6.13333 11.8222 6.22222ZM11.6444 9.33333L12.1778 10.6667C11.7333 10.7556 11.2889 10.8444 10.7556 10.9333C10.9333 10.6667 11.1111 10.4 11.2 10.1333C11.3778 9.86667 11.4667 9.6 11.6444 9.33333ZM10.4 9.77778L9.6 11.1111C9.15556 11.1111 8.8 11.2 8.35556 11.2H8C7.55556 11.2 7.02222 11.2 6.57778 11.1111C6.31111 10.7556 6.04444 10.4 5.77778 9.95556L4.97778 8.62222C5.15556 8.08889 5.33333 7.55556 5.6 7.11111L6.4 5.77778C6.84444 5.77778 7.2 5.68889 7.64444 5.68889H8C8.44444 5.68889 8.97778 5.68889 9.42222 5.77778C9.68889 6.13333 9.95556 6.48889 10.2222 6.93333L11.0222 8.26667C10.8444 8.8 10.6667 9.24444 10.4 9.77778ZM8.17778 12.8L7.37778 12H8.8C8.62222 12.3556 8.44444 12.6222 8.17778 12.8ZM5.24444 10.8444L4.17778 10.5778C4.26667 10.2222 4.35556 9.95556 4.44444 9.6C4.62222 9.86667 4.8 10.1333 4.88889 10.4C5.06667 10.5778 5.15556 10.7556 5.24444 10.8444ZM4.35556 7.46667L3.82222 6.13333C4.26667 6.04444 4.71111 5.95556 5.24444 5.86667C5.15556 6.13333 4.97778 6.4 4.8 6.66667C4.62222 6.93333 4.53333 7.2 4.35556 7.46667ZM8.08889 4.8H7.2C7.37778 4.53333 7.64444 4.26667 7.82222 4L8.62222 4.8H8.08889ZM3.64444 5.15556C3.37778 3.82222 3.55556 2.84444 4.08889 2.48889C4.26667 2.4 4.44444 2.31111 4.71111 2.31111C5.33333 2.31111 6.22222 2.75556 7.11111 3.46667C6.66667 3.91111 6.31111 4.35556 5.95556 4.88889C5.15556 4.97778 4.35556 5.06667 3.64444 5.24444V5.15556ZM2.84444 10.1333C1.6 9.6 0.888889 8.88889 0.888889 8.26667C0.888889 7.64444 1.6 7.02222 2.75556 6.48889C2.84444 6.48889 2.93333 6.4 3.02222 6.4C3.2 7.11111 3.55556 7.82222 3.91111 8.62222C3.64444 9.24444 3.46667 9.77778 3.28889 10.4C3.11111 10.3111 2.93333 10.2222 2.84444 10.1333ZM4.62222 14.6667C4.08889 14.4 3.82222 13.4222 3.91111 12.0889C3.91111 11.9111 3.91111 11.7333 4 11.5556C4.62222 11.7333 5.33333 11.8222 6.04444 12C6.48889 12.5333 7.02222 13.0667 7.46667 13.5111C7.28889 13.6 7.2 13.7778 7.02222 13.8667C6.04444 14.6667 5.15556 14.9333 4.62222 14.6667ZM12.3556 11.7333C12.6222 13.0667 12.4444 13.9556 11.9111 14.3111C11.7333 14.4 11.5556 14.4889 11.2889 14.4889C10.6667 14.4889 9.77778 14.1333 8.88889 13.4222C9.33333 12.9778 9.68889 12.5333 10.0444 12C10.8444 11.9111 11.6444 11.8222 12.3556 11.5556V11.7333ZM13.2444 10.3111C13.1556 10.3111 13.0667 10.4 12.9778 10.4C12.8 9.68889 12.4444 8.97778 12.0889 8.26667C12.3556 7.64444 12.5333 7.11111 12.7111 6.48889C12.8889 6.57778 13.0667 6.57778 13.2444 6.66667C14.4 7.2 15.1111 7.91111 15.1111 8.53333C15.1111 9.15556 14.4 9.77778 13.2444 10.3111Z" fill="var(--fill-0, #121212)"/>
<path id="Vector_2" d="M11.4663 3.91112C11.9107 3.91112 12.444 3.73334 12.7107 3.37778C13.0663 3.02223 13.244 2.57778 13.244 2.13334C13.244 1.68889 13.0663 1.15556 12.7107 0.888894C12.3551 0.533338 11.9107 0.35556 11.4663 0.35556C11.0218 0.35556 10.4885 0.533338 10.2218 0.888894C9.86625 1.24445 9.68848 1.68889 9.68848 2.13334C9.68848 2.57778 9.86625 3.11112 10.2218 3.37778C10.4885 3.73334 11.0218 3.91112 11.4663 3.91112Z" fill="var(--fill-0, #121212)"/>
</g>
<defs>
<clipPath id="clip0_281_128">
<rect width="16" height="16" fill="white"/>
</clipPath>
</defs>
</svg>
