<svg preserveAspectRatio="none" width="100%" height="100%" overflow="visible" style="display: block;" viewBox="0 0 28 28" fill="none" xmlns="http://www.w3.org/2000/svg">
<g id="Frame">
<path id="Vector" d="M22.8142 6.4339L16.0136 2.54318C14.7485 1.81894 13.238 1.81894 11.9729 2.54318L5.18357 6.4339C3.84416 7.19798 3.00675 8.66052 3 10.2543V17.7521C3.009 19.3412 3.84641 20.8014 5.18357 21.5655L11.9841 25.4562C12.6167 25.8195 13.31 26 14.0056 26C14.699 26 15.3946 25.8195 16.0271 25.4562L22.8187 21.5655C24.1558 20.8014 24.9932 19.3412 25 17.7475V10.2473C24.991 8.65817 24.1536 7.19564 22.8142 6.4339ZM12.7473 4.0104C13.1367 3.78774 13.5644 3.67524 13.9921 3.67524C14.4198 3.67524 14.8475 3.78774 15.237 4.0104L22.0398 7.90112C22.2019 7.99253 22.3505 8.10034 22.4855 8.22457L13.9989 13.0458L5.50998 8.22457C5.64504 8.10269 5.79587 7.99487 5.95795 7.90112L12.7473 4.0104ZM5.95569 20.0959C5.12954 19.6248 4.61404 18.7225 4.60954 17.7475V10.2566C4.60954 10.0527 4.6343 9.85351 4.67707 9.65898L13.1952 14.4966V24.1859C13.0467 24.1343 12.9003 24.0687 12.7585 23.989L5.95569 20.0959ZM23.3882 17.7428C23.3837 18.7225 22.866 19.6248 22.0421 20.0959L15.2482 23.9867C15.1042 24.0687 14.9556 24.1367 14.8025 24.1882V14.4966L23.3207 9.65898C23.3634 9.85117 23.386 10.0504 23.3882 10.252V17.7428Z" fill="var(--fill-0, #F7F7F7)"/>
</g>
</svg>
