<svg width="131" height="56" viewBox="0 0 131 56" fill="none" xmlns="http://www.w3.org/2000/svg">
<rect width="131" height="56" fill="white"/>
<path d="M16.3341 35.3135C15.2518 35.049 15.1745 35.7834 14.593 36.4632C12.3467 39.0872 9.72798 40.7987 6.38735 38.5484C3.13384 36.3561 3.099 32.5015 5.58595 29.6742C7.78327 27.177 10.1102 24.8514 13.5314 27.0284C13.8003 27.1989 14.4591 27.8437 14.728 27.7562C15.0198 27.6622 15.3312 26.1792 15.3008 25.8513C15.2039 24.7923 13.3397 23.9563 12.4447 23.6929C9.86953 22.9344 7.73318 23.6885 5.83748 25.4645C2.05587 29.0098 -0.912364 33.2775 2.49359 38.4053C5.9921 43.6751 12.1398 43.509 16.161 38.9375C16.5736 38.4676 17.8171 36.9834 17.8378 36.4173C17.8541 35.9692 16.7195 35.4086 16.333 35.3135H16.3341Z" fill="#0C6DA4"/>
<path d="M18.2736 14.0604C15.938 14.8549 12.7868 18.4461 11.0806 20.339C10.9608 20.4712 10.2694 21.2144 10.3728 21.3138C11.2352 21.3247 12.0867 21.4592 12.9284 21.6362C13.2496 21.704 13.8441 21.9903 14.1305 21.9018C15.4992 20.3258 16.8951 17.9128 18.8627 17.0505C23.4086 15.0593 27.9024 20.6646 25.8923 24.9302C25.4644 25.8372 24.6434 26.5596 23.9803 27.2919C23.9335 27.4722 24.3527 28.0011 24.4572 28.2121C24.565 28.4285 24.9341 29.3793 25.0626 29.4033C25.2706 29.4427 26.9888 27.8809 27.2207 27.6143C32.5997 21.446 25.9239 11.4571 18.2747 14.0604H18.2736Z" fill="#32925A"/>
<path d="M22.177 21.8745C21.9462 21.7488 21.1143 21.4876 21.0719 21.4461C20.8846 21.2636 21.0327 20.5117 20.9782 20.2276C20.8846 19.739 19.6542 19.7511 19.3057 19.9707C18.9279 20.209 19.272 21.1478 19.1511 21.3893C19.0542 21.5816 18.5544 21.6155 18.3443 21.7062C15.952 22.727 15.6722 25.8603 17.5821 27.5356C18.5577 28.3925 20.5851 28.881 21.1611 29.9433C21.5901 30.7345 21.2744 31.7574 20.4806 32.1738C19.223 32.835 17.9806 32.3017 17.1378 31.281C16.9777 31.0864 16.8122 30.5913 16.5324 30.6154C16.4529 30.6219 15.3183 31.4503 15.2497 31.5345C15.0309 31.8012 15.3325 32.152 15.4947 32.4055C15.9226 33.0776 16.589 33.7104 17.3425 34C17.5548 34.0809 18.2223 34.1902 18.2735 34.2274C18.4902 34.3825 18.2593 35.8361 18.4139 36.2186C18.5261 36.4951 19.8708 36.588 20.0886 36.2787C20.302 35.976 20.0451 34.7836 20.1942 34.3607C20.2715 34.2044 20.7985 34.1509 21.0185 34.0634C23.2899 33.1498 24.1697 30.3301 22.5462 28.4023C21.6185 27.2996 20.4926 27.0602 19.3591 26.3521C16.7654 24.7313 19.4854 22.1314 21.4628 23.7903C21.7927 24.0668 21.9223 24.5991 22.3959 24.4231C22.5331 24.3718 23.5098 23.6723 23.5588 23.5597C23.7657 23.092 22.5701 22.0898 22.176 21.8734L22.177 21.8745Z" fill="#32925A"/>
<path d="M11.6189 28.7532C11.4752 28.786 11.1899 29.0024 11.0767 29.1106C10.4299 29.7259 9.68404 30.7412 9.06339 31.4395C8.33059 32.2646 6.99674 33.1542 7.98106 34.399C9.01113 35.7017 10.1141 34.3214 10.8557 33.54C11.3369 33.034 13.0737 31.1565 13.2762 30.645C13.5985 29.8231 12.4465 28.5707 11.6189 28.7554V28.7532Z" fill="#0C6DA4"/>
<path d="M65.8857 23.8514V32.977L65.4458 32.8174C63.5675 30.1584 61.7818 27.3946 59.8327 24.7902C59.6759 24.5804 59.0324 23.6875 58.8625 23.6875H56.957V37.3485H59.1892C59.2012 37.3485 59.3525 37.1966 59.3525 37.1846V28.4415C59.3525 28.3924 59.5452 28.1924 59.6193 28.3924L65.7724 37.1573C65.8247 37.2206 65.9913 37.3485 66.049 37.3485H68.1178C68.1298 37.3485 68.2812 37.1966 68.2812 37.1846V23.6875H66.049C66.037 23.6875 65.8857 23.8394 65.8857 23.8514Z" fill="#111111"/>
<path d="M77.295 23.6099C71.9269 24.1312 69.097 30.435 72.2645 34.8251C74.048 37.2983 77.3135 38.3004 80.2045 37.3496C88.2936 34.6895 86.0647 22.7597 77.295 23.6099ZM78.8848 35.26C72.2046 36.0458 71.8159 26.5837 77.5117 25.9039C83.7683 25.1564 84.5098 34.5988 78.8848 35.26Z" fill="#111111"/>
<path d="M114.176 23.6876C114.164 23.6876 114.013 23.8395 114.013 23.8515V32.8678C113.747 32.8416 113.483 32.4186 113.315 32.2022C111.385 29.7137 109.738 26.7728 107.741 24.3553C107.528 24.0974 107.331 23.739 106.99 23.6876C106.547 23.6209 105.84 23.6876 105.357 23.6876C105.345 23.6876 105.193 23.8395 105.193 23.8515V37.1847C105.193 37.1967 105.345 37.3486 105.357 37.3486H107.426C107.438 37.3486 107.589 37.1967 107.589 37.1847V28.5509C107.589 28.5148 107.773 28.3444 107.86 28.387C109.818 31.0197 111.564 33.8383 113.533 36.4645C113.641 36.6098 114.197 37.3486 114.285 37.3486H116.136C116.623 37.3486 116.302 36.0404 116.295 35.7683C116.267 34.5913 116.401 33.4284 116.414 32.2722C116.446 29.4066 116.32 26.5498 116.3 23.6876H114.176Z" fill="#111111"/>
<path d="M124.904 29.7563L130.891 23.6875H128.006C127.555 23.6875 126.788 24.8219 126.486 25.1126C125.826 25.7476 125.071 26.329 124.409 26.9629C123.845 27.5038 123.113 28.4918 122.563 28.9355C122.414 29.0568 122.156 29.1366 121.962 29.1519V23.6875H119.676V37.3485H121.962V32.2666C121.962 32.1693 122.799 31.1377 123.05 31.2765L128.006 37.3485H131L124.904 29.7563Z" fill="#111111"/>
<path d="M48.3 23.6875H39.8613L39.9158 37.3485H42.0935C42.1055 37.3485 42.2568 37.1966 42.2568 37.1846V32.048C42.2568 32.036 42.4082 31.8841 42.4201 31.8841H47.5378C47.859 31.8841 47.6554 30.0087 47.5922 29.6983H42.4201C42.4082 29.6983 42.2568 29.5464 42.2568 29.5344V26.1465C42.2568 26.1345 42.4082 25.9825 42.4201 25.9825H48.1911C48.227 25.9825 48.3566 25.8383 48.4633 25.8733V23.8514C48.4633 23.8394 48.312 23.6875 48.3 23.6875Z" fill="#111111"/>
<path d="M95.3445 35.0581C93.8245 35.0909 92.2685 35.0515 90.7789 35.0428C90.6657 35.0417 90.2127 34.951 90.1561 34.8756C89.9394 33.7444 90.5394 23.8462 90.0048 23.6878C89.5322 23.5479 88.4346 23.7905 87.8815 23.6878C87.8107 27.8189 87.9751 31.9641 87.8858 36.0963C87.8815 36.3258 87.5951 37.3488 88.0448 37.3488H96.429C96.441 37.3488 96.5924 37.1969 96.5924 37.1848V35.0537C96.135 34.822 95.7735 35.0493 95.3445 35.0581Z" fill="#111111"/>
<path d="M99.4775 23.6875V37.3485H101.546C101.586 37.3485 101.723 37.237 101.801 37.2206L101.826 37.0786L101.546 23.6875H99.4775Z" fill="#111111"/>
<path d="M53.6348 23.6875H51.7837L51.6748 37.3485H53.6348C53.6707 37.3485 53.8003 37.2042 53.907 37.2392V23.7968C53.8003 23.8318 53.6707 23.6875 53.6348 23.6875Z" fill="#111111"/>
</svg>
