<svg width="76" height="49" viewBox="0 0 76 49" fill="none" xmlns="http://www.w3.org/2000/svg">
<path d="M26.6148 14.0794C26.4457 14.0796 26.2805 14.0287 26.1409 13.9334C26.0013 13.8381 25.8937 13.7028 25.8322 13.5453C25.7708 13.3878 25.7584 13.2154 25.7966 13.0507C25.8349 12.886 25.922 12.7368 26.0465 12.6224L37.1593 2.40729C37.3147 2.26496 37.5178 2.18615 37.7285 2.18646C37.9391 2.18677 38.142 2.26618 38.2969 2.40897L49.3454 12.6241C49.4263 12.6989 49.4917 12.7889 49.5378 12.889C49.584 12.9891 49.6099 13.0972 49.6142 13.2073C49.6185 13.3175 49.6011 13.4273 49.563 13.5307C49.5248 13.6341 49.4667 13.7289 49.3919 13.8098C49.3171 13.8907 49.227 13.9561 49.127 14.0022C49.0269 14.0483 48.9187 14.0743 48.8086 14.0786C48.6985 14.0829 48.5886 14.0655 48.4853 14.0273C48.3819 13.9892 48.287 13.9311 48.2061 13.8562L37.7253 4.16575L27.1825 13.8579C27.0279 14.0006 26.8251 14.0797 26.6148 14.0794Z" fill="white"/>
<path d="M45.3037 25.7722H30.1499C29.0705 25.7722 28.1924 24.8941 28.1924 23.8147V14.7176C28.1924 14.4951 28.2808 14.2817 28.4381 14.1244C28.5954 13.967 28.8088 13.8786 29.0313 13.8786C29.2538 13.8786 29.4672 13.967 29.6246 14.1244C29.7819 14.2817 29.8703 14.4951 29.8703 14.7176V23.8147C29.8703 23.8888 29.8998 23.96 29.9522 24.0124C30.0046 24.0649 30.0758 24.0943 30.1499 24.0943H45.3037C45.4575 24.0943 45.5834 23.9685 45.5834 23.8147V14.7176C45.5834 14.4951 45.6718 14.2817 45.8291 14.1244C45.9864 13.967 46.1998 13.8786 46.4223 13.8786C46.6448 13.8786 46.8582 13.967 47.0156 14.1244C47.1729 14.2817 47.2613 14.4951 47.2613 14.7176V23.8147C47.2613 24.8941 46.3832 25.7722 45.3037 25.7722Z" fill="white"/>
<path d="M39.7739 25.7722H35.6792C34.5998 25.7722 33.7217 24.8941 33.7217 23.8147V18.1154C33.7217 17.0359 34.5998 16.1578 35.6792 16.1578H39.7739C40.8534 16.1578 41.7315 17.0359 41.7315 18.1154V23.8141C41.731 24.3332 41.5247 24.8309 41.1577 25.198C40.7907 25.5651 40.293 25.7716 39.7739 25.7722ZM35.6792 17.8357C35.6051 17.8357 35.5339 17.8652 35.4815 17.9176C35.4291 17.9701 35.3996 18.0412 35.3996 18.1154V23.8141C35.3996 23.8883 35.4291 23.9594 35.4815 24.0119C35.5339 24.0643 35.6051 24.0938 35.6792 24.0938H39.7739C39.9277 24.0938 40.0536 23.9679 40.0536 23.8141V18.1154C40.0536 17.9616 39.9277 17.8357 39.7739 17.8357H35.6792Z" fill="white"/>
<path d="M26.2416 35.35V46H24.5466V41.305H19.1766V46H17.4966V35.35H19.1766V39.805H24.5466V35.35H26.2416ZM31.8272 46.15C31.2072 46.15 30.6522 46.045 30.1622 45.835C29.6722 45.615 29.2472 45.315 28.8872 44.935C28.5372 44.555 28.2672 44.125 28.0772 43.645C27.8872 43.155 27.7922 42.635 27.7922 42.085C27.7922 41.535 27.8872 41.015 28.0772 40.525C28.2672 40.035 28.5372 39.605 28.8872 39.235C29.2472 38.855 29.6722 38.56 30.1622 38.35C30.6622 38.13 31.2172 38.02 31.8272 38.02C32.4372 38.02 32.9872 38.13 33.4772 38.35C33.9772 38.56 34.4022 38.855 34.7522 39.235C35.1122 39.605 35.3872 40.035 35.5772 40.525C35.7672 41.015 35.8622 41.535 35.8622 42.085C35.8622 42.635 35.7672 43.155 35.5772 43.645C35.3872 44.125 35.1122 44.555 34.7522 44.935C34.4022 45.315 33.9772 45.615 33.4772 45.835C32.9872 46.045 32.4372 46.15 31.8272 46.15ZM29.4872 42.1C29.4872 42.6 29.5922 43.05 29.8022 43.45C30.0122 43.85 30.2922 44.165 30.6422 44.395C30.9922 44.625 31.3872 44.74 31.8272 44.74C32.2572 44.74 32.6472 44.625 32.9972 44.395C33.3572 44.155 33.6422 43.835 33.8522 43.435C34.0622 43.025 34.1672 42.575 34.1672 42.085C34.1672 41.585 34.0622 41.135 33.8522 40.735C33.6422 40.335 33.3572 40.02 32.9972 39.79C32.6472 39.55 32.2572 39.43 31.8272 39.43C31.3872 39.43 30.9922 39.55 30.6422 39.79C30.2922 40.03 30.0122 40.35 29.8022 40.75C29.5922 41.14 29.4872 41.59 29.4872 42.1ZM49.3257 46H47.6757V41.605C47.6757 40.875 47.5557 40.34 47.3157 40C47.0757 39.66 46.7257 39.49 46.2657 39.49C45.8057 39.49 45.3757 39.665 44.9757 40.015C44.5857 40.355 44.3107 40.8 44.1507 41.35V46H42.5007V41.605C42.5007 40.875 42.3807 40.34 42.1407 40C41.9007 39.66 41.5557 39.49 41.1057 39.49C40.6457 39.49 40.2157 39.66 39.8157 40C39.4257 40.34 39.1457 40.785 38.9757 41.335V46H37.3257V38.155H38.8257V39.73C39.1357 39.18 39.5407 38.76 40.0407 38.47C40.5507 38.17 41.1307 38.02 41.7807 38.02C42.4307 38.02 42.9407 38.19 43.3107 38.53C43.6907 38.87 43.9257 39.295 44.0157 39.805C44.3557 39.225 44.7707 38.785 45.2607 38.485C45.7607 38.175 46.3307 38.02 46.9707 38.02C47.4307 38.02 47.8157 38.105 48.1257 38.275C48.4357 38.445 48.6757 38.68 48.8457 38.98C49.0157 39.27 49.1357 39.61 49.2057 40C49.2857 40.38 49.3257 40.785 49.3257 41.215V46ZM54.782 46.15C54.172 46.15 53.617 46.045 53.117 45.835C52.627 45.615 52.202 45.32 51.842 44.95C51.482 44.57 51.202 44.14 51.002 43.66C50.812 43.17 50.717 42.65 50.717 42.1C50.717 41.36 50.887 40.685 51.227 40.075C51.567 39.455 52.042 38.96 52.652 38.59C53.262 38.21 53.977 38.02 54.797 38.02C55.617 38.02 56.322 38.21 56.912 38.59C57.512 38.96 57.977 39.45 58.307 40.06C58.637 40.67 58.802 41.325 58.802 42.025C58.802 42.145 58.797 42.26 58.787 42.37C58.777 42.47 58.767 42.555 58.757 42.625H52.472C52.502 43.085 52.627 43.49 52.847 43.84C53.077 44.18 53.367 44.45 53.717 44.65C54.067 44.84 54.442 44.935 54.842 44.935C55.282 44.935 55.697 44.825 56.087 44.605C56.487 44.385 56.757 44.095 56.897 43.735L58.307 44.14C58.137 44.52 57.877 44.865 57.527 45.175C57.187 45.475 56.782 45.715 56.312 45.895C55.842 46.065 55.332 46.15 54.782 46.15ZM52.427 41.53H57.167C57.137 41.08 57.007 40.685 56.777 40.345C56.557 39.995 56.272 39.725 55.922 39.535C55.582 39.335 55.202 39.235 54.782 39.235C54.372 39.235 53.992 39.335 53.642 39.535C53.302 39.725 53.022 39.995 52.802 40.345C52.582 40.685 52.457 41.08 52.427 41.53Z" fill="white"/>
</svg>
