<svg width="28" height="28" viewBox="0 0 28 28" fill="none" xmlns="http://www.w3.org/2000/svg">
<path d="M5.92848 6.71406C5.40821 6.71406 5.07811 7.12241 5.11847 7.52263C5.91413 15.6101 12.3027 22.0443 20.3319 22.8456C20.7302 22.8863 21.1356 22.5538 21.1356 22.0289V18.8218C21.1356 18.4342 20.8899 18.09 20.5257 17.968L17.4292 16.9291C17.2717 16.8764 17.1027 16.8687 16.9412 16.907C16.7796 16.9453 16.6318 17.028 16.5142 17.1459L16.0182 17.6446C15.7271 17.9398 15.3427 18.1233 14.9316 18.1632C14.5204 18.2031 14.1083 18.097 13.7666 17.8632C12.074 16.6978 11.089 15.7113 10.0395 14.1185C9.81549 13.7756 9.71607 13.3652 9.75808 12.9569C9.80009 12.5486 9.98097 12.1674 10.2701 11.878L10.7769 11.3667C10.8942 11.2484 10.9765 11.0995 11.0146 10.9368C11.0526 10.774 11.0448 10.6038 10.9922 10.4452L9.96058 7.32839C9.90138 7.14891 9.78752 6.99277 9.63519 6.88216C9.48286 6.77156 9.29979 6.71211 9.112 6.71226H5.93117L5.92848 6.71406ZM3.33789 7.70061C3.18271 6.12142 4.47352 4.91173 5.92848 4.91173H9.1129C9.6761 4.91149 10.2251 5.08981 10.682 5.42142C11.1389 5.75303 11.4806 6.22109 11.6586 6.75924L12.6902 9.87606C12.8482 10.3522 12.8712 10.8633 12.7568 11.3519C12.6424 11.8406 12.3951 12.2874 12.0426 12.6423L11.5447 13.1438C12.4471 14.5097 13.2607 15.33 14.7614 16.3663L15.2503 15.873C15.6026 15.5181 16.0462 15.2691 16.5312 15.1539C17.0161 15.0387 17.5234 15.0618 17.9961 15.2207L21.0917 16.2597C21.6259 16.4391 22.0904 16.7833 22.4195 17.2435C22.7486 17.7037 22.9255 18.2565 22.9252 18.8236V22.028C22.9252 23.4943 21.725 24.7952 20.1561 24.639C11.2783 23.7527 4.21787 16.6427 3.33789 7.70061Z" fill="white"/>
<path d="M16.6775 4.91173C17.498 4.91173 18.3104 5.07649 19.0684 5.39659C19.8264 5.7167 20.5151 6.18589 21.0953 6.77737C21.6754 7.36886 22.1356 8.07105 22.4496 8.84386C22.7636 9.61667 22.9252 10.445 22.9252 11.2814C22.9252 11.5229 22.8311 11.7544 22.6637 11.9251C22.4962 12.0958 22.2691 12.1917 22.0323 12.1917C21.7955 12.1917 21.5684 12.0958 21.401 11.9251C21.2336 11.7544 21.1395 11.5229 21.1395 11.2814C21.1395 10.0745 20.6692 8.91689 19.8321 8.06342C18.995 7.20995 17.8596 6.73047 16.6758 6.73047C16.4441 6.72276 16.2245 6.62345 16.0634 6.45356C15.9022 6.28367 15.8123 6.05653 15.8125 5.82022C15.8127 5.5839 15.9031 5.35695 16.0646 5.18739C16.226 5.01783 16.4459 4.91897 16.6775 4.91173ZM16.6775 8.55287C18.1553 8.55287 19.3538 9.7748 19.3538 11.2814C19.3465 11.5176 19.2493 11.7417 19.0828 11.9061C18.9163 12.0705 18.6937 12.1625 18.4619 12.1625C18.2301 12.1625 18.0074 12.0705 17.8409 11.9061C17.6745 11.7417 17.5773 11.5176 17.5699 11.2814C17.5697 11.0402 17.4756 10.8089 17.3083 10.6384C17.141 10.4678 16.9141 10.3719 16.6775 10.3716C16.4409 10.3716 16.2139 10.2758 16.0465 10.1051C15.8792 9.9345 15.7852 9.70309 15.7852 9.46178C15.7852 9.22048 15.8792 8.98906 16.0465 8.81844C16.2139 8.64781 16.4409 8.55196 16.6775 8.55196V8.55287Z" fill="white"/>
</svg>
