<svg width="60" height="60" viewBox="0 0 60 60" fill="none" xmlns="http://www.w3.org/2000/svg">
<rect width="60" height="60" rx="30" fill="white"/>
<path d="M27.6548 22.963H24.8399C23.8078 22.963 22.9634 23.8074 22.9634 24.8395V27.6543C22.9634 28.6864 23.8078 29.5309 24.8399 29.5309H27.6548C28.6869 29.5309 29.5314 28.6864 29.5314 27.6543V24.8395C29.5314 23.8074 28.6869 22.963 27.6548 22.963ZM28.1239 27.1852C28.1239 27.7013 27.7017 28.1235 27.1857 28.1235H25.3091C24.793 28.1235 24.3708 27.7013 24.3708 27.1852V25.3087C24.3708 24.7926 24.793 24.3704 25.3091 24.3704H27.1857C27.7017 24.3704 28.1239 24.7926 28.1239 25.3087V27.1852ZM27.6548 30.4692H24.8399C23.8078 30.4692 22.9634 31.3136 22.9634 32.3457V35.1605C22.9634 36.1926 23.8078 37.0371 24.8399 37.0371H27.6548C28.6869 37.0371 29.5314 36.1926 29.5314 35.1605V32.3457C29.5314 31.3136 28.6869 30.4692 27.6548 30.4692ZM28.1239 34.6914C28.1239 35.2074 27.7017 35.6297 27.1857 35.6297H25.3091C24.793 35.6297 24.3708 35.2074 24.3708 34.6914V32.8148C24.3708 32.2988 24.793 31.8766 25.3091 31.8766H27.1857C27.7017 31.8766 28.1239 32.2988 28.1239 32.8148V34.6914ZM35.1611 22.963H32.3462C31.3141 22.963 30.4697 23.8074 30.4697 24.8395V27.6543C30.4697 28.6864 31.3141 29.5309 32.3462 29.5309H35.1611C36.1932 29.5309 37.0377 28.6864 37.0377 27.6543V24.8395C37.0377 23.8074 36.1932 22.963 35.1611 22.963ZM35.6302 27.1852C35.6302 27.7013 35.208 28.1235 34.6919 28.1235H32.8154C32.2993 28.1235 31.8771 27.7013 31.8771 27.1852V25.3087C31.8771 24.7926 32.2993 24.3704 32.8154 24.3704H34.6919C35.208 24.3704 35.6302 24.7926 35.6302 25.3087V27.1852ZM35.1611 30.4692H32.3462C31.3141 30.4692 30.4697 31.3136 30.4697 32.3457V35.1605C30.4697 36.1926 31.3141 37.0371 32.3462 37.0371H35.1611C36.1932 37.0371 37.0377 36.1926 37.0377 35.1605V32.3457C37.0377 31.3136 36.1932 30.4692 35.1611 30.4692ZM35.6302 34.6914C35.6302 35.2074 35.208 35.6297 34.6919 35.6297H32.8154C32.2993 35.6297 31.8771 35.2074 31.8771 34.6914V32.8148C31.8771 32.2988 32.2993 31.8766 32.8154 31.8766H34.6919C35.208 31.8766 35.6302 32.2988 35.6302 32.8148V34.6914Z" fill="#121212"/>
<path d="M29.4742 11.8229C29.6837 11.6134 29.9655 11.4918 30.262 11.4831C30.5585 11.4743 30.8475 11.579 31.0699 11.7759L31.1218 11.8248L32.4713 13.1743C32.5282 13.2313 32.5615 13.3077 32.5643 13.3882C32.5671 13.4687 32.5393 13.5471 32.4865 13.6077C32.4336 13.6683 32.3597 13.7066 32.2796 13.7147C32.1996 13.7229 32.1193 13.7003 32.0551 13.6516L32.0224 13.6231L30.6729 12.2736C30.5802 12.1808 30.4563 12.1255 30.3254 12.1186C30.1945 12.1117 30.0657 12.1537 29.9641 12.2363L29.924 12.2728L28.5775 13.6193C28.5206 13.6761 28.4442 13.7092 28.3638 13.7119C28.2833 13.7145 28.2048 13.6865 28.1441 13.6335C28.0834 13.5806 28.045 13.5066 28.0366 13.4265C28.0283 13.3464 28.0507 13.2662 28.0992 13.2021L28.1277 13.1695L29.4742 11.8229Z" fill="#121212"/>
<path d="M31.124 48.1772C30.9144 48.3867 30.6327 48.5083 30.3361 48.517C30.0396 48.5257 29.7507 48.421 29.5283 48.2242L29.4764 48.1753L28.1269 46.8258C28.0699 46.7688 28.0367 46.6923 28.0338 46.6119C28.031 46.5314 28.0588 46.453 28.1117 46.3923C28.1645 46.3317 28.2384 46.2935 28.3185 46.2853C28.3986 46.2772 28.4788 46.2998 28.543 46.3485L28.5757 46.377L29.9252 47.7265C30.018 47.8193 30.1418 47.8745 30.2727 47.8814C30.4037 47.8883 30.5324 47.8464 30.634 47.7638L30.6741 47.7273L32.0206 46.3808C32.0775 46.3239 32.1539 46.2908 32.2343 46.2882C32.3148 46.2856 32.3933 46.3136 32.4541 46.3665C32.5148 46.4195 32.5532 46.4935 32.5615 46.5736C32.5698 46.6537 32.5475 46.7339 32.4989 46.798L32.4705 46.8306L31.124 48.1772Z" fill="#121212"/>
<path d="M48.1768 29.1747C48.3864 29.3842 48.5079 29.666 48.5167 29.9625C48.5254 30.259 48.4207 30.548 48.2239 30.7704L48.175 30.8222L46.8255 32.1718C46.7685 32.2287 46.692 32.262 46.6116 32.2648C46.5311 32.2676 46.4526 32.2398 46.392 32.187C46.3314 32.1341 46.2932 32.0602 46.285 31.9801C46.2769 31.9001 46.2994 31.8198 46.3482 31.7556L46.3766 31.7229L47.7262 30.3734C47.819 30.2806 47.8742 30.1568 47.8811 30.0259C47.888 29.895 47.8461 29.7662 47.7635 29.6646L47.727 29.6245L46.3805 28.278C46.3236 28.2211 46.2905 28.1447 46.2879 28.0643C46.2853 27.9838 46.3132 27.9053 46.3662 27.8446C46.4192 27.7838 46.4932 27.7454 46.5733 27.7371C46.6534 27.7288 46.7336 27.7512 46.7977 27.7997L46.8303 27.8281L48.1768 29.1747Z" fill="#121212"/>
<path d="M11.8227 30.8254C11.6131 30.6158 11.4916 30.3341 11.4829 30.0376C11.4741 29.741 11.5788 29.4521 11.7756 29.2297L11.8245 29.1778L13.174 27.8282C13.231 27.7713 13.3075 27.738 13.3879 27.7352C13.4684 27.7324 13.5469 27.7602 13.6075 27.813C13.6681 27.8659 13.7063 27.9398 13.7145 28.0199C13.7226 28.1 13.7001 28.1802 13.6514 28.2444L13.6229 28.2771L12.2734 29.6266C12.1805 29.7194 12.1253 29.8432 12.1184 29.9742C12.1115 30.1051 12.1534 30.2338 12.236 30.3354L12.2725 30.3755L13.619 31.7221C13.6759 31.779 13.709 31.8553 13.7116 31.9358C13.7143 32.0163 13.6863 32.0948 13.6333 32.1555C13.5803 32.2162 13.5063 32.2546 13.4262 32.263C13.3461 32.2713 13.2659 32.2489 13.2018 32.2004L13.1692 32.1719L11.8227 30.8254Z" fill="#121212"/>
</svg>
