<svg width="28" height="28" viewBox="0 0 28 28" fill="none" xmlns="http://www.w3.org/2000/svg">
<path d="M14.8752 10.3425H8.4585C8.22643 10.3425 8.00387 10.4347 7.83978 10.5988C7.67568 10.7629 7.5835 10.9854 7.5835 11.2175C7.5835 11.4496 7.67568 11.6721 7.83978 11.8362C8.00387 12.0003 8.22643 12.0925 8.4585 12.0925H14.8752C15.1072 12.0925 15.3298 12.0003 15.4939 11.8362C15.658 11.6721 15.7502 11.4496 15.7502 11.2175C15.7502 10.9854 15.658 10.7629 15.4939 10.5988C15.3298 10.4347 15.1072 10.3425 14.8752 10.3425ZM14.8752 14.4258H8.4585C8.22643 14.4258 8.00387 14.518 7.83978 14.6821C7.67568 14.8462 7.5835 15.0688 7.5835 15.3008C7.5835 15.5329 7.67568 15.7555 7.83978 15.9196C8.00387 16.0836 8.22643 16.1758 8.4585 16.1758H14.8752C15.1072 16.1758 15.3298 16.0836 15.4939 15.9196C15.658 15.7555 15.7502 15.5329 15.7502 15.3008C15.7502 15.0688 15.658 14.8462 15.4939 14.6821C15.3298 14.518 15.1072 14.4258 14.8752 14.4258ZM14.8752 18.5092H8.4585C8.22643 18.5092 8.00387 18.6014 7.83978 18.7654C7.67568 18.9295 7.5835 19.1521 7.5835 19.3842C7.5835 19.6162 7.67568 19.8388 7.83978 20.0029C8.00387 20.167 8.22643 20.2592 8.4585 20.2592H14.8752C15.1072 20.2592 15.3298 20.167 15.4939 20.0029C15.658 19.8388 15.7502 19.6162 15.7502 19.3842C15.7502 19.1521 15.658 18.9295 15.4939 18.7654C15.3298 18.6014 15.1072 18.5092 14.8752 18.5092Z" fill="white"/>
<path d="M25.375 24.3425H24.7917V11.9758C24.7918 11.5806 24.6772 11.1939 24.4618 10.8626C24.2465 10.5312 23.9395 10.2695 23.5783 10.1092L19.5417 8.31832V3.94915C19.5414 3.64048 19.4712 3.33587 19.3363 3.05825C19.2014 2.78062 19.0053 2.5372 18.7627 2.34629C18.5201 2.15539 18.2374 2.02197 17.9359 1.95607C17.6343 1.89017 17.3218 1.8935 17.0217 1.96582L4.77167 4.88249C4.32588 4.98886 3.92902 5.24253 3.64531 5.60246C3.3616 5.96239 3.20764 6.40752 3.20833 6.86582V24.3425H2.625C2.39294 24.3425 2.17038 24.4347 2.00628 24.5988C1.84219 24.7629 1.75 24.9854 1.75 25.2175C1.75 25.4496 1.84219 25.6721 2.00628 25.8362C2.17038 26.0003 2.39294 26.0925 2.625 26.0925H25.375C25.6071 26.0925 25.8296 26.0003 25.9937 25.8362C26.1578 25.6721 26.25 25.4496 26.25 25.2175C26.25 24.9854 26.1578 24.7629 25.9937 24.5988C25.8296 24.4347 25.6071 24.3425 25.375 24.3425ZM17.7917 7.53665V24.3425H4.95833V6.88915C4.95773 6.82352 4.97928 6.7596 5.01951 6.70773C5.05973 6.65586 5.11628 6.61907 5.18 6.60332L17.43 3.68665C17.473 3.67481 17.5181 3.67339 17.5618 3.68252C17.6054 3.69165 17.6462 3.71107 17.6808 3.73915C17.7155 3.76602 17.7436 3.80052 17.7628 3.83997C17.782 3.87942 17.7919 3.92277 17.7917 3.96665V7.53665ZM23.0417 24.3425H19.5417V10.2317L22.8667 11.7075C22.9188 11.7303 22.9632 11.7678 22.9943 11.8155C23.0254 11.8632 23.0419 11.9189 23.0417 11.9758V24.3425Z" fill="white"/>
</svg>
