<svg preserveAspectRatio="none" width="100%" height="100%" overflow="visible" style="display: block;" viewBox="0 0 16 16" fill="none" xmlns="http://www.w3.org/2000/svg">
<g id="Frame">
<path id="Vector" d="M13.5624 7.18198H2.43758C2.00131 7.18198 1.61956 7.56377 1.61956 8C1.61956 8.43623 2.00134 8.81802 2.43758 8.81802H13.5624C13.9987 8.81802 14.3804 8.43623 14.3804 8C14.3804 7.56377 13.9987 7.18198 13.5624 7.18198Z" fill="var(--fill-0, #121212)"/>
<path id="Vector_2" d="M13.5624 11.9264H2.43758C2.00131 11.9264 1.61956 12.3082 1.61956 12.7444C1.61956 13.1807 2.00134 13.5625 2.43758 13.5625H13.5624C13.9987 13.5625 14.3804 13.1807 14.3804 12.7444C14.3804 12.3082 13.9987 11.9264 13.5624 11.9264Z" fill="var(--fill-0, #121212)"/>
<path id="Vector_3" d="M2.43758 4.07358H13.5624C13.9987 4.07358 14.3804 3.6918 14.3804 3.25556C14.3804 2.81933 13.9987 2.43755 13.5624 2.43755H2.43758C2.00131 2.43755 1.61956 2.81933 1.61956 3.25556C1.61956 3.6918 2.00134 4.07358 2.43758 4.07358Z" fill="var(--fill-0, #121212)"/>
</g>
</svg>
