<svg preserveAspectRatio="none" width="100%" height="100%" overflow="visible" style="display: block;" viewBox="0 0 184.255 26" fill="none" xmlns="http://www.w3.org/2000/svg">
<g id="&#229;&#155;&#190;&#229;&#177;&#130; 1">
<path id="Vector" d="M19.3517 20.3642L18.4968 19.5025H6.45876V7.36914L5.60381 6.50743L0 0.859238V26H24.9482L19.3517 20.3642ZM0.884425 0L6.45139 5.61105L7.33336 6.5H19.3517V18.611L20.2361 19.5025L25.7957 25.1135V0H0.884425Z" fill="var(--fill-0, white)"/>
<path id="Vector_2" d="M44.6098 19.3143C43.7697 19.3253 42.9386 19.1388 42.1825 18.7695C41.4628 18.4136 40.82 17.918 40.2908 17.311C39.7565 16.7045 39.3398 16.0023 39.0625 15.2409C38.7801 14.4781 38.6354 13.6705 38.635 12.8564C38.6327 12.0225 38.787 11.1958 39.0895 10.4198C39.3803 9.66171 39.8048 8.96291 40.3424 8.35712C40.8792 7.75797 41.53 7.27377 42.2562 6.93331C43.0063 6.57627 43.8269 6.3951 44.6564 6.4034C45.4988 6.3925 46.3313 6.58615 47.0837 6.96797C47.7992 7.33556 48.4367 7.84021 48.9606 8.45369C50.0107 9.68558 50.5946 11.2521 50.6091 12.8762C50.6051 14.5352 49.9926 16.1342 48.8894 17.3655C48.356 17.9579 47.7125 18.4392 46.9953 18.7819C46.2501 19.1384 45.4346 19.3204 44.6098 19.3143ZM40.679 12.8613C40.6786 13.4504 40.7723 14.0356 40.9566 14.5946C41.1277 15.1346 41.3958 15.6382 41.7477 16.0804C42.0873 16.5085 42.5115 16.861 42.9932 17.1154C43.4993 17.3761 44.0611 17.5079 44.6294 17.4992C45.2088 17.5055 45.7803 17.3632 46.2902 17.0857C46.7759 16.8243 47.2006 16.4613 47.5357 16.0209C47.8768 15.5744 48.1386 15.0717 48.3096 14.5352C48.4863 13.9908 48.5766 13.4217 48.5774 12.8489C48.5793 12.2543 48.483 11.6635 48.2924 11.1007C48.1145 10.567 47.8433 10.0697 47.4915 9.63236C47.1493 9.20997 46.7256 8.86204 46.246 8.60969C45.7359 8.35435 45.1736 8.22292 44.604 8.22593C44.0345 8.22894 43.4736 8.36631 42.9662 8.62702C42.4838 8.88688 42.0597 9.24431 41.7206 9.67693C41.3753 10.1206 41.113 10.6241 40.9468 11.1626C40.7707 11.7097 40.6803 12.2812 40.679 12.8564V12.8613Z" fill="var(--fill-0, white)"/>
<path id="Vector_3" d="M60.1188 9.48626C59.9643 9.32555 59.791 9.18421 59.6029 9.06531C59.3516 8.90257 59.0869 8.76174 58.8118 8.64436C58.4877 8.50548 58.1513 8.3977 57.807 8.32245C57.4215 8.23637 57.0276 8.19401 56.6327 8.19617C55.8515 8.19617 55.2569 8.35217 54.854 8.66169C54.6558 8.8146 54.4973 9.01363 54.3921 9.24175C54.2868 9.46987 54.238 9.72029 54.2497 9.9716C54.2374 10.2392 54.306 10.5042 54.4462 10.7318C54.5963 10.9486 54.7971 11.1247 55.0309 11.2444C55.3427 11.4125 55.6724 11.5446 56.0136 11.6381C56.4034 11.752 56.8596 11.875 57.382 12.007C57.9987 12.1729 58.5662 12.3463 59.0796 12.527C59.5497 12.6823 59.9937 12.9086 60.3964 13.1981C60.7502 13.4581 61.0394 13.7971 61.2416 14.1885C61.4571 14.6476 61.5607 15.1519 61.5437 15.6594C61.5612 16.247 61.4337 16.8298 61.1728 17.3556C60.9341 17.8115 60.5893 18.2024 60.168 18.4946C59.7199 18.799 59.2203 19.0181 58.6939 19.1409C58.1112 19.2805 57.5141 19.3495 56.9152 19.3465C55.9671 19.3484 55.0246 19.2005 54.1219 18.9082C53.2428 18.626 52.419 18.192 51.6873 17.6255L52.611 15.8922C52.8134 16.0865 53.0339 16.2606 53.2694 16.4122C53.5868 16.6201 53.9233 16.7967 54.2742 16.9396C54.6862 17.1109 55.1109 17.2492 55.5444 17.3531C56.0166 17.4681 56.5007 17.5254 56.9865 17.524C57.6041 17.5593 58.2186 17.413 58.7553 17.103C58.9597 16.9713 59.1258 16.7873 59.2367 16.5698C59.3476 16.3523 59.3993 16.1091 59.3867 15.8649C59.3978 15.5778 59.3168 15.2948 59.1558 15.0577C58.9757 14.8206 58.7447 14.6276 58.4802 14.4931C58.1338 14.3123 57.77 14.1679 57.3943 14.0623C56.9701 13.9352 56.4845 13.8006 55.9375 13.6586C55.3791 13.5153 54.8294 13.3392 54.2914 13.1312C53.8693 12.9726 53.4758 12.7451 53.127 12.4577C52.8266 12.2072 52.5864 11.8915 52.4243 11.5341C52.2524 11.13 52.1686 10.6934 52.1787 10.2539C52.1683 9.68159 52.2867 9.11438 52.5251 8.59483C52.7507 8.12135 53.0789 7.705 53.4856 7.37655C53.9169 7.03732 54.4091 6.78509 54.9351 6.63369C55.5188 6.46462 56.1237 6.38123 56.731 6.38607C57.547 6.37544 58.358 6.51559 59.1238 6.7996C59.7985 7.0509 60.4358 7.39415 61.018 7.81979L60.1188 9.48626Z" fill="var(--fill-0, white)"/>
<path id="Vector_4" d="M74.1691 19.2202V10.8011L70.4176 17.9821H69.3146L65.5435 10.8011V19.2202H63.5511V6.49256H65.686L69.8624 15.2632L74.0389 6.49256H76.1738V19.2202H74.1691Z" fill="var(--fill-0, white)"/>
<path id="Vector_5" d="M84.217 19.3143C83.3769 19.3253 82.5458 19.1388 81.7897 18.7695C81.0731 18.4143 80.4329 17.9204 79.9054 17.316C79.3711 16.7095 78.9544 16.0073 78.6771 15.2459C78.3947 14.483 78.25 13.6755 78.2496 12.8613C78.2474 12.0275 78.4016 11.2008 78.7041 10.4247C78.9949 9.66666 79.4194 8.96786 79.957 8.36207C80.4933 7.76114 81.1442 7.27523 81.8708 6.93331C82.6194 6.577 83.4383 6.39585 84.2661 6.4034C85.1084 6.3925 85.941 6.58615 86.6934 6.96797C87.4089 7.33556 88.0464 7.84021 88.5703 8.45369C89.6177 9.68663 90.199 11.2531 90.2114 12.8762C90.2114 14.5344 89.6033 16.1342 88.504 17.368C87.9706 17.9604 87.3271 18.4416 86.6099 18.7844C85.8622 19.1408 85.0441 19.3219 84.217 19.3143ZM80.2862 12.8613C80.2858 13.4504 80.3795 14.0356 80.5638 14.5946C80.7349 15.1346 81.0031 15.6382 81.3549 16.0804C81.6941 16.5074 82.1174 16.8589 82.598 17.1129C83.1051 17.3734 83.6676 17.5051 84.2367 17.4967C84.8159 17.5038 85.3873 17.3624 85.8974 17.0857C86.3832 16.8243 86.8078 16.4613 87.143 16.0209C87.484 15.5744 87.7459 15.0717 87.9168 14.5352C88.0969 13.9938 88.1914 13.4273 88.1969 12.8564C88.1988 12.2617 88.1025 11.6709 87.9119 11.1082C87.734 10.5745 87.4628 10.0771 87.111 9.63978C86.7688 9.21739 86.3451 8.86947 85.8655 8.61712C85.3554 8.36178 84.7931 8.23035 84.2236 8.23336C83.654 8.23637 83.0931 8.37373 82.5857 8.63445C82.0953 8.89175 81.6636 9.24934 81.318 9.68435C80.9727 10.1281 80.7104 10.6315 80.5442 11.1701C80.3722 11.7153 80.2851 12.2842 80.2862 12.8564V12.8613Z" fill="var(--fill-0, white)"/>
<path id="Vector_6" d="M99.7261 9.48633C99.5716 9.32561 99.3984 9.18427 99.2102 9.06537C98.9589 8.90263 98.6942 8.7618 98.4192 8.64442C98.095 8.50554 97.7586 8.39777 97.4144 8.32252C97.0288 8.23643 96.6349 8.19407 96.24 8.19623C95.4588 8.19623 94.8643 8.35223 94.4614 8.66176C94.2613 8.8136 94.1009 9.01216 93.994 9.24035C93.887 9.46853 93.8366 9.7195 93.8472 9.97166C93.8349 10.2393 93.9034 10.5043 94.0437 10.7319C94.1944 10.949 94.3962 11.1251 94.6309 11.2444C94.9431 11.4091 95.2727 11.5379 95.6136 11.6282C96.005 11.7421 96.4611 11.8651 96.982 11.9972C97.5994 12.1623 98.1653 12.3356 98.6796 12.5172C99.1496 12.6725 99.5936 12.8988 99.9964 13.1882C100.35 13.4483 100.639 13.7873 100.842 14.1787C101.057 14.6377 101.161 15.142 101.144 15.6496C101.161 16.2391 101.033 16.8237 100.77 17.3507C100.532 17.8067 100.187 18.1975 99.7654 18.4898C99.3174 18.7941 98.8178 19.0132 98.2914 19.136C97.7087 19.2756 97.1116 19.3446 96.5127 19.3416C95.5646 19.3435 94.6221 19.1956 93.7194 18.9033C92.8398 18.6206 92.0152 18.1866 91.2823 17.6206L92.2085 15.8873C92.4109 16.0816 92.6314 16.2557 92.8669 16.4073C93.1843 16.6152 93.5208 16.7918 93.8717 16.9347C94.2837 17.106 94.7084 17.2443 95.1419 17.3482C95.6141 17.4632 96.0982 17.5205 96.584 17.5191C97.2016 17.5544 97.8161 17.4082 98.3528 17.0981C98.5572 16.9664 98.7233 16.7824 98.8342 16.5649C98.9451 16.3474 98.9968 16.1042 98.9842 15.86C98.9917 15.583 98.9136 15.3104 98.7606 15.08C98.5805 14.8429 98.3496 14.6499 98.085 14.5155C97.7387 14.3347 97.3748 14.1903 96.9992 14.0846C96.5733 13.9575 96.0877 13.823 95.5423 13.681C94.9839 13.5377 94.4343 13.3616 93.8963 13.1536C93.4741 12.9949 93.0807 12.7674 92.7318 12.48C92.4314 12.2296 92.1912 11.9138 92.0292 11.5564C91.8572 11.1524 91.7735 10.7158 91.7835 10.2762C91.7732 9.70394 91.8916 9.13672 92.1299 8.61718C92.36 8.14094 92.6954 7.72418 93.1102 7.3989C93.5414 7.05967 94.0336 6.80744 94.5596 6.65604C95.1433 6.48697 95.7482 6.40358 96.3555 6.40842C97.1715 6.39779 97.9825 6.53794 98.7484 6.82195C99.423 7.07325 100.06 7.4165 100.643 7.84214L99.7261 9.48633Z" fill="var(--fill-0, white)"/>
<path id="Vector_7" d="M103.159 19.2202V6.5124H105.149V19.2202H103.159Z" fill="var(--fill-0, white)"/>
<path id="Vector_8" d="M115.485 9.48633C115.33 9.32561 115.157 9.18427 114.969 9.06537C114.717 8.90263 114.453 8.7618 114.178 8.64442C113.854 8.50554 113.517 8.39777 113.173 8.32252C112.787 8.23643 112.394 8.19407 111.999 8.19623C111.216 8.19623 110.623 8.35141 110.22 8.66176C110.022 8.81467 109.863 9.01369 109.758 9.24182C109.653 9.46994 109.604 9.72036 109.616 9.97166C109.603 10.2393 109.672 10.5043 109.812 10.7319C109.963 10.9483 110.163 11.1243 110.397 11.2444C110.709 11.4085 111.039 11.5372 111.38 11.6282C111.769 11.7421 112.225 11.8651 112.748 11.9972C113.364 12.1623 113.93 12.3356 114.446 12.5172C114.916 12.6725 115.36 12.8988 115.762 13.1882C116.116 13.4483 116.405 13.7873 116.607 14.1787C116.823 14.6377 116.927 15.142 116.91 15.6496C116.927 16.2391 116.799 16.8237 116.536 17.3507C116.298 17.8067 115.953 18.1975 115.531 18.4898C115.083 18.7941 114.584 19.0132 114.057 19.136C113.475 19.2756 112.878 19.3446 112.279 19.3416C111.331 19.3435 110.388 19.1956 109.485 18.9033C108.606 18.6206 107.781 18.1866 107.048 17.6206L107.974 15.8873C108.177 16.0816 108.397 16.2557 108.633 16.4073C108.95 16.6152 109.287 16.7918 109.638 16.9347C110.05 17.106 110.474 17.2443 110.908 17.3482C111.38 17.4632 111.864 17.5205 112.35 17.5191C112.968 17.5544 113.582 17.4082 114.119 17.0981C114.323 16.9664 114.489 16.7824 114.6 16.5649C114.711 16.3474 114.763 16.1042 114.75 15.86C114.761 15.5729 114.68 15.2899 114.519 15.0528C114.339 14.8157 114.108 14.6227 113.844 14.4882C113.499 14.3173 113.137 14.182 112.765 14.0846C112.339 13.9575 111.854 13.823 111.308 13.681C110.75 13.5377 110.2 13.3616 109.662 13.1536C109.24 12.9949 108.847 12.7674 108.498 12.48C108.197 12.2296 107.957 11.9138 107.795 11.5564C107.623 11.1524 107.539 10.7158 107.549 10.2762C107.539 9.70394 107.658 9.13672 107.896 8.61718C108.12 8.14297 108.449 7.72638 108.856 7.3989C109.288 7.05967 109.78 6.80744 110.306 6.65604C110.89 6.48697 111.494 6.40358 112.102 6.40842C112.918 6.39779 113.729 6.53794 114.495 6.82195C115.169 7.07325 115.807 7.4165 116.389 7.84214L115.485 9.48633Z" fill="var(--fill-0, white)"/>
<path id="Vector_9" d="M129.303 19.3292C128.481 19.3371 127.67 19.146 126.937 18.772C126.218 18.4057 125.577 17.901 125.05 17.2863C124.521 16.6726 124.105 15.9681 123.822 15.2063C123.535 14.4539 123.388 13.6549 123.387 12.849C123.387 12.0287 123.534 11.2151 123.82 10.4471C124.093 9.69045 124.503 8.9912 125.028 8.38439C125.542 7.78536 126.172 7.29763 126.878 6.95068C127.603 6.59474 128.401 6.41334 129.207 6.42077C130.465 6.42077 131.482 6.68077 132.258 7.20077C133.014 7.69684 133.624 8.38654 134.027 9.19906L133.29 9.64725C132.925 8.87841 132.332 8.24316 131.593 7.82973C130.853 7.44556 130.031 7.25161 129.2 7.26515C128.496 7.25539 127.801 7.41767 127.173 7.73811C126.575 8.04957 126.048 8.48301 125.625 9.01087C125.193 9.54761 124.86 10.1582 124.643 10.8135C124.411 11.4765 124.291 12.1735 124.286 12.8762C124.282 13.6061 124.415 14.3303 124.677 15.0107C124.931 15.6682 125.299 16.2752 125.763 16.8034C126.214 17.3219 126.765 17.7431 127.382 18.0415C127.995 18.3395 128.667 18.4927 129.347 18.4897C130.156 18.4931 130.952 18.2867 131.659 17.8905C132.473 17.4096 133.182 16.7658 133.74 15.9987V17.061C132.492 18.5962 131.008 19.3292 129.303 19.3292ZM133.553 13.7899H130.698V13.0471H134.334V16.3924L133.553 17.2863V13.7899Z" fill="var(--fill-0, white)"/>
<path id="Vector_10" d="M137.003 19.2375V6.51238H142.246C142.757 6.50606 143.262 6.62234 143.72 6.85162C144.16 7.07578 144.553 7.38351 144.877 7.7579C145.2 8.13238 145.459 8.55937 145.641 9.02076C145.828 9.47549 145.926 9.96225 145.931 10.4545C145.936 11.0666 145.808 11.6725 145.557 12.2299C145.322 12.7678 144.967 13.2434 144.518 13.619C144.074 13.9909 143.533 14.2272 142.96 14.3L146.11 19.2524H145.061L142 14.4337H137.909V19.2375H137.003ZM137.909 13.5918H142.332C142.842 13.6035 143.341 13.446 143.754 13.1436C144.159 12.8423 144.48 12.4417 144.688 11.9798C144.906 11.5017 145.019 10.981 145.017 10.4545C145.024 9.91718 144.894 9.387 144.641 8.91428C144.399 8.45635 144.052 8.0633 143.629 7.76781C143.214 7.47677 142.719 7.32277 142.214 7.32704H137.909V13.5918Z" fill="var(--fill-0, white)"/>
<path id="Vector_11" d="M153.577 19.3291C152.746 19.3393 151.923 19.1518 151.177 18.7819C150.464 18.4261 149.829 17.9292 149.31 17.3209C148.786 16.7098 148.376 16.0086 148.099 15.2508C147.818 14.4911 147.674 13.6869 147.674 12.8762C147.668 11.2191 148.272 9.61873 149.369 8.38435C149.899 7.78765 150.539 7.30068 151.253 6.95063C151.982 6.59567 152.783 6.41437 153.592 6.42073C154.428 6.40827 155.255 6.5994 156.002 6.97787C156.714 7.34314 157.347 7.84829 157.862 8.46359C158.38 9.08103 158.789 9.78381 159.071 10.5411C159.353 11.2868 159.499 12.078 159.501 12.8762C159.504 13.7132 159.353 14.5436 159.056 15.3251C158.767 16.0837 158.341 16.7821 157.8 17.3853C157.273 17.9844 156.632 18.4718 155.916 18.819C155.185 19.1653 154.385 19.3397 153.577 19.3291ZM148.58 12.8762C148.58 14.3005 149.08 15.6788 149.993 16.7663C150.432 17.288 150.972 17.7143 151.58 18.0192C152.214 18.3284 152.91 18.4876 153.614 18.4846C154.318 18.4816 155.012 18.3165 155.643 18.0019C156.255 17.6862 156.795 17.2471 157.231 16.7118C157.669 16.1757 158.009 15.5653 158.235 14.9091C158.702 13.5703 158.694 12.1101 158.213 10.7763C157.978 10.1203 157.625 9.51348 157.172 8.98606C156.73 8.46518 156.189 8.03837 155.582 7.73063C154.967 7.41843 154.286 7.25884 153.597 7.26511C152.881 7.25556 152.174 7.42125 151.536 7.74797C150.928 8.06287 150.391 8.50227 149.961 9.03806C149.527 9.57858 149.184 10.1877 148.946 10.8407C148.705 11.4918 148.581 12.1811 148.58 12.8762Z" fill="var(--fill-0, white)"/>
<path id="Vector_12" d="M167.023 19.3292C166.15 19.3587 165.283 19.1734 164.497 18.7893C163.843 18.452 163.287 17.9506 162.881 17.3334C162.471 16.7009 162.175 15.9999 162.009 15.2633C161.831 14.4936 161.742 13.706 161.743 12.9158V6.5124H162.65V12.9109C162.649 13.5975 162.721 14.2823 162.864 14.9537C162.993 15.591 163.231 16.2009 163.566 16.7564C163.893 17.2885 164.353 17.7242 164.9 18.0193C165.553 18.3512 166.278 18.5113 167.008 18.4848C167.747 18.5083 168.479 18.3376 169.133 17.9895C169.679 17.6834 170.138 17.2419 170.467 16.7069C170.801 16.155 171.036 15.5481 171.16 14.9141C171.297 14.2511 171.365 13.5757 171.364 12.8985V6.5124H172.273V12.9109C172.276 13.733 172.182 14.5527 171.993 15.3524C171.826 16.0878 171.522 16.7845 171.096 17.4052C170.679 18.0025 170.123 18.488 169.477 18.8191C168.711 19.1848 167.87 19.3597 167.023 19.3292Z" fill="var(--fill-0, white)"/>
<path id="Vector_13" d="M175.384 19.2375V6.5124H180.57C181.081 6.50494 181.587 6.62128 182.044 6.85164C182.485 7.07718 182.88 7.38466 183.209 7.75793C183.538 8.13013 183.8 8.55754 183.982 9.02079C184.164 9.47669 184.256 9.96341 184.255 10.4545C184.259 11.1237 184.104 11.7842 183.803 12.381C183.515 12.9706 183.088 13.4805 182.56 13.8667C182.011 14.2544 181.353 14.4549 180.683 14.4387H176.29V19.2425L175.384 19.2375ZM176.29 13.5918H180.646C181.163 13.6053 181.669 13.4479 182.088 13.1436C182.492 12.8436 182.81 12.4424 183.012 11.9798C183.226 11.5003 183.335 10.9801 183.331 10.4545C183.336 9.92518 183.211 9.40285 182.968 8.93379C182.724 8.46472 182.37 8.0634 181.936 7.76536C181.526 7.48129 181.039 7.33092 180.541 7.3345H176.29V13.5918Z" fill="var(--fill-0, white)"/>
</g>
</svg>
